<?xml version="1.0" standalone="no"?>
<!DOCTYPE svg PUBLIC "-//W3C//DTD SVG 1.1//EN" "http://www.w3.org/Graphics/SVG/1.1/DTD/svg11.dtd" >
<svg xmlns="http://www.w3.org/2000/svg">
<metadata></metadata>
<defs>
<font id="pepinteractive" horiz-adv-x="2560" >
<font-face units-per-em="2048" ascent="1536" descent="-512" />
<missing-glyph horiz-adv-x="1024" />
<glyph horiz-adv-x="2048" />
<glyph horiz-adv-x="2048" />
<glyph unicode="&#xd;" horiz-adv-x="2048" />
<glyph unicode=" "  horiz-adv-x="1024" />
<glyph unicode="&#x09;" horiz-adv-x="1024" />
<glyph unicode="&#xa0;" horiz-adv-x="1024" />
<glyph unicode="!" d="M287 -2v1982h1984v-1982h-1984zM485 195h1588v1587h-1588v-1587zM647 500l492 487l-492 492l141 141l492 -492l492 492l141 -141l-492 -492l492 -487l-141 -142l-492 490l-492 -490z" />
<glyph unicode="&#x22;" d="M287 -2v1982h1984v-1982h-1984zM485 195h1588v1587h-1588v-1587zM647 500l492 487l-492 492l141 141l492 -492l492 492l141 -141l-492 -492l492 -487l-141 -142l-492 490l-492 -490z" />
<glyph unicode="#" d="M287 -2v1982h1984v-1982h-1984zM485 195h1588v1587h-1588v-1587zM647 500l492 487l-492 492l141 141l492 -492l492 492l141 -141l-492 -492l492 -487l-141 -142l-492 490l-492 -490z" />
<glyph unicode="$" d="M287 -2v1982h1984v-1982h-1984zM485 195h1588v1587h-1588v-1587zM647 500l492 487l-492 492l141 141l492 -492l492 492l141 -141l-492 -492l492 -487l-141 -142l-492 490l-492 -490z" />
<glyph unicode="%" d="M287 -2v1982h1984v-1982h-1984zM485 195h1588v1587h-1588v-1587zM647 500l492 487l-492 492l141 141l492 -492l492 492l141 -141l-492 -492l492 -487l-141 -142l-492 490l-492 -490z" />
<glyph unicode="&#x26;" d="M287 -2v1982h1984v-1982h-1984zM485 195h1588v1587h-1588v-1587zM647 500l492 487l-492 492l141 141l492 -492l492 492l141 -141l-492 -492l492 -487l-141 -142l-492 490l-492 -490z" />
<glyph unicode="'" d="M287 -2v1982h1984v-1982h-1984zM485 195h1588v1587h-1588v-1587zM647 500l492 487l-492 492l141 141l492 -492l492 492l141 -141l-492 -492l492 -487l-141 -142l-492 490l-492 -490z" />
<glyph unicode="(" d="M287 -2v1982h1984v-1982h-1984zM485 195h1588v1587h-1588v-1587zM647 500l492 487l-492 492l141 141l492 -492l492 492l141 -141l-492 -492l492 -487l-141 -142l-492 490l-492 -490z" />
<glyph unicode=")" d="M287 -2v1982h1984v-1982h-1984zM485 195h1588v1587h-1588v-1587zM647 500l492 487l-492 492l141 141l492 -492l492 492l141 -141l-492 -492l492 -487l-141 -142l-492 490l-492 -490z" />
<glyph unicode="*" d="M287 -2v1982h1984v-1982h-1984zM485 195h1588v1587h-1588v-1587zM647 500l492 487l-492 492l141 141l492 -492l492 492l141 -141l-492 -492l492 -487l-141 -142l-492 490l-492 -490z" />
<glyph unicode="+" d="M287 -2v1982h1984v-1982h-1984zM485 195h1588v1587h-1588v-1587zM647 500l492 487l-492 492l141 141l492 -492l492 492l141 -141l-492 -492l492 -487l-141 -142l-492 490l-492 -490z" />
<glyph unicode="," d="M287 -2v1982h1984v-1982h-1984zM485 195h1588v1587h-1588v-1587zM647 500l492 487l-492 492l141 141l492 -492l492 492l141 -141l-492 -492l492 -487l-141 -142l-492 490l-492 -490z" />
<glyph unicode="-" d="M287 -2v1982h1984v-1982h-1984zM485 195h1588v1587h-1588v-1587zM647 500l492 487l-492 492l141 141l492 -492l492 492l141 -141l-492 -492l492 -487l-141 -142l-492 490l-492 -490z" />
<glyph unicode="." d="M287 -2v1982h1984v-1982h-1984zM485 195h1588v1587h-1588v-1587zM647 500l492 487l-492 492l141 141l492 -492l492 492l141 -141l-492 -492l492 -487l-141 -142l-492 490l-492 -490z" />
<glyph unicode="/" d="M287 -2v1982h1984v-1982h-1984zM485 195h1588v1587h-1588v-1587zM647 500l492 487l-492 492l141 141l492 -492l492 492l141 -141l-492 -492l492 -487l-141 -142l-492 490l-492 -490z" />
<glyph unicode="0" d="M287 -2v1982h1984v-1982h-1984zM485 195h1588v1587h-1588v-1587zM647 500l492 487l-492 492l141 141l492 -492l492 492l141 -141l-492 -492l492 -487l-141 -142l-492 490l-492 -490z" />
<glyph unicode="1" d="M287 -2v1982h1984v-1982h-1984zM485 195h1588v1587h-1588v-1587zM647 500l492 487l-492 492l141 141l492 -492l492 492l141 -141l-492 -492l492 -487l-141 -142l-492 490l-492 -490z" />
<glyph unicode="2" d="M287 -2v1982h1984v-1982h-1984zM485 195h1588v1587h-1588v-1587zM647 500l492 487l-492 492l141 141l492 -492l492 492l141 -141l-492 -492l492 -487l-141 -142l-492 490l-492 -490z" />
<glyph unicode="3" d="M287 -2v1982h1984v-1982h-1984zM485 195h1588v1587h-1588v-1587zM647 500l492 487l-492 492l141 141l492 -492l492 492l141 -141l-492 -492l492 -487l-141 -142l-492 490l-492 -490z" />
<glyph unicode="4" d="M287 -2v1982h1984v-1982h-1984zM485 195h1588v1587h-1588v-1587zM647 500l492 487l-492 492l141 141l492 -492l492 492l141 -141l-492 -492l492 -487l-141 -142l-492 490l-492 -490z" />
<glyph unicode="5" d="M287 -2v1982h1984v-1982h-1984zM485 195h1588v1587h-1588v-1587zM647 500l492 487l-492 492l141 141l492 -492l492 492l141 -141l-492 -492l492 -487l-141 -142l-492 490l-492 -490z" />
<glyph unicode="6" d="M287 -2v1982h1984v-1982h-1984zM485 195h1588v1587h-1588v-1587zM647 500l492 487l-492 492l141 141l492 -492l492 492l141 -141l-492 -492l492 -487l-141 -142l-492 490l-492 -490z" />
<glyph unicode="7" d="M287 -2v1982h1984v-1982h-1984zM485 195h1588v1587h-1588v-1587zM647 500l492 487l-492 492l141 141l492 -492l492 492l141 -141l-492 -492l492 -487l-141 -142l-492 490l-492 -490z" />
<glyph unicode="8" d="M287 -2v1982h1984v-1982h-1984zM485 195h1588v1587h-1588v-1587zM647 500l492 487l-492 492l141 141l492 -492l492 492l141 -141l-492 -492l492 -487l-141 -142l-492 490l-492 -490z" />
<glyph unicode="9" d="M287 -2v1982h1984v-1982h-1984zM485 195h1588v1587h-1588v-1587zM647 500l492 487l-492 492l141 141l492 -492l492 492l141 -141l-492 -492l492 -487l-141 -142l-492 490l-492 -490z" />
<glyph unicode=":" d="M287 -2v1982h1984v-1982h-1984zM485 195h1588v1587h-1588v-1587zM647 500l492 487l-492 492l141 141l492 -492l492 492l141 -141l-492 -492l492 -487l-141 -142l-492 490l-492 -490z" />
<glyph unicode=";" d="M287 -2v1982h1984v-1982h-1984zM485 195h1588v1587h-1588v-1587zM647 500l492 487l-492 492l141 141l492 -492l492 492l141 -141l-492 -492l492 -487l-141 -142l-492 490l-492 -490z" />
<glyph unicode="&#x3c;" d="M287 -2v1982h1984v-1982h-1984zM485 195h1588v1587h-1588v-1587zM647 500l492 487l-492 492l141 141l492 -492l492 492l141 -141l-492 -492l492 -487l-141 -142l-492 490l-492 -490z" />
<glyph unicode="=" d="M287 -2v1982h1984v-1982h-1984zM485 195h1588v1587h-1588v-1587zM647 500l492 487l-492 492l141 141l492 -492l492 492l141 -141l-492 -492l492 -487l-141 -142l-492 490l-492 -490z" />
<glyph unicode="&#x3e;" d="M287 -2v1982h1984v-1982h-1984zM485 195h1588v1587h-1588v-1587zM647 500l492 487l-492 492l141 141l492 -492l492 492l141 -141l-492 -492l492 -487l-141 -142l-492 490l-492 -490z" />
<glyph unicode="?" d="M287 -2v1982h1984v-1982h-1984zM485 195h1588v1587h-1588v-1587zM647 500l492 487l-492 492l141 141l492 -492l492 492l141 -141l-492 -492l492 -487l-141 -142l-492 490l-492 -490z" />
<glyph unicode="@" d="M287 -2v1982h1984v-1982h-1984zM485 195h1588v1587h-1588v-1587zM647 500l492 487l-492 492l141 141l492 -492l492 492l141 -141l-492 -492l492 -487l-141 -142l-492 490l-492 -490z" />
<glyph unicode="A" d="M287 -2v1982h1984v-1982h-1984zM485 195h1588v1587h-1588v-1587zM647 500l492 487l-492 492l141 141l492 -492l492 492l141 -141l-492 -492l492 -487l-141 -142l-492 490l-492 -490z" />
<glyph unicode="B" d="M287 -2v1982h1984v-1982h-1984zM485 195h1588v1587h-1588v-1587zM647 500l492 487l-492 492l141 141l492 -492l492 492l141 -141l-492 -492l492 -487l-141 -142l-492 490l-492 -490z" />
<glyph unicode="C" d="M287 -2v1982h1984v-1982h-1984zM485 195h1588v1587h-1588v-1587zM647 500l492 487l-492 492l141 141l492 -492l492 492l141 -141l-492 -492l492 -487l-141 -142l-492 490l-492 -490z" />
<glyph unicode="D" d="M287 -2v1982h1984v-1982h-1984zM485 195h1588v1587h-1588v-1587zM647 500l492 487l-492 492l141 141l492 -492l492 492l141 -141l-492 -492l492 -487l-141 -142l-492 490l-492 -490z" />
<glyph unicode="E" d="M287 -2v1982h1984v-1982h-1984zM485 195h1588v1587h-1588v-1587zM647 500l492 487l-492 492l141 141l492 -492l492 492l141 -141l-492 -492l492 -487l-141 -142l-492 490l-492 -490z" />
<glyph unicode="F" d="M287 -2v1982h1984v-1982h-1984zM485 195h1588v1587h-1588v-1587zM647 500l492 487l-492 492l141 141l492 -492l492 492l141 -141l-492 -492l492 -487l-141 -142l-492 490l-492 -490z" />
<glyph unicode="G" d="M287 -2v1982h1984v-1982h-1984zM485 195h1588v1587h-1588v-1587zM647 500l492 487l-492 492l141 141l492 -492l492 492l141 -141l-492 -492l492 -487l-141 -142l-492 490l-492 -490z" />
<glyph unicode="H" d="M287 -2v1982h1984v-1982h-1984zM485 195h1588v1587h-1588v-1587zM647 500l492 487l-492 492l141 141l492 -492l492 492l141 -141l-492 -492l492 -487l-141 -142l-492 490l-492 -490z" />
<glyph unicode="I" d="M287 -2v1982h1984v-1982h-1984zM485 195h1588v1587h-1588v-1587zM647 500l492 487l-492 492l141 141l492 -492l492 492l141 -141l-492 -492l492 -487l-141 -142l-492 490l-492 -490z" />
<glyph unicode="J" d="M287 -2v1982h1984v-1982h-1984zM485 195h1588v1587h-1588v-1587zM647 500l492 487l-492 492l141 141l492 -492l492 492l141 -141l-492 -492l492 -487l-141 -142l-492 490l-492 -490z" />
<glyph unicode="K" d="M287 -2v1982h1984v-1982h-1984zM485 195h1588v1587h-1588v-1587zM647 500l492 487l-492 492l141 141l492 -492l492 492l141 -141l-492 -492l492 -487l-141 -142l-492 490l-492 -490z" />
<glyph unicode="L" d="M287 -2v1982h1984v-1982h-1984zM485 195h1588v1587h-1588v-1587zM647 500l492 487l-492 492l141 141l492 -492l492 492l141 -141l-492 -492l492 -487l-141 -142l-492 490l-492 -490z" />
<glyph unicode="M" d="M287 -2v1982h1984v-1982h-1984zM485 195h1588v1587h-1588v-1587zM647 500l492 487l-492 492l141 141l492 -492l492 492l141 -141l-492 -492l492 -487l-141 -142l-492 490l-492 -490z" />
<glyph unicode="N" d="M287 -2v1982h1984v-1982h-1984zM485 195h1588v1587h-1588v-1587zM647 500l492 487l-492 492l141 141l492 -492l492 492l141 -141l-492 -492l492 -487l-141 -142l-492 490l-492 -490z" />
<glyph unicode="O" d="M287 -2v1982h1984v-1982h-1984zM485 195h1588v1587h-1588v-1587zM647 500l492 487l-492 492l141 141l492 -492l492 492l141 -141l-492 -492l492 -487l-141 -142l-492 490l-492 -490z" />
<glyph unicode="P" d="M287 -2v1982h1984v-1982h-1984zM485 195h1588v1587h-1588v-1587zM647 500l492 487l-492 492l141 141l492 -492l492 492l141 -141l-492 -492l492 -487l-141 -142l-492 490l-492 -490z" />
<glyph unicode="Q" d="M287 -2v1982h1984v-1982h-1984zM485 195h1588v1587h-1588v-1587zM647 500l492 487l-492 492l141 141l492 -492l492 492l141 -141l-492 -492l492 -487l-141 -142l-492 490l-492 -490z" />
<glyph unicode="R" d="M287 -2v1982h1984v-1982h-1984zM485 195h1588v1587h-1588v-1587zM647 500l492 487l-492 492l141 141l492 -492l492 492l141 -141l-492 -492l492 -487l-141 -142l-492 490l-492 -490z" />
<glyph unicode="S" d="M287 -2v1982h1984v-1982h-1984zM485 195h1588v1587h-1588v-1587zM647 500l492 487l-492 492l141 141l492 -492l492 492l141 -141l-492 -492l492 -487l-141 -142l-492 490l-492 -490z" />
<glyph unicode="T" d="M287 -2v1982h1984v-1982h-1984zM485 195h1588v1587h-1588v-1587zM647 500l492 487l-492 492l141 141l492 -492l492 492l141 -141l-492 -492l492 -487l-141 -142l-492 490l-492 -490z" />
<glyph unicode="U" d="M287 -2v1982h1984v-1982h-1984zM485 195h1588v1587h-1588v-1587zM647 500l492 487l-492 492l141 141l492 -492l492 492l141 -141l-492 -492l492 -487l-141 -142l-492 490l-492 -490z" />
<glyph unicode="V" d="M287 -2v1982h1984v-1982h-1984zM485 195h1588v1587h-1588v-1587zM647 500l492 487l-492 492l141 141l492 -492l492 492l141 -141l-492 -492l492 -487l-141 -142l-492 490l-492 -490z" />
<glyph unicode="W" d="M287 -2v1982h1984v-1982h-1984zM485 195h1588v1587h-1588v-1587zM647 500l492 487l-492 492l141 141l492 -492l492 492l141 -141l-492 -492l492 -487l-141 -142l-492 490l-492 -490z" />
<glyph unicode="X" d="M287 -2v1982h1984v-1982h-1984zM485 195h1588v1587h-1588v-1587zM647 500l492 487l-492 492l141 141l492 -492l492 492l141 -141l-492 -492l492 -487l-141 -142l-492 490l-492 -490z" />
<glyph unicode="Y" d="M287 -2v1982h1984v-1982h-1984zM485 195h1588v1587h-1588v-1587zM647 500l492 487l-492 492l141 141l492 -492l492 492l141 -141l-492 -492l492 -487l-141 -142l-492 490l-492 -490z" />
<glyph unicode="Z" d="M287 -2v1982h1984v-1982h-1984zM485 195h1588v1587h-1588v-1587zM647 500l492 487l-492 492l141 141l492 -492l492 492l141 -141l-492 -492l492 -487l-141 -142l-492 490l-492 -490z" />
<glyph unicode="[" d="M287 -2v1982h1984v-1982h-1984zM485 195h1588v1587h-1588v-1587zM647 500l492 487l-492 492l141 141l492 -492l492 492l141 -141l-492 -492l492 -487l-141 -142l-492 490l-492 -490z" />
<glyph unicode="\" d="M287 -2v1982h1984v-1982h-1984zM485 195h1588v1587h-1588v-1587zM647 500l492 487l-492 492l141 141l492 -492l492 492l141 -141l-492 -492l492 -487l-141 -142l-492 490l-492 -490z" />
<glyph unicode="]" d="M287 -2v1982h1984v-1982h-1984zM485 195h1588v1587h-1588v-1587zM647 500l492 487l-492 492l141 141l492 -492l492 492l141 -141l-492 -492l492 -487l-141 -142l-492 490l-492 -490z" />
<glyph unicode="^" d="M287 -2v1982h1984v-1982h-1984zM485 195h1588v1587h-1588v-1587zM647 500l492 487l-492 492l141 141l492 -492l492 492l141 -141l-492 -492l492 -487l-141 -142l-492 490l-492 -490z" />
<glyph unicode="_" d="M287 -2v1982h1984v-1982h-1984zM485 195h1588v1587h-1588v-1587zM647 500l492 487l-492 492l141 141l492 -492l492 492l141 -141l-492 -492l492 -487l-141 -142l-492 490l-492 -490z" />
<glyph unicode="`" d="M287 -2v1982h1984v-1982h-1984zM485 195h1588v1587h-1588v-1587zM647 500l492 487l-492 492l141 141l492 -492l492 492l141 -141l-492 -492l492 -487l-141 -142l-492 490l-492 -490z" />
<glyph unicode="a" d="M330 399q0 72 46 122t113 50h1582q67 0 113 -50t46 -122t-46 -122t-113 -50h-1582q-67 0 -113 50t-46 122zM330 987q0 72 46 122t113 50h1582q67 0 113 -50t46 -122q0 -68 -46 -118t-113 -50h-1582q-67 0 -113 50t-46 118zM330 1579q0 72 46 122t113 50h1582 q67 0 113 -50t46 -122t-46 -122t-113 -50h-1582q-67 0 -113 50t-46 122z" />
<glyph unicode="b" d="M371 987q0 249 121.5 458.5t330.5 331t457 121.5q185 0 353.5 -72t290 -193.5t193.5 -290.5t72 -355q0 -184 -72 -352t-193.5 -289.5t-290 -193.5t-353.5 -72q-186 0 -354.5 72t-290 193.5t-193 289.5t-71.5 352zM1004 664q0 -37 27 -65t63 -28t64 28.5t28 64.5v645 q0 35 -27 58.5t-63 23.5h-9q-35 0 -59 -23.5t-24 -58.5v-645zM1374 664q0 -37 27 -65t63 -28t64 28.5t28 64.5v645q0 35 -28 59.5t-64 24.5h-30q-60 0 -60 -84v-645z" />
<glyph unicode="c" d="M483 485v549q0 20 16 35.5t36 15.5h92v678q0 73 51.5 124.5t124.5 51.5h735q32 0 53 -24l467 -539q15 -21 15 -45v-1116q0 -73 -51.5 -124.5t-125.5 -51.5h-1093q-73 0 -124.5 51.5t-51.5 124.5v219h-92q-20 0 -36 15.5t-16 35.5zM719 592h78v135h55q63 0 97 24.5 t34 86.5q0 104 -133 104h-131v-350zM770 215q0 -12 10.5 -24.5t22.5 -12.5h1093q16 0 26.5 12t10.5 25v1090l-10 14h-285q-50 0 -84 34t-34 85v346l-13 12h-704q-33 0 -33 -33v-678h993q20 0 36 -15.5t16 -35.5v-553l-43 -43l-62 -4h-940v-219zM797 793v86h37q67 0 67 -41 q0 -45 -53 -45h-51zM1053 592h127q84 0 140 45.5t56 128.5q0 91 -57.5 133.5t-149.5 42.5h-116v-350zM1130 664v206h46q53 0 85.5 -25.5t32.5 -74.5q0 -106 -125 -106h-39zM1444 592h76v135h149v72h-149v71h159v72h-235v-350z" />
<glyph unicode="d" d="M354 1367q52 198 201 347q147 148 346 200q100 26 200 26q99 0 199 -26q200 -52 347 -200q121 -121 178 -285q45 -130 45 -262q0 -35 -3 -71q-15 -168 -98 -310q5 0 5 -6l401 -399q57 -55 57 -133.5t-57 -134.5l-16 -19q-57 -56 -136.5 -56t-136.5 56l-399 400l-4 6 q-148 -82 -314 -98q-35 -3 -71 -3q-130 0 -257 45q-162 57 -286 181q-148 148 -201 346q-27 99 -27 199q1 98 27 197zM690 1059q29 -109 111 -191q123 -122 299 -123h2q175 0 299 123q82 82 111 191q14 54 14 108.5t-14 109.5q-29 109 -111 191q-127 126 -299 126h-2 q-174 -1 -299 -126q-82 -82 -111 -191q-14 -54 -14 -109t14 -109z" />
<glyph unicode="e" d="M367 281v1073q0 117 83 200.5t199 83.5h103v60q0 116 83.5 199t200.5 83h873q118 0 200 -83t82 -199v-1073q0 -118 -82 -201.5t-200 -83.5h-105v-59q0 -116 -82 -199.5t-198 -83.5h-875q-115 0 -198.5 83.5t-83.5 199.5zM543 281q0 -43 31.5 -75t74.5 -32h875 q43 0 74.5 32t31.5 75v1073q0 43 -31.5 75.5t-74.5 32.5h-875q-43 0 -74.5 -32.5t-31.5 -75.5v-1073zM678 819q0 43 29.5 73t72.5 30h187v188q0 44 29.5 73t72.5 29q44 0 73 -29t29 -73v-188h189q43 0 72.5 -30t29.5 -73t-29.5 -72.5t-72.5 -29.5h-189v-187q0 -44 -29 -73 t-73 -29q-43 0 -72.5 29t-29.5 73v187h-187q-43 0 -72.5 29.5t-29.5 72.5zM930 1638h594q117 0 198.5 -83.5t81.5 -200.5v-838h105q44 0 76 33t32 76v1073q0 43 -32 74.5t-76 31.5h-873q-43 0 -74.5 -31.5t-31.5 -74.5v-60z" />
<glyph unicode="f" d="M371 987q0 249 121.5 458.5t330.5 331t457 121.5q185 0 353.5 -72t290 -193.5t193.5 -290.5t72 -355q0 -184 -72 -352t-193.5 -289.5t-290 -193.5t-353.5 -72q-186 0 -354.5 72t-290 193.5t-193 289.5t-71.5 352zM657 1188l21 -236q3 -74 83.5 -137.5t208.5 -100 t269 -36.5q221 0 381 63l10 -153q0 -2 2 -4l-2 -2q0 -29 29 -29q12 0 20 8q8 3 13 23l206 458q5 8 5 15q0 9 -9 18l-264 285q-2 2 -4 2q-10 10 -20 10q-27 0 -27 -29v-4l12 -180q-107 -107 -401 -123q-28 -1 -55 -1q-89 0 -173 15q-110 19 -191.5 65.5t-100.5 111.5 q-11 -11 -11 -21v-6zM895 1178q1 1 20.5 24t34.5 35.5t55.5 32t94.5 30.5q24 0 24 15v76q0 24 -6 30q-12 4 -14 4q-104 -15 -178.5 -36.5t-139.5 -67.5q-34 -23 -34 -49q0 -72 143 -94z" />
<glyph unicode="g" d="M371 987q0 249 121.5 458.5t330.5 331t457 121.5q185 0 353.5 -72t290 -193.5t193.5 -290.5t72 -355q0 -184 -72 -352t-193.5 -289.5t-290 -193.5t-353.5 -72q-186 0 -354.5 72t-290 193.5t-193 289.5t-71.5 352zM995 616q0 -22 21 -34q10 -7 20 -7q18 0 21 7l622 358 q21 12 21 35q0 22 -21 37l-622 360q-11 6 -21 6t-20 -6q-21 -12 -21 -37v-719z" />
<glyph unicode="h" d="M336 545v809q0 38 28 65t66 27h246v442q0 20 16.5 35.5t36.5 15.5h1102q20 0 35.5 -15.5t15.5 -35.5v-442h248q38 0 66 -27t28 -65v-809q0 -38 -28 -65t-66 -27h-248v-363q0 -20 -15.5 -35.5t-35.5 -15.5h-1102q-20 0 -36.5 15.5t-16.5 35.5v363h-246q-38 0 -66 27 t-28 65zM842 203h876v641h-876v-641zM842 1446h876v330h-876v-330z" />
<glyph unicode="i" d="M246 987q0 109 73 182q74 74 183 74q104 0 179 -75t75 -181q0 -103 -75.5 -177.5t-178.5 -74.5q-104 0 -180 74.5t-76 177.5zM1026 987q0 109 72.5 182.5t181.5 73.5q106 0 180 -74t74 -182q0 -103 -74.5 -177.5t-179.5 -74.5t-179.5 74.5t-74.5 177.5zM1804 987 q0 109 72.5 182.5t181.5 73.5q106 0 180 -74q76 -73 76 -182q0 -103 -76 -177.5t-180 -74.5q-105 0 -179.5 74.5t-74.5 177.5z" />
<glyph unicode="j" d="M371 987q0 249 121.5 458.5t330.5 331t457 121.5q185 0 353.5 -72t290 -193.5t193.5 -290.5t72 -355q0 -184 -72 -352t-193.5 -289.5t-290 -193.5t-353.5 -72q-186 0 -354.5 72t-290 193.5t-193 289.5t-71.5 352zM843 615.5q0 -38.5 29 -64.5q29 -29 66 -29t66 29 l270 272l274 -272q27 -27 64 -27q40 0 67 27q29 26 29 64.5t-29 64.5l-338 342q-31 25 -67 25t-64 -25l-338 -342q-29 -26 -29 -64.5zM843 1042.5q0 -36.5 29 -65.5q29 -26 66 -26t66 26l270 274l274 -274q28 -25 64 -25q39 0 67 25q29 29 29 65.5t-29 65.5l-338 338 q-29 29 -67 29q-41 0 -64 -29l-338 -338q-29 -29 -29 -65.5z" />
<glyph unicode="k" d="M776 401v1176q0 78 68 113q29 14 58 14q39 0 75 -27l758 -587q49 -34 49 -99q0 -66 -49 -100l-758 -590q-36 -25 -76 -25q-25 0 -57 13q-31 17 -49.5 47t-18.5 65z" />
<glyph unicode="l" d="M330 287v1138q0 89 62.5 165.5t148.5 76.5h86v-70q0 -67 49 -115t117 -48t118 48t50 115v70h638v-70q0 -67 49 -115t117 -48q69 0 118.5 48t49.5 115v70h86q84 0 147.5 -77t63.5 -165v-1138q0 -83 -59 -148q-57 -63 -139 -63h-1481q-93 0 -157 60.5t-64 150.5zM541 289 h1484v960h-1484v-960zM715 1599v224q0 32 23 56t55 24q34 0 56.5 -23.5t22.5 -56.5v-224q0 -33 -22 -56t-57 -23q-32 0 -55 23.5t-23 55.5zM752 819v213h1060v-213h-1060zM1688 1599v224q0 33 22.5 56.5t54.5 23.5q35 0 57.5 -23.5t22.5 -56.5v-224q0 -33 -22.5 -56 t-57.5 -23q-32 0 -54.5 23.5t-22.5 55.5z" />
<glyph unicode="m" d="M330 287v1138q0 89 62.5 165.5t148.5 76.5h86v-70q0 -67 49 -115t117 -48t118 48t50 115v70h638v-70q0 -67 49 -115t117 -48q69 0 118.5 48t49.5 115v70h86q84 0 147.5 -77t63.5 -165v-1138q0 -83 -59 -148q-57 -63 -139 -63h-1481q-93 0 -157 60.5t-64 150.5zM541 289 h424v422h-424v-422zM541 819h424v430h-424v-430zM715 1599v224q0 32 23 56t55 24q34 0 56.5 -23.5t22.5 -56.5v-224q0 -33 -22 -56t-57 -23q-32 0 -55 23.5t-23 55.5zM1069 289h426v422h-426v-422zM1069 819h426v430h-426v-430zM1599 289h426v422h-426v-422zM1599 819h426 v430h-426v-430zM1688 1599v224q0 33 22.5 56.5t54.5 23.5q35 0 57.5 -23.5t22.5 -56.5v-224q0 -33 -22.5 -56t-57.5 -23q-32 0 -54.5 23.5t-22.5 55.5z" />
<glyph unicode="n" d="M371 987q0 249 121.5 458.5t330.5 331t457 121.5q185 0 353.5 -72t290 -193.5t193.5 -290.5t72 -355q0 -184 -72 -352t-193.5 -289.5t-290 -193.5t-353.5 -72q-186 0 -354.5 72t-290 193.5t-193 289.5t-71.5 352zM1098 1413q0 -73 54 -127.5t128 -54.5t128 54.5t54 127.5 t-54 127.5t-128 54.5t-128 -54.5t-54 -127.5zM1114 524q0 -69 48.5 -117.5t117.5 -48.5t117.5 48.5t48.5 117.5v389q0 69 -48.5 117.5t-117.5 48.5t-117.5 -48.5t-48.5 -117.5v-389z" />
<glyph unicode="o" d="M700 987q0 86 62 148l745 743q61 62 146.5 62t142.5 -62q59 -50 59 -143q0 -88 -59 -144l-600 -604l600 -600q60 -60 60 -144.5t-60 -146.5q-57 -57 -142.5 -57t-146.5 57l-745 748q-62 62 -62 143z" />
<glyph unicode="p" d="M371 1028q0 288 150.5 524.5t393.5 345.5v-675h-200q-52 0 -72 -45q-6 -17 -6 -32q0 -28 22 -50l564 -549q26 -23 57 -23q30 0 53 23l565 549q25 23 25 52q0 14 -6 30q-20 45 -72 45h-205v675q246 -109 397.5 -345.5t151.5 -524.5q0 -155 -46 -300t-130 -261.5 t-195.5 -204t-250.5 -135t-287 -47.5q-186 0 -354 74.5t-290 201.5t-193.5 302.5t-71.5 369.5z" />
<glyph unicode="q" d="M371 989q0 172 68 342.5t198 300.5q173 173 407 235q118 31 236 31q117 0 234 -30q235 -62 409 -236q130 -130 198 -300.5t68 -342.5t-68 -342.5t-198 -300.5q-131 -131 -301.5 -199t-342.5 -68t-342 68.5t-300 198.5t-198 300.5t-68 342.5zM762 993q0 -42 31 -73t75 -31 l308 -4l2 -307q0 -44 30 -74q31 -31 74 -31h3q41 0 71 29q30 30 30 73l-2 308h308q43 0 73.5 29.5t30.5 72.5t-30.5 74t-73.5 31l-310 4v307q0 43 -30.5 73.5t-73.5 30.5q-44 0 -75.5 -29.5t-31.5 -72.5l5 -307h-308q-44 0 -75 -30t-31 -73z" />
<glyph unicode="r" d="M371 991q0 184 71.5 352t193 289.5t290 193.5t354.5 72q185 0 353.5 -72t290 -193.5t193.5 -289.5t72 -352q0 -186 -72 -355t-193.5 -290.5t-290 -193.5t-353.5 -72q-248 0 -457 121.5t-330.5 331t-121.5 458.5zM778 639q0 -61 43 -104q43 -41 105 -41t106 41l248 245 l248 -245q47 -41 104 -41q60 0 107 41q43 43 43 104q0 60 -43 106l-246 246l246 242q43 46 43 106q0 62 -43 105q-44 43 -106 43t-105 -43l-248 -246l-248 246q-44 43 -106 43t-105 -43t-43 -105q0 -60 43 -106l246 -242l-246 -246q-43 -46 -43 -106z" />
<glyph unicode="s" d="M371 987q0 249 121.5 458.5t330.5 331t457 121.5q185 0 353.5 -72t290 -193.5t193.5 -290.5t72 -355q0 -184 -72 -352t-193.5 -289.5t-290 -193.5t-353.5 -72q-186 0 -354.5 72t-290 193.5t-193 289.5t-71.5 352zM598 987q0 -92 65.5 -156.5t159.5 -64.5q100 0 162 65 l303 -182q-8 -27 -8 -71q0 -94 65.5 -160t159.5 -66q92 0 158 66t66 160q0 92 -66 158.5t-158 66.5q-100 0 -162 -68l-301 185q7 27 7 67q0 41 -11 68l305 184q53 -63 162 -63q92 0 158 66.5t66 158.5t-66 158.5t-158 66.5q-95 0 -159 -67q-66 -66 -66 -158q0 -45 8 -70 l-303 -184q-59 65 -162 65q-94 0 -159.5 -64.5t-65.5 -160.5z" />
<glyph unicode="t" d="M700 244q0 84 62 143l602 600l-602 604q-57 57 -57 144q0 86 57 143q60 62 145 62t146 -62l743 -743q59 -59 59 -148q0 -84 -59 -143l-743 -748q-61 -57 -146 -57t-145 57q-62 62 -62 148z" />
<glyph unicode="u" d="M371 987q0 249 121.5 458.5t330.5 331t457 121.5q185 0 353.5 -72t290 -193.5t193.5 -290.5t72 -355q0 -184 -72 -352t-193.5 -289.5t-290 -193.5t-353.5 -72q-186 0 -354.5 72t-290 193.5t-193 289.5t-71.5 352zM852 935.5q0 -36.5 29 -65.5l338 -340q29 -26 65 -26 q37 0 66 26l338 340q26 29 26 65.5t-26 65.5q-29 26 -66 26t-66 -26l-272 -274l-272 274q-28 25 -66 25q-40 0 -65 -25q-29 -29 -29 -65.5zM852 1362q0 -39 29 -68l338 -338q30 -24 65 -24q36 0 66 24l338 338q26 29 26 68t-26 65q-29 29 -66 29t-66 -29l-272 -272l-272 272 q-27 27 -66 27q-41 0 -65 -27q-29 -26 -29 -65z" />
<glyph unicode="v" d="M287 -2v1982h1984v-1982h-1984zM485 195h1588v1587h-1588v-1587zM647 500l492 487l-492 492l141 141l492 -492l492 492l141 -141l-492 -492l492 -487l-141 -142l-492 490l-492 -490z" />
<glyph unicode="w" d="M287 -2v1982h1984v-1982h-1984zM485 195h1588v1587h-1588v-1587zM647 500l492 487l-492 492l141 141l492 -492l492 492l141 -141l-492 -492l492 -487l-141 -142l-492 490l-492 -490z" />
<glyph unicode="x" d="M287 -2v1982h1984v-1982h-1984zM485 195h1588v1587h-1588v-1587zM647 500l492 487l-492 492l141 141l492 -492l492 492l141 -141l-492 -492l492 -487l-141 -142l-492 490l-492 -490z" />
<glyph unicode="y" d="M287 -2v1982h1984v-1982h-1984zM485 195h1588v1587h-1588v-1587zM647 500l492 487l-492 492l141 141l492 -492l492 492l141 -141l-492 -492l492 -487l-141 -142l-492 490l-492 -490z" />
<glyph unicode="z" d="M287 -2v1982h1984v-1982h-1984zM485 195h1588v1587h-1588v-1587zM647 500l492 487l-492 492l141 141l492 -492l492 492l141 -141l-492 -492l492 -487l-141 -142l-492 490l-492 -490z" />
<glyph unicode="{" d="M287 -2v1982h1984v-1982h-1984zM485 195h1588v1587h-1588v-1587zM647 500l492 487l-492 492l141 141l492 -492l492 492l141 -141l-492 -492l492 -487l-141 -142l-492 490l-492 -490z" />
<glyph unicode="&#xad;" d="M287 -2v1982h1984v-1982h-1984zM485 195h1588v1587h-1588v-1587zM647 500l492 487l-492 492l141 141l492 -492l492 492l141 -141l-492 -492l492 -487l-141 -142l-492 490l-492 -490z" />
<glyph unicode="&#x2000;" horiz-adv-x="990" />
<glyph unicode="&#x2001;" horiz-adv-x="1980" />
<glyph unicode="&#x2002;" horiz-adv-x="990" />
<glyph unicode="&#x2003;" horiz-adv-x="1980" />
<glyph unicode="&#x2004;" horiz-adv-x="660" />
<glyph unicode="&#x2005;" horiz-adv-x="495" />
<glyph unicode="&#x2006;" horiz-adv-x="330" />
<glyph unicode="&#x2007;" horiz-adv-x="330" />
<glyph unicode="&#x2008;" horiz-adv-x="247" />
<glyph unicode="&#x2009;" horiz-adv-x="396" />
<glyph unicode="&#x200a;" horiz-adv-x="110" />
<glyph unicode="&#x2010;" d="M287 -2v1982h1984v-1982h-1984zM485 195h1588v1587h-1588v-1587zM647 500l492 487l-492 492l141 141l492 -492l492 492l141 -141l-492 -492l492 -487l-141 -142l-492 490l-492 -490z" />
<glyph unicode="&#x2011;" d="M287 -2v1982h1984v-1982h-1984zM485 195h1588v1587h-1588v-1587zM647 500l492 487l-492 492l141 141l492 -492l492 492l141 -141l-492 -492l492 -487l-141 -142l-492 490l-492 -490z" />
<glyph unicode="&#x2012;" d="M287 -2v1982h1984v-1982h-1984zM485 195h1588v1587h-1588v-1587zM647 500l492 487l-492 492l141 141l492 -492l492 492l141 -141l-492 -492l492 -487l-141 -142l-492 490l-492 -490z" />
<glyph unicode="&#x2013;" horiz-adv-x="1600" d="M287 -2v1982h1024v-1982h-1024zM389 195h820v1587h-820v-1587zM473 500l254 487l-254 492l73 141l254 -492l253 492l73 -141l-254 -492l254 -487l-73 -142l-253 490l-254 -490z" />
<glyph unicode="&#x2014;" horiz-adv-x="2624" d="M287 -2v1982h2048v-1982h-2048zM491 195h1640v1587h-1640v-1587zM659 500l507 487l-507 492l145 141l508 -492l508 492l145 -141l-507 -492l507 -487l-145 -142l-508 490l-508 -490z" />
<glyph unicode="&#x202f;" horiz-adv-x="396" />
<glyph unicode="&#x205f;" horiz-adv-x="495" />
<glyph unicode="&#xe000;" horiz-adv-x="1976" d="M0 0v1976h1976v-1976h-1976z" />
</font>
</defs>
</svg>
