<?xml version="1.0" standalone="no"?>
<!DOCTYPE svg PUBLIC "-//W3C//DTD SVG 1.1//EN" "http://www.w3.org/Graphics/SVG/1.1/DTD/svg11.dtd" >
<svg xmlns="http://www.w3.org/2000/svg">
<metadata></metadata>
<defs>
<font id="pepactivities" horiz-adv-x="2560" >
<font-face units-per-em="2048" ascent="1583" descent="-465" />
<missing-glyph horiz-adv-x="1024" />
<glyph horiz-adv-x="2048" />
<glyph horiz-adv-x="2048" />
<glyph unicode="&#xd;" horiz-adv-x="2048" />
<glyph unicode=" "  horiz-adv-x="1024" />
<glyph unicode="&#x09;" horiz-adv-x="1024" />
<glyph unicode="&#xa0;" horiz-adv-x="1024" />
<glyph unicode="!" d="M287 -2v1982h1984v-1982h-1984zM485 195h1588v1587h-1588v-1587zM647 500l492 487l-492 492l141 141l492 -492l492 492l141 -141l-492 -492l492 -487l-141 -142l-492 490l-492 -490z" />
<glyph unicode="&#x22;" d="M287 -2v1982h1984v-1982h-1984zM485 195h1588v1587h-1588v-1587zM647 500l492 487l-492 492l141 141l492 -492l492 492l141 -141l-492 -492l492 -487l-141 -142l-492 490l-492 -490z" />
<glyph unicode="#" d="M287 -2v1982h1984v-1982h-1984zM485 195h1588v1587h-1588v-1587zM647 500l492 487l-492 492l141 141l492 -492l492 492l141 -141l-492 -492l492 -487l-141 -142l-492 490l-492 -490z" />
<glyph unicode="$" d="M287 -2v1982h1984v-1982h-1984zM485 195h1588v1587h-1588v-1587zM647 500l492 487l-492 492l141 141l492 -492l492 492l141 -141l-492 -492l492 -487l-141 -142l-492 490l-492 -490z" />
<glyph unicode="%" d="M287 -2v1982h1984v-1982h-1984zM485 195h1588v1587h-1588v-1587zM647 500l492 487l-492 492l141 141l492 -492l492 492l141 -141l-492 -492l492 -487l-141 -142l-492 490l-492 -490z" />
<glyph unicode="&#x26;" d="M287 -2v1982h1984v-1982h-1984zM485 195h1588v1587h-1588v-1587zM647 500l492 487l-492 492l141 141l492 -492l492 492l141 -141l-492 -492l492 -487l-141 -142l-492 490l-492 -490z" />
<glyph unicode="'" d="M287 -2v1982h1984v-1982h-1984zM485 195h1588v1587h-1588v-1587zM647 500l492 487l-492 492l141 141l492 -492l492 492l141 -141l-492 -492l492 -487l-141 -142l-492 490l-492 -490z" />
<glyph unicode="(" d="M287 -2v1982h1984v-1982h-1984zM485 195h1588v1587h-1588v-1587zM647 500l492 487l-492 492l141 141l492 -492l492 492l141 -141l-492 -492l492 -487l-141 -142l-492 490l-492 -490z" />
<glyph unicode=")" d="M287 -2v1982h1984v-1982h-1984zM485 195h1588v1587h-1588v-1587zM647 500l492 487l-492 492l141 141l492 -492l492 492l141 -141l-492 -492l492 -487l-141 -142l-492 490l-492 -490z" />
<glyph unicode="*" d="M287 -2v1982h1984v-1982h-1984zM485 195h1588v1587h-1588v-1587zM647 500l492 487l-492 492l141 141l492 -492l492 492l141 -141l-492 -492l492 -487l-141 -142l-492 490l-492 -490z" />
<glyph unicode="+" d="M287 -2v1982h1984v-1982h-1984zM485 195h1588v1587h-1588v-1587zM647 500l492 487l-492 492l141 141l492 -492l492 492l141 -141l-492 -492l492 -487l-141 -142l-492 490l-492 -490z" />
<glyph unicode="," d="M287 -2v1982h1984v-1982h-1984zM485 195h1588v1587h-1588v-1587zM647 500l492 487l-492 492l141 141l492 -492l492 492l141 -141l-492 -492l492 -487l-141 -142l-492 490l-492 -490z" />
<glyph unicode="-" d="M287 -2v1982h1984v-1982h-1984zM485 195h1588v1587h-1588v-1587zM647 500l492 487l-492 492l141 141l492 -492l492 492l141 -141l-492 -492l492 -487l-141 -142l-492 490l-492 -490z" />
<glyph unicode="." d="M287 -2v1982h1984v-1982h-1984zM485 195h1588v1587h-1588v-1587zM647 500l492 487l-492 492l141 141l492 -492l492 492l141 -141l-492 -492l492 -487l-141 -142l-492 490l-492 -490z" />
<glyph unicode="/" d="M287 -2v1982h1984v-1982h-1984zM485 195h1588v1587h-1588v-1587zM647 500l492 487l-492 492l141 141l492 -492l492 492l141 -141l-492 -492l492 -487l-141 -142l-492 490l-492 -490z" />
<glyph unicode="0" d="M287 -2v1982h1984v-1982h-1984zM485 195h1588v1587h-1588v-1587zM647 500l492 487l-492 492l141 141l492 -492l492 492l141 -141l-492 -492l492 -487l-141 -142l-492 490l-492 -490z" />
<glyph unicode="1" d="M287 -2v1982h1984v-1982h-1984zM485 195h1588v1587h-1588v-1587zM647 500l492 487l-492 492l141 141l492 -492l492 492l141 -141l-492 -492l492 -487l-141 -142l-492 490l-492 -490z" />
<glyph unicode="2" d="M287 -2v1982h1984v-1982h-1984zM485 195h1588v1587h-1588v-1587zM647 500l492 487l-492 492l141 141l492 -492l492 492l141 -141l-492 -492l492 -487l-141 -142l-492 490l-492 -490z" />
<glyph unicode="3" d="M287 -2v1982h1984v-1982h-1984zM485 195h1588v1587h-1588v-1587zM647 500l492 487l-492 492l141 141l492 -492l492 492l141 -141l-492 -492l492 -487l-141 -142l-492 490l-492 -490z" />
<glyph unicode="4" d="M287 -2v1982h1984v-1982h-1984zM485 195h1588v1587h-1588v-1587zM647 500l492 487l-492 492l141 141l492 -492l492 492l141 -141l-492 -492l492 -487l-141 -142l-492 490l-492 -490z" />
<glyph unicode="5" d="M287 -2v1982h1984v-1982h-1984zM485 195h1588v1587h-1588v-1587zM647 500l492 487l-492 492l141 141l492 -492l492 492l141 -141l-492 -492l492 -487l-141 -142l-492 490l-492 -490z" />
<glyph unicode="6" d="M287 -2v1982h1984v-1982h-1984zM485 195h1588v1587h-1588v-1587zM647 500l492 487l-492 492l141 141l492 -492l492 492l141 -141l-492 -492l492 -487l-141 -142l-492 490l-492 -490z" />
<glyph unicode="7" d="M287 -2v1982h1984v-1982h-1984zM485 195h1588v1587h-1588v-1587zM647 500l492 487l-492 492l141 141l492 -492l492 492l141 -141l-492 -492l492 -487l-141 -142l-492 490l-492 -490z" />
<glyph unicode="8" d="M287 -2v1982h1984v-1982h-1984zM485 195h1588v1587h-1588v-1587zM647 500l492 487l-492 492l141 141l492 -492l492 492l141 -141l-492 -492l492 -487l-141 -142l-492 490l-492 -490z" />
<glyph unicode="9" d="M287 -2v1982h1984v-1982h-1984zM485 195h1588v1587h-1588v-1587zM647 500l492 487l-492 492l141 141l492 -492l492 492l141 -141l-492 -492l492 -487l-141 -142l-492 490l-492 -490z" />
<glyph unicode=":" d="M287 -2v1982h1984v-1982h-1984zM485 195h1588v1587h-1588v-1587zM647 500l492 487l-492 492l141 141l492 -492l492 492l141 -141l-492 -492l492 -487l-141 -142l-492 490l-492 -490z" />
<glyph unicode=";" d="M287 -2v1982h1984v-1982h-1984zM485 195h1588v1587h-1588v-1587zM647 500l492 487l-492 492l141 141l492 -492l492 492l141 -141l-492 -492l492 -487l-141 -142l-492 490l-492 -490z" />
<glyph unicode="&#x3c;" d="M287 -2v1982h1984v-1982h-1984zM485 195h1588v1587h-1588v-1587zM647 500l492 487l-492 492l141 141l492 -492l492 492l141 -141l-492 -492l492 -487l-141 -142l-492 490l-492 -490z" />
<glyph unicode="=" d="M287 -2v1982h1984v-1982h-1984zM485 195h1588v1587h-1588v-1587zM647 500l492 487l-492 492l141 141l492 -492l492 492l141 -141l-492 -492l492 -487l-141 -142l-492 490l-492 -490z" />
<glyph unicode="&#x3e;" d="M287 -2v1982h1984v-1982h-1984zM485 195h1588v1587h-1588v-1587zM647 500l492 487l-492 492l141 141l492 -492l492 492l141 -141l-492 -492l492 -487l-141 -142l-492 490l-492 -490z" />
<glyph unicode="?" d="M287 -2v1982h1984v-1982h-1984zM485 195h1588v1587h-1588v-1587zM647 500l492 487l-492 492l141 141l492 -492l492 492l141 -141l-492 -492l492 -487l-141 -142l-492 490l-492 -490z" />
<glyph unicode="@" d="M287 -2v1982h1984v-1982h-1984zM485 195h1588v1587h-1588v-1587zM647 500l492 487l-492 492l141 141l492 -492l492 492l141 -141l-492 -492l492 -487l-141 -142l-492 490l-492 -490z" />
<glyph unicode="A" d="M287 -2v1982h1984v-1982h-1984zM485 195h1588v1587h-1588v-1587zM647 500l492 487l-492 492l141 141l492 -492l492 492l141 -141l-492 -492l492 -487l-141 -142l-492 490l-492 -490z" />
<glyph unicode="B" d="M287 -2v1982h1984v-1982h-1984zM485 195h1588v1587h-1588v-1587zM647 500l492 487l-492 492l141 141l492 -492l492 492l141 -141l-492 -492l492 -487l-141 -142l-492 490l-492 -490z" />
<glyph unicode="C" d="M287 -2v1982h1984v-1982h-1984zM485 195h1588v1587h-1588v-1587zM647 500l492 487l-492 492l141 141l492 -492l492 492l141 -141l-492 -492l492 -487l-141 -142l-492 490l-492 -490z" />
<glyph unicode="D" d="M287 -2v1982h1984v-1982h-1984zM485 195h1588v1587h-1588v-1587zM647 500l492 487l-492 492l141 141l492 -492l492 492l141 -141l-492 -492l492 -487l-141 -142l-492 490l-492 -490z" />
<glyph unicode="E" d="M287 -2v1982h1984v-1982h-1984zM485 195h1588v1587h-1588v-1587zM647 500l492 487l-492 492l141 141l492 -492l492 492l141 -141l-492 -492l492 -487l-141 -142l-492 490l-492 -490z" />
<glyph unicode="F" d="M287 -2v1982h1984v-1982h-1984zM485 195h1588v1587h-1588v-1587zM647 500l492 487l-492 492l141 141l492 -492l492 492l141 -141l-492 -492l492 -487l-141 -142l-492 490l-492 -490z" />
<glyph unicode="G" d="M287 -2v1982h1984v-1982h-1984zM485 195h1588v1587h-1588v-1587zM647 500l492 487l-492 492l141 141l492 -492l492 492l141 -141l-492 -492l492 -487l-141 -142l-492 490l-492 -490z" />
<glyph unicode="H" d="M287 -2v1982h1984v-1982h-1984zM485 195h1588v1587h-1588v-1587zM647 500l492 487l-492 492l141 141l492 -492l492 492l141 -141l-492 -492l492 -487l-141 -142l-492 490l-492 -490z" />
<glyph unicode="I" d="M287 -2v1982h1984v-1982h-1984zM485 195h1588v1587h-1588v-1587zM647 500l492 487l-492 492l141 141l492 -492l492 492l141 -141l-492 -492l492 -487l-141 -142l-492 490l-492 -490z" />
<glyph unicode="J" d="M287 -2v1982h1984v-1982h-1984zM485 195h1588v1587h-1588v-1587zM647 500l492 487l-492 492l141 141l492 -492l492 492l141 -141l-492 -492l492 -487l-141 -142l-492 490l-492 -490z" />
<glyph unicode="K" d="M287 -2v1982h1984v-1982h-1984zM485 195h1588v1587h-1588v-1587zM647 500l492 487l-492 492l141 141l492 -492l492 492l141 -141l-492 -492l492 -487l-141 -142l-492 490l-492 -490z" />
<glyph unicode="L" d="M287 -2v1982h1984v-1982h-1984zM485 195h1588v1587h-1588v-1587zM647 500l492 487l-492 492l141 141l492 -492l492 492l141 -141l-492 -492l492 -487l-141 -142l-492 490l-492 -490z" />
<glyph unicode="M" d="M287 -2v1982h1984v-1982h-1984zM485 195h1588v1587h-1588v-1587zM647 500l492 487l-492 492l141 141l492 -492l492 492l141 -141l-492 -492l492 -487l-141 -142l-492 490l-492 -490z" />
<glyph unicode="N" d="M287 -2v1982h1984v-1982h-1984zM485 195h1588v1587h-1588v-1587zM647 500l492 487l-492 492l141 141l492 -492l492 492l141 -141l-492 -492l492 -487l-141 -142l-492 490l-492 -490z" />
<glyph unicode="O" d="M287 -2v1982h1984v-1982h-1984zM485 195h1588v1587h-1588v-1587zM647 500l492 487l-492 492l141 141l492 -492l492 492l141 -141l-492 -492l492 -487l-141 -142l-492 490l-492 -490z" />
<glyph unicode="P" d="M287 -2v1982h1984v-1982h-1984zM485 195h1588v1587h-1588v-1587zM647 500l492 487l-492 492l141 141l492 -492l492 492l141 -141l-492 -492l492 -487l-141 -142l-492 490l-492 -490z" />
<glyph unicode="Q" d="M287 -2v1982h1984v-1982h-1984zM485 195h1588v1587h-1588v-1587zM647 500l492 487l-492 492l141 141l492 -492l492 492l141 -141l-492 -492l492 -487l-141 -142l-492 490l-492 -490z" />
<glyph unicode="R" d="M287 -2v1982h1984v-1982h-1984zM485 195h1588v1587h-1588v-1587zM647 500l492 487l-492 492l141 141l492 -492l492 492l141 -141l-492 -492l492 -487l-141 -142l-492 490l-492 -490z" />
<glyph unicode="S" d="M287 -2v1982h1984v-1982h-1984zM485 195h1588v1587h-1588v-1587zM647 500l492 487l-492 492l141 141l492 -492l492 492l141 -141l-492 -492l492 -487l-141 -142l-492 490l-492 -490z" />
<glyph unicode="T" d="M287 -2v1982h1984v-1982h-1984zM485 195h1588v1587h-1588v-1587zM647 500l492 487l-492 492l141 141l492 -492l492 492l141 -141l-492 -492l492 -487l-141 -142l-492 490l-492 -490z" />
<glyph unicode="U" d="M287 -2v1982h1984v-1982h-1984zM485 195h1588v1587h-1588v-1587zM647 500l492 487l-492 492l141 141l492 -492l492 492l141 -141l-492 -492l492 -487l-141 -142l-492 490l-492 -490z" />
<glyph unicode="V" d="M287 -2v1982h1984v-1982h-1984zM485 195h1588v1587h-1588v-1587zM647 500l492 487l-492 492l141 141l492 -492l492 492l141 -141l-492 -492l492 -487l-141 -142l-492 490l-492 -490z" />
<glyph unicode="W" d="M287 -2v1982h1984v-1982h-1984zM485 195h1588v1587h-1588v-1587zM647 500l492 487l-492 492l141 141l492 -492l492 492l141 -141l-492 -492l492 -487l-141 -142l-492 490l-492 -490z" />
<glyph unicode="X" d="M287 -2v1982h1984v-1982h-1984zM485 195h1588v1587h-1588v-1587zM647 500l492 487l-492 492l141 141l492 -492l492 492l141 -141l-492 -492l492 -487l-141 -142l-492 490l-492 -490z" />
<glyph unicode="Y" d="M287 -2v1982h1984v-1982h-1984zM485 195h1588v1587h-1588v-1587zM647 500l492 487l-492 492l141 141l492 -492l492 492l141 -141l-492 -492l492 -487l-141 -142l-492 490l-492 -490z" />
<glyph unicode="Z" d="M287 -2v1982h1984v-1982h-1984zM485 195h1588v1587h-1588v-1587zM647 500l492 487l-492 492l141 141l492 -492l492 492l141 -141l-492 -492l492 -487l-141 -142l-492 490l-492 -490z" />
<glyph unicode="[" d="M287 -2v1982h1984v-1982h-1984zM485 195h1588v1587h-1588v-1587zM647 500l492 487l-492 492l141 141l492 -492l492 492l141 -141l-492 -492l492 -487l-141 -142l-492 490l-492 -490z" />
<glyph unicode="\" d="M287 -2v1982h1984v-1982h-1984zM485 195h1588v1587h-1588v-1587zM647 500l492 487l-492 492l141 141l492 -492l492 492l141 -141l-492 -492l492 -487l-141 -142l-492 490l-492 -490z" />
<glyph unicode="a" d="M367 987q0 149 46 289t130 252.5t196.5 197.5t252 131t288.5 46q186 0 354.5 -72.5t290.5 -195t194 -292.5t72 -356q0 -184 -72 -352.5t-194 -291t-290.5 -195t-354.5 -72.5t-355.5 72.5t-291.5 195t-194 291t-72 352.5zM744 1226q-6 -25 -6 -49q0 -57 34 -104 q59 -73 149 -73q22 0 46 4q-31 -70 -31 -144q0 -141 101.5 -242.5t242.5 -101.5q142 0 242 101t100 243q0 74 -31 144q25 -4 48 -4q94 0 147 73q35 48 35 105q1 24 -5 48q-20 86 -96 146q-72 53 -149 53q-9 0 -19 -1q-88 -7 -139 -74q-35 -49 -35 -106q0 -27 8 -56 q-63 18 -106 18q-39 0 -109 -18q9 30 9 58q0 54 -33 104q-51 67 -139 74q-9 1 -19 1q-78 0 -149 -53q-76 -60 -96 -146z" />
<glyph unicode="b" d="M408 1190q11 34 65 41l385 57q54 6 110 46t81 91l172 349q23 51 57.5 51t60.5 -51l170 -349q26 -51 82.5 -91t110.5 -46l381 -57q57 -7 69 -41q3 -7 2 -15q0 -27 -32 -57l-277 -270q-41 -38 -63 -106q-14 -45 -13 -84q0 -20 3 -40l65 -380q2 -13 2 -24q-1 -36 -21 -51 q-12 -9 -28 -9q-21 0 -49 14l-344 180q-47 29 -117 29t-119 -29l-342 -180q-28 -14 -50 -14q-17 0 -30 9q-21 15 -21 48q0 12 3 27l67 380q4 19 4 40q0 40 -14 84q-22 68 -63 106l-277 270q-32 30 -32 57q0 8 2 15z" />
<glyph unicode="c" d="M291 893q17 159 124 257q95 88 213 88q14 0 29 -1q90 -13 157.5 -75t98.5 -156q58 105 154 176q-104 20 -176.5 89.5t-89.5 166.5q-4 25 -4 48q0 106 72 196q88 110 231 135q38 8 74 8q56 0 110 -18q88 -29 147 -95t72 -153q4 -24 4 -47q0 -115 -94 -218 q144 -5 265 -79.5t193 -201t75 -276.5q34 9 63 9q8 0 16 -1q0 4 4.5 19t16 39.5t30.5 42.5q18 17 48 25q9 3 21 3q23 0 50 -12q45 -20 66 -70q11 -26 11 -57q0 -28 -9 -61q-13 -40 -52 -74t-87 -35q-15 -48 -42.5 -84t-67 -60.5t-73 -39.5t-84 -34t-77.5 -32 q-159 -159 -383 -159q-196 0 -351.5 131t-187.5 325q-52 -76 -128 -114q-58 -28 -122 -28q-20 0 -41 3q-86 11 -154 71q-67 60 -101 153q-24 67 -25 139q0 28 4 57z" />
<glyph unicode="d" d="M555 975q0 72 147 127t381 76l-49 -52l-2 -2q-100 -19 -155.5 -48t-55.5 -64q0 -69 205 -111q115 -19 246 -22q4 0 9 -2.5t9 -2.5q3 0 21 7q126 0 223 20q205 42 205 111q0 65 -189 106q-4 15 -12 21l-41 37q224 -21 366 -75.5t142 -125.5q0 -49 -70 -90.5t-196 -71.5 q-4 -2 -15 -2l25 -121q-23 0 -29 -2q-186 -74 -441.5 -74t-438.5 74q-6 2 -21 2l19 119l-17 4q-126 30 -196 71.5t-70 90.5zM748 205v12l55 381q208 -84 477 -84q273 0 475 84q5 0 8 6l74 -385v-4q0 -1 -6 -5t-6 -5q0 -31 -44.5 -67.5t-116.5 -67.5t-175 -51.5t-209 -20.5 t-207 21t-170.5 52t-112 67t-42.5 67zM802 1510q2 6 17 8l80 6q27 0 41 24l41 70q12 21 25 -2l28 -76q9 -24 39 -31l76 -16q12 -5 14 -12t-8 -13l-61 -51q-19 -16 -19 -45l8 -80q1 -12 -4 -15t-16 3l-68 43q-20 12 -49 2l-74 -31q-11 -5 -16.5 0t-1.5 17l18 75q9 28 -10 50 l-53 59q-7 7 -7 12q-1 2 0 3zM1126 1104l39 37q30 32 30 72q0 13 -3 26l-10 53l49 -24q26 -11 49 -11q27 0 53 13l47 24l-8 -51q-3 -11 -3 -21q0 -39 36 -75l41 -37l-53 -10q-57 -10 -82 -62l-21 -47l-26 47q-24 50 -84 60zM1159 1720q-14 12 -14 20q0 10 20 15l109 39 q17 6 31.5 22t19.5 31l31 117q6 14 16 15h2q9 0 19 -11l71 -92q11 -13 30.5 -22.5t35.5 -8.5l119 6q25 0 25 -14q0 -8 -7 -20l-68 -97q-11 -11 -13 -34.5t3 -36.5l41 -111q7 -13 -0.5 -23.5t-21.5 -5.5l-115 37q-17 5 -39 1t-33 -17l-92 -74q-9 -7 -16 -7q-3 0 -6 2 q-9 5 -9 22l-4 118q-1 17 -11.5 36t-22.5 30z" />
<glyph unicode="e" d="M326 1344q0 21 30 40l211 129q31 21 55 59.5t25 74.5l17 247q2 34 22 44q6 3 12 3q15 0 33 -16l189 -164q26 -26 69 -37q22 -6 41.5 -6t36.5 6l242 62q36 11 50 -5.5t-3 -51.5l-94 -230q-12 -29 -12 -64q0 -7 1 -15q3 -44 21 -74l133 -211q21 -29 9 -49.5t-48 -16.5 l-246 21q-8 1 -17 1q-27 1 -59 -13q-42 -18 -63 -46l-160 -192q-23 -29 -44 -24t-29 42l-58 242q-6 36 -34.5 69.5t-61.5 47.5l-232 92q-36 12 -36 35zM868 535l179 51q28 6 50 28t33 52l60 176q7 17 17 23.5t20.5 2.5t19.5 -18l103 -156q13 -24 42.5 -40.5t59.5 -16.5 l184 -2q27 0 34 -15.5t-11 -35.5l-113 -150q-18 -20 -24 -53t2 -59l53 -179q10 -26 -3 -38t-38 -1l-174 64q-27 10 -59.5 5t-53.5 -19l-151 -109q-15 -9 -27 -9q-6 0 -10 2q-14 7 -14 36l8 186q1 28 -13 57.5t-36 49.5l-148 112q-19 12 -19 27q0 21 29 29zM1587 874 q-4 5 -4 11q0 8 6 20l80 123q17 28 17 56q0 18 -7 36l-59 137q-9 23 -1.5 32t32.5 3l143 -39q20 -4 45 2t43 19l109 98q15 11 25 11q16 0 20 -29l6 -148q13 -59 47 -78l125 -75q14 -9 18 -18q2 -4 2 -8q0 -5 -4 -9q-6 -8 -18 -12l-139 -54q-20 -7 -36.5 -27.5t-21.5 -41.5 l-35 -146q-7 -25 -20 -25q-10 0 -23 15l-94 115q-11 18 -36 28.5t-46 8.5l-145 -15q-21 -2 -29 10z" />
<glyph unicode="f" d="M639 86l27 303v899q0 20 14.5 33.5t34.5 13.5h237q-2 57 -2 262q0 143 95.5 242.5t234.5 99.5q138 0 234 -99.5t96 -242.5q0 -205 -2 -262h237q20 0 34.5 -13.5t14.5 -33.5v-899l25 -303q0 -21 -13.5 -36t-33.5 -15h-1184q-20 0 -34.5 15.5t-14.5 35.5zM1077 1597 q0 -12 1 -124t1 -138h400q0 26 2 138t2 124q0 91 -59 154.5t-144 63.5t-144 -63.5t-59 -154.5z" />
<glyph unicode="g" d="M287 688q0 262 331 361q25 6 31 -15q9 -21 -12 -30q-121 -51 -183.5 -114t-62.5 -132q0 -66 65.5 -134.5t178.5 -124t280.5 -91t354.5 -35.5h20q186 0 353.5 35.5t280.5 91t179 124t66 134.5q0 69 -63.5 132t-182.5 114q-23 9 -14 30t30 15q332 -99 332 -361 q0 -126 -129.5 -232t-355.5 -167.5t-496 -61.5h-20q-270 0 -496.5 61.5t-356.5 167.5t-130 232zM582 799q0 168 241 235q14 5 26.5 -2t18.5 -24q13 -36 -24 -45q-154 -63 -154 -123q0 -63 159 -109.5t421 -50.5h20q261 4 419.5 51t158.5 109q0 60 -154 123q-35 9 -22 45 q6 17 18.5 24t24.5 2q243 -68 243 -235q0 -81 -89.5 -148.5t-248 -107t-350.5 -39.5h-20q-192 0 -350.5 39.5t-248 107t-89.5 148.5zM913 860q-4 14 -4 27q0 20 10 38q17 30 54 40q2 0 20.5 6.5t50 22.5t63 37t61.5 55.5t44 72.5q62 145 127 226t168 114q-15 33 -46 33 q-7 0 -15 -2q-62 -14 -109.5 -42t-83 -72t-60.5 -92t-52 -118q-5 -16 -35 -65q-21 31 -23 45q-29 71 -29 143q0 74 31 148q78 173 308 245q89 29 195 29q49 0 102 -6q166 -20 340 -98q16 -10 16 -25q-6 -20 -18 -23q-64 -24 -108 -48t-69 -45t-40 -49t-20 -49.5t-9 -57.5 q-6 -40 -9 -56.5t-13.5 -52.5t-29.5 -67.5t-47 -63.5q-92 -115 -231 -127q-21 -3 -41 -3q-49 0 -98 15q-30 -39 -70.5 -73t-77.5 -55.5t-71 -37t-53.5 -22t-22.5 -6.5q-4 -2 -23 -2q-30 0 -52.5 16t-29.5 45z" />
<glyph unicode="h" d="M707 1370q0 154 76.5 285t208.5 207.5t288 76.5q155 0 287 -76.5t209 -207.5t77 -285q0 -117 -45.5 -223.5t-122.5 -183t-183 -121.5t-222 -45q-117 0 -223 45t-182.5 121.5t-122 183t-45.5 223.5zM809 1370q0 -196 138 -333.5t333 -137.5q127 0 235.5 62.5t172 170.5 t63.5 238q0 194 -138.5 330.5t-332.5 136.5q-128 0 -236.5 -62t-171.5 -169.5t-63 -235.5zM1016 596v160l2 2q121 -53 262 -53q145 0 260 53q4 0 4 -2v-160q0 -6 -4 -10q-145 -215 -145 -531q0 -15 -17 -18q-10 -2 -98 -2q-90 0 -100 2q-15 3 -15 18q0 110 -17 207 t-43.5 162t-47 101t-39.5 61q-2 2 -2 10zM1080 1130q6 27 30 38q25 17 51.5 11t40.5 -30q14 -23 7 -49t-29 -43q-23 -14 -49.5 -8.5t-43.5 28.5q-9 18 -9 36q0 8 2 17zM1276 1084q6 27 29 40q25 14 52 8t40 -28q17 -25 10.5 -52.5t-31.5 -39.5q-18 -13 -38 -13q-8 0 -14 2 q-26 6 -40 31q-10 18 -10 36q0 8 2 16zM1293 1278q6 28 30 41q23 14 51 8t41 -29q13 -24 7 -51.5t-29 -40.5q-23 -17 -51 -10.5t-42 31.5q-9 16 -9 34q0 8 2 17zM1492 1224q6 29 32 40q24 17 49 10.5t43 -31.5q13 -23 6 -51t-31 -41q-17 -10 -35 -10q-7 -1 -14 1 q-26 6 -43 29q-9 16 -9 34q0 9 2 19zM1506 1427q7 27 30 39q17 12 35 12q7 0 14 -2q25 -6 43 -30q9 -16 9 -34q1 -7 -1 -15q-6 -26 -30 -43q-18 -10 -37 -10q-7 0 -15 2q-28 6 -41 28q-9 17 -9 35q0 9 2 18z" />
<glyph unicode="i" d="M442 178q0 67 41.5 115.5t108.5 62.5l78 25l-78 22q-66 14 -108 64t-42 117q0 73 54.5 127.5t128.5 54.5q33 0 73 -18l582 -181l582 181q40 18 73 18q74 0 128.5 -54.5t54.5 -127.5q0 -67 -42.5 -117t-109.5 -64l-78 -22l78 -25q67 -14 109.5 -62.5t42.5 -115.5 q0 -73 -54.5 -126.5t-128.5 -53.5q-41 0 -73 14l-582 181l-582 -181q-32 -14 -73 -14q-74 0 -128.5 53.5t-54.5 126.5zM786 1212q0 141 74 298.5t197 284.5t258 183q2 2 8 2t8 -2q8 -3 8 -12q1 -74 17 -140.5t47.5 -123.5t63 -100t77.5 -93q51 86 84 199q92 -84 135 -277 q22 -99 22 -189q0 -86 -20 -165q-41 -232 -292 -319q16 63 16 141q0 71 -22.5 159.5t-69 168.5t-103.5 106h-6q-82 -37 -137 -177.5t-55 -256.5q0 -76 18 -147q-328 88 -328 460z" />
<glyph unicode="j" d="M328 1006v407q0 122 86.5 209.5t210.5 87.5h936q124 0 210.5 -87.5t86.5 -209.5v-407q0 -122 -86.5 -209.5t-210.5 -87.5h-936q-124 0 -210.5 87.5t-86.5 209.5zM561 1038q0 -58 39 -97.5t98 -39.5h201l113 113q36 33 82 33q49 0 82 -33l112 -113h201q57 0 97 40t40 97 v344q0 56 -40 97t-97 41h-791q-59 0 -98 -40.5t-39 -97.5v-344zM862 408q0 96 67.5 162.5t164.5 66.5h16q60 0 111 -28t82 -77h333q146 0 250.5 103.5t104.5 253.5v876q0 37 37 37h167q37 0 37 -37v-876q0 -122 -47.5 -233.5t-127.5 -191.5t-190 -127.5t-231 -47.5h-327 q-32 -53 -83.5 -83t-115.5 -30h-16q-97 0 -164.5 67t-67.5 165zM1075 1012q4 1 8.5 2t7 1.5t3.5 0.5q2 0 22 -4q-30 4 -41 0z" />
<glyph unicode="k" d="M288 541q-2 9 -2 18q0 22 13 43q21 27 52 35t61 -10q71 -45 152 -61q60 -12 109 -12q17 0 33 2q60 6 120 23.5t83 29t35 18.5q15 9 23.5 14t54.5 25.5t86 31.5q38 10 104 20q43 6 84 7q21 0 42 -2q60 -5 135.5 -28.5t144.5 -67.5q51 -33 108 -51t107 -20q13 -1 27 -1 q36 1 72 5q48 6 86.5 17t68 22.5t46.5 19.5l17 8q30 18 61 9.5t50 -38.5q11 -17 11 -38q0 -10 -2 -21q-8 -33 -38 -50q-7 -5 -23.5 -13.5t-53 -24t-77 -28.5t-98.5 -22.5t-114 -9.5q-184 0 -336 98q-66 42 -140 58q-60 13 -108 13h-20q-54 -4 -110 -20t-79 -27t-42 -22 q-2 -2 -3 -2q-7 -7 -45.5 -26t-112 -40t-156.5 -29q-23 -2 -47 -3q-65 1 -141 17q-106 22 -200 81q-30 21 -38 52zM516 1155q10 56 57 86l471 324q33 21 68 21q18 0 37 -5q62 -13 88 -61l262 -453q4 -6 8 -15.5t6 -13.5l226 -381q-32 8 -78 37q-74 47 -153 74 q-80 26 -146 32q-33 3 -66.5 3.5t-67.5 -3.5q-68 -6 -118 -19t-98 -32t-69.5 -30.5t-39.5 -22.5q-2 0 -35 -14.5t-70 -26.5t-97 -19q-20 -2 -39 -2q-39 0 -76 9l600 430l-109 187l-352 -242q-35 -23 -75 -23q-13 1 -27 3q-55 10 -86 57q-23 33 -23 73q0 13 2 27zM1628 1087 q0 107 77 185t183 78q110 0 187 -77.5t77 -185.5q0 -109 -77 -186.5t-187 -77.5q-114 0 -187 76t-73 188z" />
<glyph unicode="l" d="M289 848q-3 28 -3 55q0 43 8 83q13 64 40.5 104.5t60 66t66.5 33.5q8 -53 26 -94.5t40 -69.5t57 -48t67 -30.5t81.5 -16.5t88.5 -7.5t99 -1.5h55l-64 141h-41q-26 0 -42.5 16t-16.5 41q0 21 13.5 38.5t33.5 21.5q-8 19 -1.5 36.5t26.5 24.5q19 10 38 3.5t25 -25.5l19 -37 l450 -2h2q13 2 26 2q44 0 84 -21q52 -27 81 -82l63 -112h-371l-57 96h-225l67 -143q19 0 57 -2.5t58 -2.5h-18h98h96h-16q127 7 280 7q60 0 100 1.5t89 7.5t80.5 16.5t66 30.5t56.5 48t40 69t27 95q77 -20 130 -108q44 -73 44 -186q0 -23 -2 -48q-10 -117 -108 -201 q-92 48 -195 64q-62 10 -116 10q-36 -1 -68 -5q-80 -10 -151 -31t-107.5 -38.5t-42.5 -23.5q-1 0 -6 -5l-21 -10q-21 -11 -59.5 -23t-84.5 -18q-15 -2 -32 -2q-32 0 -72 8q-58 12 -112 45q-158 101 -346 101q-163 0 -347 -76q-100 74 -114 205zM373 514q7 30 35 43 q6 6 41.5 23.5t104.5 37.5q69 22 146 30q22 2 45 2q59 0 129 -16q98 -22 183 -77q65 -41 136 -55q49 -10 90 -11q17 1 35 3q54 6 102.5 21t71.5 27t26 15q16 9 43 22.5t102 37t149 31.5q20 2 41 2q59 0 133 -16q100 -20 185 -77q25 -18 32 -46q2 -8 2 -17q0 -20 -12 -41 q-19 -26 -46.5 -32.5t-57.5 9.5q-64 41 -138 56q-53 11 -98 11q-19 0 -35 -2q-58 -6 -110 -20.5t-79.5 -27.5t-31.5 -17q-7 -7 -43.5 -26t-115 -41.5t-158.5 -22.5q-161 0 -305 90q-102 66 -226 66q-80 0 -169 -27q-39 -12 -97 -39q-30 -17 -57 -9.5t-45 34.5q-10 20 -10 40 q0 9 2 19zM1155 1438q0 82 58.5 141t140.5 59t141 -59t59 -141q0 -84 -59 -142.5t-141 -58.5t-140.5 58.5t-58.5 142.5zM1200 915h160h-80h-80z" />
<glyph unicode="m" d="M389 596q0 51 35 87t86 36h311l422 686q3 3 9 9.5t11 11t9 8.5l-135 92l-183 -279q-20 -35 -58 -43q-9 -2 -18 -1q-28 0 -55 18q-31 19 -39 59q-2 10 -2 21q0 28 15 51l235 356q14 31 58 41q9 1 18 1q29 0 53 -15l467 -312q30 -18 39 -51l62 -213h348q41 0 67.5 -26.5 t26.5 -67.5q0 -39 -26.5 -66.5t-67.5 -27.5h-420q-31 0 -57 18.5t-33 48.5l-39 127l-166 -274l225 -236q31 -31 35 -71q1 -6 0 -13q0 -34 -20 -65l-263 -412q-38 -59 -102 -59q-40 0 -66 20q-43 31 -54 79q-3 13 -3 26q0 34 21 65l208 330l-204 215l-146 -238 q-41 -59 -104 -59h-379q-51 0 -86 36t-35 87zM1468 1749q6 86 72 141q59 50 133 50q8 0 17 -1q83 -5 140 -69q52 -59 53 -135q0 -7 -1 -13q-6 -86 -70 -142q-59 -52 -139 -52h-12q-85 4 -141 70q-52 60 -52 137v14z" />
<glyph unicode="n" d="M287 987q0 38 26.5 64t63.5 26h33v279q0 37 26.5 63.5t63.5 26.5t62.5 -26.5t25.5 -63.5v-733q0 -37 -26 -64t-62 -27q-37 0 -63.5 27t-26.5 64v278h-33q-37 0 -63.5 25.5t-26.5 60.5zM647 492v995q0 64 45.5 109.5t110.5 45.5q67 0 112.5 -45.5t45.5 -109.5v-995 q0 -67 -45 -111.5t-113 -44.5q-66 0 -111 44.5t-45 111.5zM1018 895v182q0 37 37 37h438q35 0 35 -37v-182q0 -33 -35 -33h-438q-37 0 -37 33zM1599 492v995q0 64 45.5 109.5t110.5 45.5q67 0 112.5 -45.5t45.5 -109.5v-995q0 -67 -45 -111.5t-113 -44.5q-66 0 -111 44.5 t-45 111.5zM1970 623v733q0 37 26 63.5t64 26.5q37 0 63.5 -26.5t26.5 -63.5v-279h33q37 0 62.5 -26t25.5 -64q0 -35 -25.5 -60.5t-62.5 -25.5h-33v-278q0 -37 -26.5 -64t-63.5 -27q-38 0 -64 27t-26 64z" />
<glyph unicode="o" d="M286 866q-1 21 -1 42q0 90 26 182q54 216 199 350q129 118 267 118q18 0 36 -2v3h932v-3q18 2 36 2q140 0 268 -118q144 -134 198 -350q24 -90 24 -178q0 -22 -2 -46q-8 -110 -41.5 -201t-97.5 -154.5t-145 -82.5q-40 -10 -79 -10q-108 0 -214 75q-144 102 -219 293h-386 q-77 -192 -220 -293q-105 -74 -214 -74q-39 0 -78 9q-81 20 -146 83t-100 154t-43 201zM485 1057q0 -29 19.5 -47.5t48.5 -18.5h152v-151q0 -30 18 -49t47 -19t48.5 19.5t19.5 48.5v151h149q29 0 47.5 18.5t18.5 47.5t-18.5 48t-47.5 19h-149v150q0 29 -19.5 48t-48.5 19 t-47 -19t-18 -48v-150h-152q-29 0 -48.5 -19t-19.5 -48zM1503 1059q0 -37 28 -65.5t66 -28.5t66.5 28.5t28.5 65.5q0 38 -28 65t-67 27q-38 0 -66 -27t-28 -65zM1692 870q0 -39 26.5 -65.5t67.5 -26.5q38 0 65 27t27 65q0 41 -26.5 68t-65.5 27q-41 0 -67.5 -27t-26.5 -68z M1692 1247q0 -39 27 -67.5t67 -28.5q38 0 65 28.5t27 67.5q0 37 -27 65.5t-65 28.5q-40 0 -67 -28t-27 -66zM1878 1059q0 -37 29 -65.5t67 -28.5q37 0 65.5 28.5t28.5 65.5q0 38 -28.5 65t-65.5 27q-39 0 -67.5 -27t-28.5 -65z" />
<glyph unicode="p" d="M373 1456q0 185 131 316t315 131q185 0 315 -131t130 -316q0 -186 -129.5 -315t-315.5 -129q-185 0 -315.5 129.5t-130.5 314.5zM637 1456q0 -74 54.5 -128t127.5 -54q75 0 128.5 54t53.5 128t-53.5 128t-128.5 54q-73 0 -127.5 -54t-54.5 -128zM700 748q0 3 2.5 9.5 t2.5 10.5q6 35 33 55.5t63 20.5h78h147q160 27 270 137q112 115 136 270v146v51q0 69 67 92q15 6 29 6q41 0 70.5 -28.5t29.5 -69.5v-27q4 -36 4 -47l88 -606l418 -420q45 -45 45 -112q0 -68 -45 -113q-47 -47 -113 -47q-65 0 -112 47l-420 422l-619 78q-58 0 -98 30 q-33 11 -54.5 35.5t-21.5 59.5z" />
<glyph unicode="q" d="M463 995q-12 74 -12 145q0 109 28 214q47 180 160 318.5t274 219.5q-49 -71 -65 -172q-11 -53 -11 -108q0 -80 23 -166q40 -143 107 -227l-2 -2l186 -271q14 -11 4 -31q-8 -14 -27 -14h-544h-2h-7h-2q-6 2 -20 2q-75 21 -90 92zM686 961h387l-158 221q-124 -97 -229 -221 zM934 1704q30 178 174 246q6 6 8 6h2q73 -5 134 -29.5t103 -61t75 -86t52.5 -99.5t32.5 -107.5t18.5 -104t6.5 -94.5q-23 2 -65 2q-228 0 -433 -112q-55 60 -93 188q-24 79 -24 157q0 48 9 95zM1012 731q0 26 17.5 43t43.5 17h412q5 0 8 -3l250 162q20 12 46 7t38 -25 q14 -20 8.5 -46t-25.5 -38l-241 -152l51 -133q0 -1 1 -5t1 -7h211q29 0 49.5 -20.5t20.5 -49.5v-307q0 -29 -20.5 -49.5t-49.5 -20.5t-50.5 20.5t-21.5 49.5v236h-73q0 -4 1 -7t1 -6v-331q0 -27 -21.5 -47.5t-50.5 -20.5t-49.5 20.5t-20.5 47.5v290l-104 64q-35 21 -49 59 l-9 13l-65 178h-248q-26 0 -43.5 18t-17.5 43zM1290 946q-1 8 -1 16q0 41 26 72q31 38 82 43q8 1 15 1q39 0 70 -27q38 -32 44 -80q1 -7 1 -14q0 -42 -27 -75q-32 -38 -83 -42q-7 -1 -15 -1q-38 0 -70 27q-37 32 -42 80zM1346 1980q46 -2 127 -14q217 -46 389 -192 q168 -143 239 -349q9 -22 9 -42q0 -37 -29 -70q-3 -10 -10 -13l-394 -288q-9 -6 -18 -6q-10 0 -12 2q-17 10 -17 28v328q-2 56 -8 110t-25 132t-48 142.5t-81.5 128.5t-121.5 103zM1690 1094l249 184q-2 2 -10 2q-4 3 -17.5 6.5t-19.5 5.5q-89 36 -202 62v-260z" />
<glyph unicode="r" d="M287 102q0 35 25.5 59.5t60.5 24.5h180l1012 1454l639 -2l-1094 -1572q-24 -52 -82 -52h-655q-35 0 -60.5 25.5t-25.5 62.5zM1475 102l8 287l180 258l-6 -239h442v241h-436l96 139h340v207h-196l94 140h102v145l172 250v-1413q0 -36 -25 -61t-61 -25q-35 0 -60.5 25.5 t-25.5 60.5v151h-446l-4 -172q-2 -36 -27 -60t-61 -24h-2q-35 2 -59.5 27.5t-24.5 62.5zM1518 1763l2 119q4 36 30 60q24 24 57 24h3q36 -1 60 -27t24 -63l-2 -113h-174zM2099 1763v115q0 37 25.5 62.5t60.5 25.5q37 0 61.5 -25.5t24.5 -62.5v-115h-172z" />
<glyph unicode="s" d="M287 772v254q0 87 61 147t146 60h108q10 0 12 -2q2 2 13 2h264v-21q0 -117 106 -178q4 -1 7.5 -4.5t7.5 -3.5l149 -65l-84 -138q-19 -28 -19 -58q0 -15 5 -30q6 -28 22 -47h-196l-68 -96l185 -418q9 -19 9 -37q1 -14 -5 -29q-12 -33 -45 -47q-19 -8 -35 -8 q-25 0 -46.5 14t-31.5 37l-205 461q-11 25 -8 49l-27 -47v-426q0 -37 -25.5 -62.5t-62.5 -25.5q-35 0 -59.5 25.5t-24.5 62.5v453q0 24 15 45l86 129q-4 4 -4 18v301h-43q-25 0 -43.5 -17.5t-18.5 -43.5v-254q0 -30 -21 -51t-51 -21q-31 0 -52 20.5t-21 51.5zM940 1212v275 q0 57 38 95t95 38q51 0 87.5 -35t41.5 -86l184 -37q31 -6 48.5 -31.5t11.5 -54.5q-4 -26 -24.5 -41.5t-47.5 -15.5q-12 0 -14 2l-154 31v-185l160 -84q29 -10 41 -47q9 -31 -6 -59l-160 -256q-20 -33 -61 -33q-19 0 -39 10q-24 19 -30.5 47t7.5 54l113 184l-199 86v4 q-45 19 -68.5 56.5t-23.5 82.5zM940 1212q0 -45 23.5 -82.5t68.5 -56.5v-4l199 -86l-113 -184q-14 -26 -7.5 -54t30.5 -47q20 -10 39 -10q41 0 61 33l160 256q15 28 6 59q-12 37 -41 47l-160 84v66h-266v-21zM940 1792q0 55 38.5 94t94.5 39q54 0 93.5 -39.5t39.5 -93.5 q0 -56 -39 -95.5t-94 -39.5q-57 0 -95 39t-38 96zM1253 1196v37h215l158 170l256 289q7 14 23 14q5 0 12 -2q21 -6 27 -27l20 -92l277 -244q24 -21 29 -55q1 -9 1 -17q0 -24 -10 -46q-19 -31 -50 -43q-17 -7 -34 -7q-14 0 -29 5l-276 79l-213 -485v-631q0 -37 -25.5 -62.5 t-62.5 -25.5q-35 0 -59.5 25.5t-24.5 62.5v547h-209l4 8l160 256q17 32 17 64q0 18 -5 37q-15 52 -68 73z" />
<glyph unicode="t" d="M301 1147q-15 64 -15 126q0 138 76 261q69 116 185.5 181t253.5 65q141 0 266 -76q161 -96 217 -270q61 144 188.5 231.5t286.5 87.5q140 0 258 -69t186 -187t68 -256q0 -192 -126 -336.5t-312 -169.5v-8q-8 -145 -83.5 -266.5t-200 -192.5t-269.5 -71q-139 0 -263 71.5 t-200 184t-90 235.5v23q0 7 -1 24.5t-1 24.5q-98 14 -190 69q-178 106 -234 318zM403 1221q5 -13 9 -50q41 -156 182 -245q69 -43 143 -52l8 35q3 15 13.5 41t13.5 37q-108 30 -208.5 92.5t-160.5 141.5zM494 1524q-2 -42 36.5 -93t102 -95.5t156 -75.5t188.5 -33 q91 62 219 84q-11 92 -59 169.5t-129 127.5q-95 59 -207 59q-89 0 -169 -38t-138 -105zM1022 700q0 -106 75 -182t183 -76q104 0 180 76t76 182q0 110 -76 183q-73 73 -180 73q-109 0 -183.5 -74.5t-74.5 -181.5zM1161 635q0 31 21 55l18 21l-14 16q-15 24 -15 51 q0 44 31 72q34 24 78 24q42 0 76 -24q30 -27 30 -72q0 -27 -12 -51l-14 -16q5 -2 16 -21q21 -24 21 -55q0 -53 -35 -80q-37 -29 -82 -29q-47 0 -84 29q-35 27 -35 80zM1243 639q0 -13 10 -23q11 -12 26 -12t26 12q10 10 10 23q0 17 -10 27t-25 10q-17 0 -27 -10t-10 -27z M1251 772q0 -11 9 -20q8 -6 19 -6t19 6q11 11 11 20q0 15 -9 21q-11 8 -20 8q-12 0 -20 -8q-9 -6 -9 -21zM1366 1309q178 -29 305 -156t156 -305q142 25 237 136t95 257q0 162 -118.5 279.5t-281.5 117.5q-146 0 -254.5 -94t-138.5 -235zM1720 1505q0 13 13 29q17 17 37 17 q8 0 16 -3q108 -13 185.5 -91.5t96.5 -188.5v-9q0 -22 -12 -40q-17 -17 -31 -17h-4q-17 0 -29.5 15t-17.5 36q-13 78 -70 134.5t-132 68.5q-49 6 -52 49z" />
<glyph unicode="u" d="M287 1499q0 67 47 113.5t115 46.5q66 0 111.5 -46.5t45.5 -113.5q0 -49 -28.5 -88t-73.5 -59v-379q0 -48 9.5 -79t26.5 -42.5t28 -14.5t26 -3q14 0 24.5 3t27 14.5t25.5 42.5t9 79v4q-16 6 -16 24v181q0 16 14 24q18 4 29 -8l176 -176q10 -7 10 -21q0 -24 -25 -24h-65v-4 q0 -123 -56 -192.5t-153 -69.5q-100 0 -156.5 69.5t-56.5 192.5v381q-42 21 -68 60t-26 85zM373 1499q0 -31 22.5 -52.5t53.5 -21.5q27 0 49 22t22 52t-22 51t-49 21q-31 0 -53.5 -21t-22.5 -51zM903 827q12 21 33 21h348l-287 215q-12 12 -12 27q-3 16 12 28q32 32 68 58 q207 154 504 237.5t641 83.5h14h10q37 -3 37 -39v-1102q0 -37 -37 -37h-10h-14q-342 0 -639.5 84.5t-505.5 239.5q-79 60 -156 143q-9 13 -9 26q0 7 3 15zM1386 1096q0 -48 34 -81.5t79 -33.5q50 0 83.5 33t33.5 82q0 45 -34 78.5t-83 33.5q-44 0 -78.5 -34t-34.5 -78z" />
<glyph unicode="v" d="M369 997q0 213 94 403.5t263 322t380 171.5h4l10 -6q54 -16 72 -30q54 -27 96 -58q48 -44 92 -92v-8q0 -6 -6 -6q-88 -49 -166 -109q-179 -149 -315 -311q-175 -207 -275 -422q-84 -186 -102 -346q-3 -6 -6 -6h-4q-4 0 -6 2q-41 56 -64 110.5t-49 145.5q-20 104 -20 186 q0 28 2 53zM625 369v13q0 112 33 232q35 126 95 237t115.5 193t116.5 156q118 144 250 252.5t217 144.5q1 1 10 -2l13 -18q30 -51 63 -94q64 -116 102 -252q0 -8 -2 -10q-126 -90 -278 -256q-144 -157 -244 -340q-109 -207 -143 -416q0 -21 -6 -35v-2q0 -2 -0.5 -5.5 t-1.5 -10t-2 -11.5q0 -6 -2 -8h-7h-2q-101 45 -149 78q-102 62 -176 147q-2 0 -2 7zM1075 168l4 31q30 110 76 221l4 4q6 0 8 -2q152 -101 283.5 -156t212.5 -73q6 0 6 -9q0 -8 -6 -8q-52 -26 -144.5 -56.5t-166.5 -37.5q-81 -6 -105 -6q-99 0 -178 20q-1 0 -3 4q-1 2 -1 3 q0 43 10 65zM1212 547q92 160 150 235q4 7 10 4q148 -83 358.5 -157.5t311.5 -87.5q6 0 6 -4q4 -4 0 -11q-49 -86 -98 -142.5t-133 -109.5h-5h-2h-8q-37 5 -85 17.5t-124 39.5t-175 80t-201 124q-6 2 -6 8q0 2 1 4zM1339 1896q3 7 11 7q128 -10 252 -62q81 -62 151.5 -153 t116.5 -185.5t76 -179.5t43 -156q0 -8 -2 -8q-2 -2 -9 -2h-2l-207 76q-6 6 -6 8q-42 150 -121 295q-84 153 -198 264q-39 37 -103 86q-2 2 -2 10zM1458 891q0 1 1 1.5t2 2t1 4.5q99 110 246 227h6l457 -170q8 -3 8 -6q-14 -162 -68 -295q-3 -6 -8 -6h-2q-104 20 -311.5 93.5 t-325.5 142.5zM1925 1587q0 8 2 10q3 1 6 1l6 -1q121 -101 193 -241q60 -118 60 -237q0 -16 -1 -32q0 -8 -6 -8l-2 -2q-2 0 -4 2l-72 29q-6 6 -6 8l-4 23q-22 123 -72 258q-56 119 -100 190z" />
<glyph unicode="w" d="M369 879q-2 4 -2 9q0 10 10 17q12 15 24 15h357q13 0 28 -15q10 -16 7 -26q-35 -248 -201 -435q-10 -10 -27 -10h-2q-17 0 -26 15q-142 202 -168 430zM369 1100q26 228 168 430q8 14 26 14q13 3 29 -10q166 -187 201 -434q3 -11 -7 -27q-14 -14 -28 -14h-357 q-13 0 -24 14q-10 8 -10 18q0 4 2 9zM676 309q0 19 10 29q223 244 250 547q6 35 37 35h198q37 0 37 -37v-770q0 -19 -10 -29q-11 -8 -27 -8h-2q-275 35 -481 211q-12 9 -12 22zM676 1667q0 16 12 25q206 176 481 211q18 0 29 -11q10 -10 10 -26v-770q0 -37 -37 -37h-198 q-31 0 -37 31q-26 305 -250 550q-10 10 -10 27zM1352 113v770q0 37 32 37h203q33 0 33 -35q39 -318 254 -547q10 -10 10 -29q0 -13 -12 -22q-206 -176 -481 -211h-7q-14 0 -22 8q-10 10 -10 29zM1352 1096v770q0 16 10 26q11 11 29 11q275 -35 481 -211q12 -9 12 -25 q0 -17 -10 -27q-216 -229 -254 -550q0 -31 -33 -31h-203q-32 0 -32 37zM1765 879q-1 3 -1 6q0 11 10 20q12 15 26 15h359q12 0 24 -15q9 -9 8 -20v-6q-27 -230 -170 -430q-6 -15 -24 -15h-2q-17 0 -27 10q-169 190 -203 435zM1765 1100q34 243 203 434q8 11 22 11q3 0 7 -1 q18 0 24 -14q143 -200 170 -430q1 -3 0 -7q0 -12 -8 -20q-11 -14 -24 -14h-359q-15 0 -26 14q-10 10 -10 21q0 3 1 6z" />
<glyph unicode="x" d="M287 612q0 165 115 279.5t282 114.5q149 0 261.5 -101t129.5 -248h103v-92h-103q-17 -149 -129 -248.5t-262 -99.5q-167 0 -282 115t-115 280zM403 612q0 -115 82.5 -197.5t198.5 -82.5q102 0 178.5 66t93.5 167h-260q-20 0 -34.5 13.5t-14.5 33.5t14 32.5t35 12.5h260 q-17 100 -94 167t-178 67q-115 0 -198 -82.5t-83 -196.5zM928 1179q6 48 43 83l209 206q36 36 86 39h11q45 0 83 -24q11 -7 16 -15l193 -194h196q29 0 50.5 -20.5t21.5 -47.5q0 -29 -21 -49t-51 -20h-227q-29 0 -49 20l-113 115q-2 0 -2 -2l-192 -191l178 -164 q24 -21 24 -57v-354q0 -33 -22.5 -57.5t-56.5 -24.5q-35 0 -58.5 24.5t-23.5 57.5v317l-252 236q-15 9 -25 33q-20 33 -20 69zM1317 1613v11q0 49 33 88q35 42 91 48q8 1 15 2q47 0 84 -31q44 -37 48 -95q0 -6 1 -12q0 -50 -33 -88q-37 -43 -93 -47h-11q-49 0 -88 31 q-43 37 -47 93zM1483 612q0 115 62 211t163 144l-41 120h107l28 -90q40 9 74 9q164 0 279.5 -115t115.5 -279t-115.5 -279.5t-279.5 -115.5t-278.5 115.5t-114.5 279.5zM1597 612q0 -116 82 -198t197 -82q116 0 197 82t81 198q0 115 -81 197t-197 82q-14 0 -35 -6l82 -252 q5 -21 -5 -40.5t-30 -25.5q-2 -2 -14 -2q-37 0 -49 37l-82 252q-67 -36 -106.5 -100.5t-39.5 -141.5z" />
<glyph unicode="y" d="M287 819q0 183 125 311l376 400q2 4 21 24l2 2q71 64 164 64t164 -64l2 -2q18 -18 39 -45q51 -51 104 -51h4q34 0 84 39q15 27 45 57l4 2q71 64 164 64q87 0 164 -64l2 -2l12.5 -15t10.5 -11l344 -367q73 -64 113 -152t40 -190q0 -191 -135.5 -326t-323.5 -135 q-166 0 -295.5 110t-154.5 271h-2l-17 21q-22 22 -55 22q-34 0 -65 -24q-9 -6 -25 -27q-34 -162 -159 -267.5t-291 -105.5q-192 0 -326.5 134.5t-134.5 326.5zM463 819q0 -117 84 -200.5t201 -83.5t200.5 83.5t83.5 200.5t-83.5 201t-200.5 84t-201 -84t-84 -201zM1528 819 q0 -117 83.5 -200.5t200.5 -83.5t201 83.5t84 200.5t-84 201t-201 84t-200.5 -84t-83.5 -201z" />
<glyph unicode="z" d="M287 -2v1982h1984v-1982h-1984zM485 195h1588v1587h-1588v-1587zM647 500l492 487l-492 492l141 141l492 -492l492 492l141 -141l-492 -492l492 -487l-141 -142l-492 490l-492 -490z" />
<glyph unicode="&#xad;" d="M287 -2v1982h1984v-1982h-1984zM485 195h1588v1587h-1588v-1587zM647 500l492 487l-492 492l141 141l492 -492l492 492l141 -141l-492 -492l492 -487l-141 -142l-492 490l-492 -490z" />
<glyph unicode="&#x2000;" horiz-adv-x="990" />
<glyph unicode="&#x2001;" horiz-adv-x="1980" />
<glyph unicode="&#x2002;" horiz-adv-x="990" />
<glyph unicode="&#x2003;" horiz-adv-x="1980" />
<glyph unicode="&#x2004;" horiz-adv-x="660" />
<glyph unicode="&#x2005;" horiz-adv-x="495" />
<glyph unicode="&#x2006;" horiz-adv-x="330" />
<glyph unicode="&#x2007;" horiz-adv-x="330" />
<glyph unicode="&#x2008;" horiz-adv-x="247" />
<glyph unicode="&#x2009;" horiz-adv-x="396" />
<glyph unicode="&#x200a;" horiz-adv-x="110" />
<glyph unicode="&#x2010;" d="M287 -2v1982h1984v-1982h-1984zM485 195h1588v1587h-1588v-1587zM647 500l492 487l-492 492l141 141l492 -492l492 492l141 -141l-492 -492l492 -487l-141 -142l-492 490l-492 -490z" />
<glyph unicode="&#x2011;" d="M287 -2v1982h1984v-1982h-1984zM485 195h1588v1587h-1588v-1587zM647 500l492 487l-492 492l141 141l492 -492l492 492l141 -141l-492 -492l492 -487l-141 -142l-492 490l-492 -490z" />
<glyph unicode="&#x2012;" d="M287 -2v1982h1984v-1982h-1984zM485 195h1588v1587h-1588v-1587zM647 500l492 487l-492 492l141 141l492 -492l492 492l141 -141l-492 -492l492 -487l-141 -142l-492 490l-492 -490z" />
<glyph unicode="&#x2013;" horiz-adv-x="1600" d="M287 -2v1982h1024v-1982h-1024zM389 195h820v1587h-820v-1587zM473 500l254 487l-254 492l73 141l254 -492l253 492l73 -141l-254 -492l254 -487l-73 -142l-253 490l-254 -490z" />
<glyph unicode="&#x2014;" horiz-adv-x="2624" d="M287 -2v1982h2048v-1982h-2048zM491 195h1640v1587h-1640v-1587zM659 500l507 487l-507 492l145 141l508 -492l508 492l145 -141l-507 -492l507 -487l-145 -142l-508 490l-508 -490z" />
<glyph unicode="&#x202f;" horiz-adv-x="396" />
<glyph unicode="&#x205f;" horiz-adv-x="495" />
<glyph unicode="&#xe000;" horiz-adv-x="1761" d="M0 0v1761h1761v-1761h-1761z" />
</font>
</defs>
</svg>
