<?xml version="1.0" standalone="no"?>
<!DOCTYPE svg PUBLIC "-//W3C//DTD SVG 1.1//EN" "http://www.w3.org/Graphics/SVG/1.1/DTD/svg11.dtd" >
<svg xmlns="http://www.w3.org/2000/svg">
<metadata></metadata>
<defs>
<font id="pepservices-maps" horiz-adv-x="2560" >
<font-face units-per-em="2048" ascent="1536" descent="-512" />
<missing-glyph horiz-adv-x="1024" />
<glyph horiz-adv-x="2048" />
<glyph horiz-adv-x="2048" />
<glyph unicode="&#xd;" horiz-adv-x="2048" />
<glyph unicode=" "  horiz-adv-x="1024" />
<glyph unicode="&#x09;" horiz-adv-x="1024" />
<glyph unicode="&#xa0;" horiz-adv-x="1024" />
<glyph unicode="!" d="M287 -2v1982h1984v-1982h-1984zM485 195h1588v1587h-1588v-1587zM647 500l492 487l-492 492l141 141l492 -492l492 492l141 -141l-492 -492l492 -487l-141 -142l-492 490l-492 -490z" />
<glyph unicode="&#x22;" d="M287 -2v1982h1984v-1982h-1984zM485 195h1588v1587h-1588v-1587zM647 500l492 487l-492 492l141 141l492 -492l492 492l141 -141l-492 -492l492 -487l-141 -142l-492 490l-492 -490z" />
<glyph unicode="#" d="M287 -2v1982h1984v-1982h-1984zM485 195h1588v1587h-1588v-1587zM647 500l492 487l-492 492l141 141l492 -492l492 492l141 -141l-492 -492l492 -487l-141 -142l-492 490l-492 -490z" />
<glyph unicode="$" d="M287 -2v1982h1984v-1982h-1984zM485 195h1588v1587h-1588v-1587zM647 500l492 487l-492 492l141 141l492 -492l492 492l141 -141l-492 -492l492 -487l-141 -142l-492 490l-492 -490z" />
<glyph unicode="%" d="M287 -2v1982h1984v-1982h-1984zM485 195h1588v1587h-1588v-1587zM647 500l492 487l-492 492l141 141l492 -492l492 492l141 -141l-492 -492l492 -487l-141 -142l-492 490l-492 -490z" />
<glyph unicode="&#x26;" d="M287 -2v1982h1984v-1982h-1984zM485 195h1588v1587h-1588v-1587zM647 500l492 487l-492 492l141 141l492 -492l492 492l141 -141l-492 -492l492 -487l-141 -142l-492 490l-492 -490z" />
<glyph unicode="'" d="M287 -2v1982h1984v-1982h-1984zM485 195h1588v1587h-1588v-1587zM647 500l492 487l-492 492l141 141l492 -492l492 492l141 -141l-492 -492l492 -487l-141 -142l-492 490l-492 -490z" />
<glyph unicode="(" d="M287 -2v1982h1984v-1982h-1984zM485 195h1588v1587h-1588v-1587zM647 500l492 487l-492 492l141 141l492 -492l492 492l141 -141l-492 -492l492 -487l-141 -142l-492 490l-492 -490z" />
<glyph unicode=")" d="M287 -2v1982h1984v-1982h-1984zM485 195h1588v1587h-1588v-1587zM647 500l492 487l-492 492l141 141l492 -492l492 492l141 -141l-492 -492l492 -487l-141 -142l-492 490l-492 -490z" />
<glyph unicode="*" d="M287 -2v1982h1984v-1982h-1984zM485 195h1588v1587h-1588v-1587zM647 500l492 487l-492 492l141 141l492 -492l492 492l141 -141l-492 -492l492 -487l-141 -142l-492 490l-492 -490z" />
<glyph unicode="+" d="M287 -2v1982h1984v-1982h-1984zM485 195h1588v1587h-1588v-1587zM647 500l492 487l-492 492l141 141l492 -492l492 492l141 -141l-492 -492l492 -487l-141 -142l-492 490l-492 -490z" />
<glyph unicode="," d="M287 -2v1982h1984v-1982h-1984zM485 195h1588v1587h-1588v-1587zM647 500l492 487l-492 492l141 141l492 -492l492 492l141 -141l-492 -492l492 -487l-141 -142l-492 490l-492 -490z" />
<glyph unicode="-" d="M287 -2v1982h1984v-1982h-1984zM485 195h1588v1587h-1588v-1587zM647 500l492 487l-492 492l141 141l492 -492l492 492l141 -141l-492 -492l492 -487l-141 -142l-492 490l-492 -490z" />
<glyph unicode="." d="M287 -2v1982h1984v-1982h-1984zM485 195h1588v1587h-1588v-1587zM647 500l492 487l-492 492l141 141l492 -492l492 492l141 -141l-492 -492l492 -487l-141 -142l-492 490l-492 -490z" />
<glyph unicode="/" d="M287 -2v1982h1984v-1982h-1984zM485 195h1588v1587h-1588v-1587zM647 500l492 487l-492 492l141 141l492 -492l492 492l141 -141l-492 -492l492 -487l-141 -142l-492 490l-492 -490z" />
<glyph unicode="9" d="M287 -2v1982h1984v-1982h-1984zM485 195h1588v1587h-1588v-1587zM647 500l492 487l-492 492l141 141l492 -492l492 492l141 -141l-492 -492l492 -487l-141 -142l-492 490l-492 -490z" />
<glyph unicode=":" d="M287 -2v1982h1984v-1982h-1984zM485 195h1588v1587h-1588v-1587zM647 500l492 487l-492 492l141 141l492 -492l492 492l141 -141l-492 -492l492 -487l-141 -142l-492 490l-492 -490z" />
<glyph unicode=";" d="M287 -2v1982h1984v-1982h-1984zM485 195h1588v1587h-1588v-1587zM647 500l492 487l-492 492l141 141l492 -492l492 492l141 -141l-492 -492l492 -487l-141 -142l-492 490l-492 -490z" />
<glyph unicode="&#x3c;" d="M287 -2v1982h1984v-1982h-1984zM485 195h1588v1587h-1588v-1587zM647 500l492 487l-492 492l141 141l492 -492l492 492l141 -141l-492 -492l492 -487l-141 -142l-492 490l-492 -490z" />
<glyph unicode="=" d="M287 -2v1982h1984v-1982h-1984zM485 195h1588v1587h-1588v-1587zM647 500l492 487l-492 492l141 141l492 -492l492 492l141 -141l-492 -492l492 -487l-141 -142l-492 490l-492 -490z" />
<glyph unicode="&#x3e;" d="M287 -2v1982h1984v-1982h-1984zM485 195h1588v1587h-1588v-1587zM647 500l492 487l-492 492l141 141l492 -492l492 492l141 -141l-492 -492l492 -487l-141 -142l-492 490l-492 -490z" />
<glyph unicode="?" d="M287 -2v1982h1984v-1982h-1984zM485 195h1588v1587h-1588v-1587zM647 500l492 487l-492 492l141 141l492 -492l492 492l141 -141l-492 -492l492 -487l-141 -142l-492 490l-492 -490z" />
<glyph unicode="@" d="M287 -2v1982h1984v-1982h-1984zM485 195h1588v1587h-1588v-1587zM647 500l492 487l-492 492l141 141l492 -492l492 492l141 -141l-492 -492l492 -487l-141 -142l-492 490l-492 -490z" />
<glyph unicode="A" d="M287 -2v1982h1984v-1982h-1984zM485 195h1588v1587h-1588v-1587zM647 500l492 487l-492 492l141 141l492 -492l492 492l141 -141l-492 -492l492 -487l-141 -142l-492 490l-492 -490z" />
<glyph unicode="B" d="M287 -2v1982h1984v-1982h-1984zM485 195h1588v1587h-1588v-1587zM647 500l492 487l-492 492l141 141l492 -492l492 492l141 -141l-492 -492l492 -487l-141 -142l-492 490l-492 -490z" />
<glyph unicode="C" d="M287 -2v1982h1984v-1982h-1984zM485 195h1588v1587h-1588v-1587zM647 500l492 487l-492 492l141 141l492 -492l492 492l141 -141l-492 -492l492 -487l-141 -142l-492 490l-492 -490z" />
<glyph unicode="D" d="M287 -2v1982h1984v-1982h-1984zM485 195h1588v1587h-1588v-1587zM647 500l492 487l-492 492l141 141l492 -492l492 492l141 -141l-492 -492l492 -487l-141 -142l-492 490l-492 -490z" />
<glyph unicode="E" d="M287 -2v1982h1984v-1982h-1984zM485 195h1588v1587h-1588v-1587zM647 500l492 487l-492 492l141 141l492 -492l492 492l141 -141l-492 -492l492 -487l-141 -142l-492 490l-492 -490z" />
<glyph unicode="F" d="M287 -2v1982h1984v-1982h-1984zM485 195h1588v1587h-1588v-1587zM647 500l492 487l-492 492l141 141l492 -492l492 492l141 -141l-492 -492l492 -487l-141 -142l-492 490l-492 -490z" />
<glyph unicode="G" d="M287 -2v1982h1984v-1982h-1984zM485 195h1588v1587h-1588v-1587zM647 500l492 487l-492 492l141 141l492 -492l492 492l141 -141l-492 -492l492 -487l-141 -142l-492 490l-492 -490z" />
<glyph unicode="H" d="M287 -2v1982h1984v-1982h-1984zM485 195h1588v1587h-1588v-1587zM647 500l492 487l-492 492l141 141l492 -492l492 492l141 -141l-492 -492l492 -487l-141 -142l-492 490l-492 -490z" />
<glyph unicode="I" d="M287 -2v1982h1984v-1982h-1984zM485 195h1588v1587h-1588v-1587zM647 500l492 487l-492 492l141 141l492 -492l492 492l141 -141l-492 -492l492 -487l-141 -142l-492 490l-492 -490z" />
<glyph unicode="J" d="M287 -2v1982h1984v-1982h-1984zM485 195h1588v1587h-1588v-1587zM647 500l492 487l-492 492l141 141l492 -492l492 492l141 -141l-492 -492l492 -487l-141 -142l-492 490l-492 -490z" />
<glyph unicode="K" d="M287 -2v1982h1984v-1982h-1984zM485 195h1588v1587h-1588v-1587zM647 500l492 487l-492 492l141 141l492 -492l492 492l141 -141l-492 -492l492 -487l-141 -142l-492 490l-492 -490z" />
<glyph unicode="L" d="M287 -2v1982h1984v-1982h-1984zM485 195h1588v1587h-1588v-1587zM647 500l492 487l-492 492l141 141l492 -492l492 492l141 -141l-492 -492l492 -487l-141 -142l-492 490l-492 -490z" />
<glyph unicode="M" d="M287 -2v1982h1984v-1982h-1984zM485 195h1588v1587h-1588v-1587zM647 500l492 487l-492 492l141 141l492 -492l492 492l141 -141l-492 -492l492 -487l-141 -142l-492 490l-492 -490z" />
<glyph unicode="N" d="M287 -2v1982h1984v-1982h-1984zM485 195h1588v1587h-1588v-1587zM647 500l492 487l-492 492l141 141l492 -492l492 492l141 -141l-492 -492l492 -487l-141 -142l-492 490l-492 -490z" />
<glyph unicode="O" d="M287 -2v1982h1984v-1982h-1984zM485 195h1588v1587h-1588v-1587zM647 500l492 487l-492 492l141 141l492 -492l492 492l141 -141l-492 -492l492 -487l-141 -142l-492 490l-492 -490z" />
<glyph unicode="P" d="M287 -2v1982h1984v-1982h-1984zM485 195h1588v1587h-1588v-1587zM647 500l492 487l-492 492l141 141l492 -492l492 492l141 -141l-492 -492l492 -487l-141 -142l-492 490l-492 -490z" />
<glyph unicode="Q" d="M287 -2v1982h1984v-1982h-1984zM485 195h1588v1587h-1588v-1587zM647 500l492 487l-492 492l141 141l492 -492l492 492l141 -141l-492 -492l492 -487l-141 -142l-492 490l-492 -490z" />
<glyph unicode="R" d="M287 -2v1982h1984v-1982h-1984zM485 195h1588v1587h-1588v-1587zM647 500l492 487l-492 492l141 141l492 -492l492 492l141 -141l-492 -492l492 -487l-141 -142l-492 490l-492 -490z" />
<glyph unicode="S" d="M287 -2v1982h1984v-1982h-1984zM485 195h1588v1587h-1588v-1587zM647 500l492 487l-492 492l141 141l492 -492l492 492l141 -141l-492 -492l492 -487l-141 -142l-492 490l-492 -490z" />
<glyph unicode="T" d="M287 -2v1982h1984v-1982h-1984zM485 195h1588v1587h-1588v-1587zM647 500l492 487l-492 492l141 141l492 -492l492 492l141 -141l-492 -492l492 -487l-141 -142l-492 490l-492 -490z" />
<glyph unicode="U" d="M287 -2v1982h1984v-1982h-1984zM485 195h1588v1587h-1588v-1587zM647 500l492 487l-492 492l141 141l492 -492l492 492l141 -141l-492 -492l492 -487l-141 -142l-492 490l-492 -490z" />
<glyph unicode="V" d="M287 -2v1982h1984v-1982h-1984zM485 195h1588v1587h-1588v-1587zM647 500l492 487l-492 492l141 141l492 -492l492 492l141 -141l-492 -492l492 -487l-141 -142l-492 490l-492 -490z" />
<glyph unicode="W" d="M287 -2v1982h1984v-1982h-1984zM485 195h1588v1587h-1588v-1587zM647 500l492 487l-492 492l141 141l492 -492l492 492l141 -141l-492 -492l492 -487l-141 -142l-492 490l-492 -490z" />
<glyph unicode="X" d="M287 -2v1982h1984v-1982h-1984zM485 195h1588v1587h-1588v-1587zM647 500l492 487l-492 492l141 141l492 -492l492 492l141 -141l-492 -492l492 -487l-141 -142l-492 490l-492 -490z" />
<glyph unicode="Y" d="M287 -2v1982h1984v-1982h-1984zM485 195h1588v1587h-1588v-1587zM647 500l492 487l-492 492l141 141l492 -492l492 492l141 -141l-492 -492l492 -487l-141 -142l-492 490l-492 -490z" />
<glyph unicode="Z" d="M287 -2v1982h1984v-1982h-1984zM485 195h1588v1587h-1588v-1587zM647 500l492 487l-492 492l141 141l492 -492l492 492l141 -141l-492 -492l492 -487l-141 -142l-492 490l-492 -490z" />
<glyph unicode="[" d="M287 -2v1982h1984v-1982h-1984zM485 195h1588v1587h-1588v-1587zM647 500l492 487l-492 492l141 141l492 -492l492 492l141 -141l-492 -492l492 -487l-141 -142l-492 490l-492 -490z" />
<glyph unicode="\" d="M287 -2v1982h1984v-1982h-1984zM485 195h1588v1587h-1588v-1587zM647 500l492 487l-492 492l141 141l492 -492l492 492l141 -141l-492 -492l492 -487l-141 -142l-492 490l-492 -490z" />
<glyph unicode="]" d="M287 -2v1982h1984v-1982h-1984zM485 195h1588v1587h-1588v-1587zM647 500l492 487l-492 492l141 141l492 -492l492 492l141 -141l-492 -492l492 -487l-141 -142l-492 490l-492 -490z" />
<glyph unicode="^" d="M287 -2v1982h1984v-1982h-1984zM485 195h1588v1587h-1588v-1587zM647 500l492 487l-492 492l141 141l492 -492l492 492l141 -141l-492 -492l492 -487l-141 -142l-492 490l-492 -490z" />
<glyph unicode="_" d="M287 -2v1982h1984v-1982h-1984zM485 195h1588v1587h-1588v-1587zM647 500l492 487l-492 492l141 141l492 -492l492 492l141 -141l-492 -492l492 -487l-141 -142l-492 490l-492 -490z" />
<glyph unicode="`" d="M287 -2v1982h1984v-1982h-1984zM485 195h1588v1587h-1588v-1587zM647 500l492 487l-492 492l141 141l492 -492l492 492l141 -141l-492 -492l492 -487l-141 -142l-492 490l-492 -490z" />
<glyph unicode="a" d="M367 991q0 184 72 352.5t194 291.5t291.5 195.5t355.5 72.5q149 0 288 -46.5t251 -131t196 -197t130 -251t46 -286.5q0 -186 -72 -355.5t-194 -292t-290.5 -195t-354.5 -72.5t-355.5 72.5t-291.5 195t-194 292t-72 355.5zM1098 1415q0 -73 54 -127.5t128 -54.5t128 54.5 t54 127.5t-54 127.5t-128 54.5t-128 -54.5t-54 -127.5zM1114 522q0 -69 48.5 -117.5t117.5 -48.5t117.5 48.5t48.5 117.5v391q0 69 -48.5 117.5t-117.5 48.5t-117.5 -48.5t-48.5 -117.5v-391z" />
<glyph unicode="b" horiz-adv-x="2691" d="M469 889q0 187 80 351.5t218.5 276.5t311.5 156q0 5 -1 14t-1 13q0 85 59 144t144 59q82 0 140.5 -59.5t58.5 -143.5q0 -19 -2 -23q269 -70 441.5 -287t172.5 -501q0 -221 -108.5 -408t-295 -296t-407.5 -109t-407.5 109t-295 296t-108.5 408zM944 438q0 -37 30 -64.5 t68 -27.5q37 0 68 28t31 64v328l313 -387q26 -33 70 -33q17 0 32 6q29 11 46.5 34t17.5 52v580q0 36 -30.5 64t-69.5 28q-37 0 -67 -28t-30 -64v-322l-317 381q-34 34 -70 34q-16 0 -32 -7q-60 -22 -60 -86v-580zM1083 1227h392l-195 360z" />
<glyph unicode="c" horiz-adv-x="2691" d="M314 781q-26 102 -27 203q-1 107 29 214q56 208 210 361q117 117 268 176q147 58 296 58q4 -1 8 -1q152 -2 303 -62.5t268 -175.5q155 -156 209 -366q27 -105 27 -210q1 -104 -27 -209q-54 -209 -209 -366l-37 -34h547q37 0 64.5 -27.5t27.5 -65.5t-27.5 -65t-64.5 -27 h-1120q-3 0 -10 1t-11 1h-2q-141 8 -276 67.5t-238 166.5q-154 152 -208 361zM469 993q0 -74 51 -125t125 -51t125 51t51 125t-51 125t-125 51t-125 -51t-51 -125zM922 539q0 -74 51 -125q33 -33 80 -45h6h88q40 9 76 45q51 51 51 125t-51 125t-125 51t-125 -51t-51 -125z M922 1446q0 -74 51 -125t125 -51t125 51t51 125t-51 125t-125 51t-125 -51t-51 -125zM987 993q0 -46 33 -78t78 -32q47 0 78.5 31.5t31.5 78.5q0 43 -32 75t-78 32q-44 0 -77.5 -32t-33.5 -75zM1374 993q0 -74 51 -125t126 -51t126 51t51 125t-51 125t-126 51t-126 -51 t-51 -125z" />
<glyph unicode="d" horiz-adv-x="2691" d="M367 535v909q0 51 35.5 87t86.5 36h1582q51 0 85.5 -36t34.5 -87v-909q0 -51 -34.5 -87t-85.5 -36h-1582q-51 0 -86.5 36t-35.5 87zM588 1282q0 -35 25.5 -60.5t62.5 -25.5h254q35 0 60.5 25.5t25.5 60.5q0 37 -25.5 63.5t-60.5 26.5h-254q-37 0 -62.5 -26.5t-25.5 -63.5 zM1151 987q0 -177 126 -303.5t304 -126.5q179 0 304.5 126t125.5 304t-125.5 306t-304.5 128q-117 0 -216 -59t-156.5 -159t-57.5 -216zM1303 987q0 118 81.5 199.5t196.5 81.5q116 0 198.5 -81.5t82.5 -199.5q0 -114 -83 -196t-198 -82q-114 0 -196 82t-82 196z" />
<glyph unicode="e" horiz-adv-x="2691" d="M287 444v172q0 16 11 26.5t24 10.5h131v637l-97 131q-18 21 -13 47.5t26 40.5q21 18 47 14.5t45 -24.5l622 -823l11 -23h1142q35 0 35 -37v-172q0 -34 -35 -34h-112v-115q0 -27 -25 -27h-80q-28 0 -28 27v115h-1405v-115q0 -27 -25 -27h-80q-28 0 -28 27v115h-131 q-12 0 -23.5 10.5t-11.5 23.5zM567 1538q0 72 50 122t122 50t122 -50t50 -122t-50 -122t-122 -50t-122 50t-50 122zM586 653h350l-350 461v-461zM754 1256q8 60 57 96q41 30 94 30h10h414l-24 185q0 6 4 10q2 2 6 2h143l29 109q3 13 11 13q4 0 9 -3q17 -7 11 -21l-23 -98h35 q6 0 8 -2t2 -10l-41 -285l-4 -8q-21 -37 -63 -37h-353l205 -272l275 170q30 18 59 18q27 0 53 -16l416 -238q37 -25 49 -67q4 -16 4 -32q0 -26 -12 -52q-32 -54 -96 -54q-32 0 -56 15l-356 204l-332 -204q-39 -25 -86 -25q-73 0 -115 57l-305 406q-29 40 -29 88q0 10 1 21z " />
<glyph unicode="f" horiz-adv-x="2691" d="M417 1112q30 40 126 84l1401 631q73 34 125 34q22 0 40 -6l9 7q7 -3 16 -19q18 -10 20 -18l-6 -8q4 -17 4 -35q0 -55 -34 -129l-633 -1399q-44 -97 -84 -127q-17 -13 -31 -13q-20 0 -36 25q-27 42 -34 148q36 173 50 309q4 87 6 165v15q0 70 -12 131q-14 68 -44 101 q-67 64 -259 64q-71 0 -158 -9q-148 -15 -308 -55q-106 9 -147 36q-24 16 -24 36q0 15 13 32z" />
<glyph unicode="g" d="M367 274v873q0 30 7 52.5t25.5 41t34 29t47.5 30.5l684 463q57 45 114 45l114 -45l686 -463q12 -10 36 -27.5t33 -25.5t21.5 -23.5t17 -33.5t4.5 -43v-873v-23.5v-20.5t-0.5 -16t-2 -13.5t-4 -9.5t-6.5 -8t-9.5 -4.5t-13.5 -4t-18 -1.5t-23 -1h-82l-2 6l2 -6 q-91 108 -166 246q-177 317 -230 665h-716q-62 -370 -230 -665q-78 -144 -164 -246l4 6l-4 -6h-6q-73 0 -113 22.5t-40 79.5z" />
<glyph unicode="h" horiz-adv-x="2691" d="M474 1607v15q0 75 36 148q40 80 117 135q104 75 223 75h24q132 -8 205 -108q52 -70 52 -153q0 -12 -1 -25q73 20 152 20q51 0 145 -16v14q0 95 50 160q80 97 206 107q13 1 27 1q112 0 223 -75q111 -87 143 -216q9 -38 10 -73q0 -86 -54 -158q-66 -96 -211 -106 q43 -101 43 -215q0 -159 -77.5 -293t-211.5 -211.5t-293 -77.5q-38 0 -63 6q-4 0 -12 1t-11 1l-39 8q-156 35 -268 138v2q-184 170 -184 426q0 114 40 215q-142 3 -219 106q-48 66 -52 149zM635 39l203 555q48 -51 101 -81t124 -52l-377 -453q-10 -10 -22 -10q-9 0 -17 4 q-15 8 -15 23q0 6 3 14zM1198 1094q0 -41 35 -62l274 -158q13 -10 33 -10q41 0 62 37q11 17 11 35q-1 8 -3 18q-8 28 -33 43l-238 138v321q0 30 -20.5 50t-50.5 20q-29 0 -49.5 -20.5t-20.5 -49.5v-362z" />
<glyph unicode="i" d="M287 481v49q0 386 297 535q169 -174 413 -174q121 0 229 46.5t189 129.5q80 -41 125 -86q-29 -49 -37 -92q-18 2 -49 2q-193 0 -379 -123q-110 -70 -181.5 -166.5t-102.5 -202.5h-414q-38 0 -64 23t-26 59zM545 1475q0 186 132.5 319t319.5 133q124 0 229 -61t165.5 -165 t60.5 -226q0 -92 -36 -176t-97 -144.5t-145 -96.5t-177 -36q-187 0 -319.5 132.5t-132.5 320.5zM850 250h2q-2 16 -2 30q0 80 59 144q56 68 151.5 109t207.5 45q16 1 32 1q116 1 220 -39q118 -44 182 -120l-19 -37l-20 -33v-2l-23 -31q-2 -2 -4 -6q-2 -2 -20 -26l-8 -9 l-23 -22l-14 -14l-21 -17l-20 -18l-14 -12l-41 -29l-41 -27q-3 -2 -11.5 -5t-11.5 -7q-4 -1 -11 -5t-9 -5q-5 -3 -14.5 -6.5t-14.5 -6.5q-9 -6 -16 -6q-4 -3 -15 -5.5t-16 -6.5l-12 -4q-31 -8 -33 -8q-2 -2 -10 -2l-31 -9q-4 0 -6.5 -1t-5.5 -1q-5 0 -14.5 -2t-14.5 -2 q-4 -2 -12 -2h-29q-5 0 -9 -1l-3 -1q-5 0 -16 1t-13 1h-12q-4 0 -13 1t-14 1q-4 4 -10 4q-20 4 -23 4q-11 3 -12 7q-6 0 -18 4q-9 6 -17 6l-12 6q-12 3 -19 10t-12 8q-3 1 -7 5.5t-7 5.5l-15 12l-10 10l-20 29q-11 11 -13 20q-2 7 -8 13q0 3 -1 6t-1 4q-4 12 -4 18 q-4 0 -4 6zM903 492q70 126 211 217q158 112 340 112h39q-1 -14 -1 -28q0 -99 56 -187q11 -19 27 -35q-125 57 -270 57q-20 0 -41 -1q-106 -4 -199.5 -39.5t-161.5 -95.5zM1556 799q0 118 84 201t201 83q99 0 170 -59q-2 32 14 61q30 46 81 46q9 0 18 -1q42 -2 80.5 -29 t60.5 -83q7 -20 7 -37q0 -34 -29 -55q-20 -15 -42 -15q-27 0 -57 23q-41 33 -41 76v6q7 30 27 39q19 10 29 -13q10 -19 -11 -28v-6q0 -18 25 -41q11 -11 24.5 -11t18.5 7q21 12 8 41q-35 79 -102 83q-7 1 -13 1q-32 0 -47 -25q-9 -15 -9 -34q0 -28 20 -66q51 -76 51 -164 q0 -97 -56.5 -170.5t-148.5 -98.5q-41 -14 -78 -14q-117 0 -201 83t-84 200z" />
<glyph unicode="j" d="M580 799q17 -51 68 -60q9 -2 19 -2q42 0 85 33l229 215v-203h299h297v203l233 -217q33 -32 73 -32q13 0 27 3q55 14 68 59q3 11 3 22q0 35 -31 71l-381 356q-50 47 -123 47h-166h-172q-70 0 -117 -47l-379 -352q-36 -33 -36 -70q0 -13 4 -26zM752 394q6 -63 49 -105 l266 -258q37 -35 78 -35q13 0 27 4q56 15 67 64q2 10 2 20q0 38 -33 78l-166 155l164 154l-225 209l-190 -178q-39 -40 -39 -94v-14zM967 1669q0 130 91.5 220.5t221.5 90.5q129 0 220 -90.5t91 -220.5q0 -129 -91 -219t-220 -90t-221 90t-92 219zM1316 64q-2 10 -2 21 q0 38 32 77l170 155l-164 154l223 209l190 -178q40 -40 40 -95q0 -6 -1 -13q-5 -64 -51 -105l-266 -258q-36 -35 -77 -35q-13 0 -26 4q-56 15 -68 64z" />
<glyph unicode="k" d="M286 702.5q0 38.5 29 67.5l392 391l-82 82q-19 17 -19 39t19 41l233 231q73 58 165 58h2q91 0 163 -56q64 31 137 31q100 0 180 -51q115 -76 147 -208q9 -39 10 -77q0 -91 -54 -176q-8 -8 -13 -8h-6q-8 0 -10 2l-61 39q-22 15 -9 31q35 55 35 114q0 25 -6 50 q-21 90 -96 135q-51 28 -103 28q-38 0 -71 -10q25 -51 25 -109q0 -16 -2 -33q-9 -77 -58 -136l-229 -234q-17 -19 -39 -19t-41 19l-82 82l-391 -391q-29 -29 -68 -29q-31 0 -68 29q-29 29 -29 67.5zM981 1387q0 -36 25 -62q26 -26 61.5 -26t60.5 26q29 26 29 62t-29 61 q-25 29 -60.5 29t-61.5 -29q-25 -25 -25 -61zM1284 881l62 360q9 42 51 51l90 17q13 -23 16 -39q2 -13 2 -26q0 -53 -30 -109q-19 -29 -16 -59.5t26 -53.5q29 -29 65 -29t62 29q6 4 16 18t12 19q59 94 59 194q0 43 -11 88l71 11q2 2 10 2q24 0 43 -19l441 -442 q20 -19 20 -44t-20 -42l-420 -420q-14 -20 -43 -20q-27 0 -47 20l-440 440q-19 19 -19 46v8z" />
<glyph unicode="l" d="M287 885q0 39 27.5 67.5t68.5 28.5h641q38 0 66 -29t28 -67v-226v-14h457q-6 21 -6 31v657q0 4 1 8.5t1 8.5l-2 6h-230q-37 0 -62.5 25.5t-25.5 62.5q0 35 25.5 60.5t62.5 25.5h293q30 0 54.5 -17t31.5 -45l154 -507q64 20 137 20q41 0 69.5 -28.5t28.5 -67.5 q0 -41 -28.5 -69t-69.5 -28q-99 0 -168 -70t-69 -167q0 -41 -29 -69.5t-70 -28.5h-770q-39 0 -66.5 28.5t-27.5 69.5q0 97 -71 167t-171 70h-184q-41 0 -68.5 28t-27.5 69zM311 506q0 56 29 112q29 50 79 78.5t107 28.5q88 0 154 -66q65 -65 65 -153q0 -65 -34 -117 q-26 -47 -75.5 -73.5t-109.5 -26.5q-89 0 -152 63t-63 154zM520 1640q0 20 15.5 35t35.5 15h136q20 0 35.5 -15t15.5 -35l35 -442h376q20 0 35 -14.5t15 -34.5v-66q0 -20 -15 -35.5t-35 -15.5h-565q-20 0 -34.5 15.5t-14.5 35.5v25v6zM1837 506q0 58 31 112q30 50 79.5 78.5 t108.5 28.5q88 0 151.5 -63.5t63.5 -155.5q0 -64 -35 -117q-26 -47 -74.5 -73.5t-105.5 -26.5q-92 0 -155 63q-64 64 -64 154z" />
<glyph unicode="m" d="M328 1106q0 134 41.5 260t117.5 228t177 178.5t227 118.5t260 42q168 0 320.5 -65.5t263 -176.5t176 -264t65.5 -321t-65.5 -320.5t-176 -263t-263 -176t-320.5 -65.5t-320.5 65.5t-262.5 176t-175 263t-65 320.5zM555 1274q0 -96 68 -158q47 -44 112 -52q15 -2 29 -1 q50 0 98 22q-55 -82 -55 -190q0 -143 100.5 -243.5t243.5 -100.5q146 0 247 100.5t101 243.5q0 108 -55 190q48 -22 96 -22q14 -1 28 1q62 8 113 52q68 59 68 150v8q0 98 -70 174q-69 79 -167 90q-15 2 -28 2q-79 0 -138 -53q-58 -51 -66 -131q-1 -13 0 -26q0 -66 35 -128 q-77 41 -164 41q-83 0 -160 -41q35 61 35 126q0 14 -2 28q-9 80 -68 131q-57 52 -140 52q-12 0 -25 -1q-94 -9 -166 -90q-70 -76 -70 -174zM1769 379q0 11 11 22q56 49 94 99q12 12 24 12q8 0 25 -10q154 -187 188 -236l115 -172q7 -10 7 -19q0 -11 -11 -20q-10 -10 -20 -10 t-19 6l-172 117q-99 68 -231 188q-11 11 -11 23zM1800 379q118 -108 230 -184q92 -66 120 -82q40 -27 52 -37l-37 51q-9 16 -78 121q-80 111 -189 231q-43 -51 -98 -100zM1800 379q118 -108 230 -184q92 -66 120 -82q40 -27 52 -37l-37 51q-9 16 -78 121q-80 111 -189 231 q-43 -51 -98 -100z" />
<glyph unicode="n" d="M287 207v1565q0 86 61.5 147t147.5 61h1566q88 0 148.5 -61t60.5 -147v-1565q0 -88 -60.5 -148.5t-148.5 -60.5h-1566q-87 0 -148 61t-61 148zM512 838q0 -51 35 -86t86 -35h373v-377q0 -50 35 -85.5t87 -35.5h304q50 0 86 36t36 85v377h373q51 0 86 35t35 86v303 q0 51 -35 86t-86 35h-373v374q0 51 -36 87t-86 36h-304q-52 0 -87 -36t-35 -87v-374h-373q-51 0 -86 -35t-35 -86v-303z" />
<glyph unicode="o" horiz-adv-x="2691" d="M287 739q0 242 153 421.5t387 219.5q-68 32 -122 86l-56 54q-56 58 -69 130q-3 19 -3 36q0 50 27 90q16 21 34 41.5t49 44.5t54 24l373 2q35 0 78.5 -38.5t60.5 -67.5q28 -39 29 -92q0 -16 -4 -34q-12 -75 -66 -132l-53 -51q-44 -49 -123 -93q127 -20 244 -92 q160 103 346 103q130 0 249.5 -52t206 -140t138 -208.5t51.5 -251.5q0 -176 -87 -325.5t-235.5 -236.5t-322.5 -87q-193 0 -346 103q-153 -103 -346 -103q-174 0 -323 87t-236.5 236.5t-87.5 325.5zM520 739q0 -170 122.5 -293.5t291.5 -123.5q86 0 170 38q36 21 37 21 q3 0 6 2l33 25l8 4q4 5 13.5 13t10.5 9l9 8l28 31q2 0 2 2q2 3 13 16.5t16 22.5q66 106 66 225q0 49 -13 103q20 63 67 112t109 74q70 -131 70 -289q0 -211 -123 -379q84 -38 170 -38q170 0 291 123t121 294q0 168 -121.5 292t-290.5 124q-92 0 -170 -37q-9 -4 -27 -15 t-22 -13h-2q-11 -6 -49 -35q-5 -5 -13 -12.5t-15 -14.5t-13 -14v-2q-15 -15 -35 -47q-68 -113 -68 -226q0 -49 15 -102q-21 -54 -56 -96q-54 -63 -122 -92q-68 139 -68 290q0 211 123 379q-84 37 -170 37q-168 0 -291 -124t-123 -292zM684 1647h129q25 0 29.5 16.5 t-15.5 30.5l-79 61q-12 9 -21 21q-25 -29 -43 -58q-8 -13 -8 -31t8 -40zM721 1585l49 -49q37 -36 86 -62t76 -26v-47v47q26 0 75 27t83 63l45 47l-113 2l-164 -2h-137zM770 1800q1 -4 4 -5l4 -1l121 -96q20 -17 45.5 -16t42.5 18l111 94l8 8zM1044 1663q4 -16 29 -16l105 2 q9 24 9 41q0 20 -11 32q-6 7 -17.5 23t-19.5 24q-3 -8 -11 -10l-69 -61q-16 -16 -16 -29q0 -3 1 -6z" />
<glyph unicode="p" d="M328 268v131q0 5 8 13l37 22q62 45 82 62q12 9 20.5 18.5t12 14.5t7.5 13.5t5 10.5q11 32 20 41q19 22 53 39q2 1 5 1.5t5 1t3 1.5h10q53 -22 115 -31q83 -19 245.5 -36t323.5 -17q166 0 327 16.5t240 36.5q57 8 117 31h10q1 -1 13 -4q34 -17 53 -39q9 -9 20 -41 q2 -3 5.5 -11t6.5 -13t11 -14.5t20 -18.5q16 -16 47.5 -38t34.5 -24l39 -22q8 -8 8 -13v-131q0 -9 -8 -12q-105 -59 -402.5 -102t-541.5 -43t-541.5 43t-402.5 102q-8 3 -8 12zM516 762v102q0 12 8 17q1 0 4.5 1.5t6.5 2.5q4 4 13 10.5t17 13.5q10 8 27 37q4 28 4 37 q4 10 6.5 29t5.5 26q39 106 58 131q43 74 150.5 120t240.5 46h141v62q-108 54 -108 172q0 51 20 90q-15 -3 -28 -3q-47 0 -78 42q-12 21 -12 43q0 16 6 33q14 42 57 71q37 25 75 25q6 0 13 -1q45 -5 65 -42q15 -24 15 -51q0 -13 -4 -27q23 10 61 10t61 -10q-4 14 -4 27 q0 27 15 51q20 37 65 42q7 1 13 1q38 0 75 -25q43 -30 57 -71q6 -15 6 -30q0 -24 -14 -46q-26 -43 -74 -43q-15 0 -32 4q20 -39 20 -90q0 -120 -108 -172v-62h143q133 0 240.5 -46t150.5 -120q29 -38 56 -131q4 -8 7 -27t7 -28q0 -3 4 -39q3 -3 8.5 -11.5t10 -14.5t8.5 -9 q8 -8 17.5 -14.5t12.5 -9.5q8 -4 11 -4q6 -6 6 -17v-102q0 -9 -6 -12q-85 -41 -203 -66q-81 -19 -240 -37t-313 -18q-155 0 -314.5 18t-238.5 37q-122 26 -205 66q-6 6 -6 12z" />
<glyph unicode="q" d="M328 1397q0 145 70.5 266.5t191.5 191.5t264 70q221 0 374.5 -153.5t153.5 -374.5q0 -143 -70 -264.5t-191.5 -192t-266.5 -70.5q-143 0 -264 70.5t-191.5 192t-70.5 264.5zM352 1028q88 -118 218.5 -185t283.5 -67q36 0 90 4h2q9 1 25 5.5t24 5.5h2q185 44 313.5 180 t157.5 321q77 23 150 23q144 0 265 -70t191 -191.5t70 -265.5q0 -145 -70 -266.5t-191 -191.5t-265 -70q-191 0 -336 121.5t-182 304.5q-103 -41 -209 -41q-185 0 -332.5 106t-206.5 277zM645 1268q0 -44 38.5 -81t107.5 -48v-19q0 -25 18.5 -43t44.5 -18q29 0 47.5 18 t18.5 43v19q67 12 106 53t39 102q0 117 -133 150l-92 20q-64 15 -64 41q0 43 66 43q26 0 45 -7t26.5 -13.5t18.5 -18.5q21 -24 34 -28q8 -2 17 -2q29 0 45 15t16 40q0 39 -35 69t-89 44v26q0 29 -18.5 47.5t-47.5 18.5q-27 0 -45 -18.5t-18 -47.5v-22q-63 -14 -103.5 -51 t-40.5 -101q0 -33 21 -80q20 -42 104 -63l123 -31q37 -6 37 -37q0 -21 -20 -36t-54 -15q-27 0 -47.5 8t-28.5 16t-20 23q-2 2 -11 13t-12.5 14t-13 7.5t-20.5 4.5q-26 0 -43 -16t-17 -39zM1141 389q88 -106 211 -165.5t266 -59.5q226 0 394 140.5t218 359.5q0 -7 1 -19.5 t1 -19.5q0 -116 -45.5 -222t-121.5 -182.5t-182 -122t-222 -45.5q-170 0 -310 92.5t-210 243.5zM1341 719q0 -43 43 -43h72q33 -75 103 -122.5t155 -47.5q92 0 172 59q18 12 20 36q1 4 1 8q0 19 -11 34q-12 17 -35 19.5t-40 -9.5q-49 -37 -107 -37q-75 0 -129 60h123 q20 0 32.5 11.5t12.5 31.5q0 19 -12.5 31t-32.5 12h-164q0 4 -2 13t-2 13q0 3 2 12.5t2 12.5h164q20 0 32.5 13t12.5 32q0 20 -12.5 32.5t-32.5 12.5h-123q55 58 129 58q58 0 107 -37q17 -13 40 -10.5t35 20.5q11 15 11 34q0 4 -1 8q-2 23 -20 36q-77 57 -172 57 q-85 0 -155 -46t-103 -120h-72q-20 0 -31.5 -12.5t-11.5 -32.5q0 -19 11.5 -32t31.5 -13h50q0 -3 -1 -12.5t-1 -12.5q0 -4 1 -13t1 -13h-50q-20 0 -31.5 -12t-11.5 -31z" />
<glyph unicode="r" d="M410 1425q12 100 61.5 181.5t121 132.5t156 78.5t171.5 27.5q106 0 199 -39.5t161 -113.5q66 73 160 113t200 40q86 0 170.5 -27.5t156.5 -78.5t121.5 -132.5t61.5 -181.5q3 -28 3 -58q0 -49 -8 -106q-13 -91 -42 -157q-48 -118 -149.5 -261.5t-210.5 -260.5 q-172 -181 -320 -332l-43 -41q-10 -9 -23 -22.5t-21.5 -21.5t-12.5 -11q-12 -21 -39 -21h-10q-26 0 -41 21l-53 53l-43 43q-210 215 -320 334q-104 104 -206.5 250.5t-155.5 269.5q-27 68 -39 159q-8 58 -9 108q0 29 3 54zM1016 1047q0 -7 2 -9l8 -4h191l-72 -231 q0 -8 2 -10t8 -2h184l-82 -359q0 -8 7 -12h4q2 0 10 4l360 571q2 4 2 6.5t-2 4.5q-5 8 -10 8h-184l82 270v10q-6 6 -10 6h-187l68 228q0 8 -2 10q0 6 -9 6h-210q-11 0 -11 -8z" />
<glyph unicode="s" d="M545 207v1298h1470v-1298q0 -66 -41 -119t-102 -53h-1182q-61 0 -103 53t-42 119zM545 1616v153q0 66 42 118t103 52h1182q61 0 102 -52t41 -118v-153h-1470zM721 1784q0 -32 23.5 -54t54.5 -22q32 0 53.5 22t21.5 54q0 31 -21.5 54.5t-53.5 23.5q-31 0 -54.5 -23.5 t-23.5 -54.5zM752 780q0 -141 69.5 -260t189 -187.5t259.5 -68.5q215 0 365.5 150.5t150.5 365.5q0 140 -68.5 259.5t-187.5 189t-260 69.5q-140 0 -259.5 -69.5t-189 -189t-69.5 -259.5zM844 780q0 177 124.5 299.5t301.5 122.5t300.5 -122.5t123.5 -299.5 q0 -178 -123.5 -301t-300.5 -123q-178 0 -302 123t-124 301zM930 780q0 -35 2 -51q20 -20 61 -20q35 0 59.5 24.5t30.5 65.5h2q9 -80 91 -80q77 0 86 80h2q12 -80 90 -80t90 80q4 -41 28.5 -65.5t61.5 -24.5q56 0 76 36q0 3 1 15t1 20q0 141 -100 240.5t-242 99.5 q-141 0 -240.5 -99.5t-99.5 -240.5zM936 1784q0 -32 23 -54t55 -22t54 22t22 54q0 31 -22 54.5t-54 23.5t-55 -23.5t-23 -54.5z" />
<glyph unicode="t" d="M540 1330q16 98 61 181.5t122 147.5t172 94q4 0 8 1t8 1q4 4 9 4q55 10 96 10q178 0 317 -109t185 -280q15 -65 15 -133q-1 -127 -51 -265q-78 -214 -222 -376l126 -104q18 -21 15 -37q-6 -16 -27 -25l-82 -20l84 -283l97 465h-72q-20 0 -29 21q-2 0 -2 2 q134 175 202 384q39 120 38 230q0 82 -21 158q-41 157 -148.5 267t-258.5 153q145 154 346 163h10h12q132 -8 240.5 -79t169.5 -184t61 -244q0 -184 -131 -372.5t-311 -301.5l104 -144q16 -19 7 -37q-13 -16 -31 -16h-121v-8l-117 -565q-6 -29 -35 -29q-2 0 -4 -2h-8 q-24 0 -33 22l-112 383l-103 -24q-1 0 -4 -1t-4 -1q-18 0 -24 12q-17 17 -9 35l64 151q-186 47 -367 210t-229 350q-18 63 -18 126q-1 34 5 69zM709 1151q12 -47 61 -47q12 0 16 2q24 4 37.5 27.5t7.5 48.5q-8 34 -8 66q1 64 33 122q50 88 148 117q24 6 36 27q8 14 9 30 q0 7 -2 15q-5 27 -25 42q-14 11 -31 11q-7 0 -14 -2q-4 0 -16 -4q-143 -48 -218 -180q-48 -85 -48 -175q0 -49 14 -100z" />
<glyph unicode="u" horiz-adv-x="2691" d="M408 618v189q0 35 26.5 61.5t61.5 26.5h139v188h-139q-35 0 -61.5 26.5t-26.5 61.5v189q0 35 26.5 61.5t61.5 26.5h139v154q0 60 42.5 103.5t102.5 43.5h1227q61 0 103 -43t42 -104v-1225q0 -62 -42 -105t-103 -43h-1227q-60 0 -102.5 43.5t-42.5 104.5v153h-139 q-35 0 -61.5 26.5t-26.5 61.5zM1169 670q-3 -7 -3 -13q0 -14 12 -28q14 -17 34 -17h363q20 0 37 17q9 13 9 26q0 8 -3 15l-111 379q103 64 103 182q0 92 -62.5 154.5t-152.5 62.5q-91 0 -154 -63t-63 -154q0 -119 102 -182z" />
<glyph unicode="v" d="M328 991q0 194 76 369.5t204 302t304 201.5t368 75t368 -75t304 -201.5t204 -302t76 -369.5t-76 -371.5t-204 -305.5t-304 -203.5t-368 -75.5t-368 75.5t-304 203.5t-204 305.5t-76 371.5zM545 991q0 -152 58 -288.5t156.5 -235t234.5 -156t286 -57.5q244 0 438 145 l-1030 1026q-143 -200 -143 -434zM719 819q0 -33 31 -33h890v211h-890q-31 0 -31 -32v-146zM842 1579l1030 -1026q143 200 143 438q0 199 -99 368t-268.5 267t-367.5 98q-240 0 -438 -145zM1167 1479q0 65 45 109t109 44q33 0 33 -33q0 -32 -33 -32q-37 0 -63.5 -25.5 t-26.5 -62.5q0 -35 33.5 -61.5t70.5 -26.5q31 0 31 -35v-51q0 -26 18.5 -42t47.5 -16h127q54 0 91.5 -38.5t37.5 -92.5v-51q0 -33 -31 -33q-35 0 -35 33v51q0 29 -17 46.5t-46 17.5h-127q-56 0 -92.5 35.5t-36.5 89.5v24q-60 10 -98 53t-38 97zM1384 1546q0 33 33 33 q66 0 112 -46t46 -112q0 -29 -10 -59h30q88 0 151.5 -62.5t63.5 -152.5v-82q0 -33 -34 -33q-31 0 -31 33v82q0 62 -44.5 106.5t-105.5 44.5h-82q-23 0 -30 17q-9 18 4 37q20 20 20 69q0 37 -26.5 64.5t-63.5 27.5q-33 0 -33 33zM1683 786v211h82q35 0 35 -32v-146 q0 -33 -35 -33h-82z" />
<glyph unicode="w" d="M485 229v56q0 425 328 596q94 -94 205 -142l260 -516l266 522q106 47 197 138q332 -160 332 -598v-56q0 -36 -28 -62t-69 -26h-1392q-41 0 -70 26t-29 62zM678 440q0 -31 21.5 -52t52.5 -21h161q31 0 51.5 21t20.5 52q0 30 -21 51t-51 21h-161q-31 0 -52.5 -21.5 t-21.5 -50.5zM772 1333q0 138 67.5 254t183 183t251.5 67q139 0 255.5 -67t183.5 -183t67 -254q0 -136 -67 -252t-183.5 -184t-255.5 -68q-136 0 -251.5 68t-183 184t-67.5 252zM1178 604q0 6 2 8l2 2l80 156q6 12 18 12q11 0 20 -12l76 -156l4 -2q2 -4 2 -16l-1 -2 q-1 -2 -1 -6q-2 0 -4 -2l-78 -156q-6 -12 -18 -12q-11 0 -20 12l-78 156l-2 2q-2 4 -2 16z" />
<glyph unicode="x" d="M291 903l67 172l62 148q18 43 53 90q82 90 164 90h307q105 0 174 -90q29 -43 43 -90q13 -36 60 -148q65 -169 67 -172q10 -29 -4 -56.5t-43 -35.5q-30 -10 -56.5 5t-37.5 46l-119 318h-43l193 -523q10 -23 10 -39q0 -36 -49 -36h-144v-349q0 -38 -26.5 -65t-63.5 -27 t-64.5 27t-27.5 65v349h-43v-349q0 -38 -26.5 -65t-63.5 -27t-64.5 27t-27.5 65v349h-135q-52 0 -56 34q-3 16 6 37l195 527h-45l-119 -318q-6 -31 -34.5 -46.5t-57.5 -4.5q-31 7 -46 35q-9 16 -9 34q0 11 4 23zM598 1642q0 82 56.5 138.5t138.5 56.5q80 0 136 -56.5 t56 -138.5q0 -78 -56.5 -134t-135.5 -56q-81 0 -138 56t-57 134zM1352 788v404q0 102 68.5 156.5t176.5 54.5h428q108 0 177 -54.5t69 -156.5v-404q0 -36 -23.5 -59.5t-58.5 -23.5q-37 0 -61.5 23.5t-24.5 59.5v349h-43v-883q0 -47 -32.5 -80t-79.5 -33q-49 0 -81 32.5 t-32 80.5v446h-45v-446q0 -47 -34 -80t-83 -33q-45 0 -78.5 33t-33.5 80v883h-43v-349q0 -36 -24 -59.5t-60 -23.5q-37 0 -59.5 23t-22.5 60zM1618 1642q0 82 56 138.5t138 56.5q80 0 136.5 -57t56.5 -138q0 -78 -57 -134t-136 -56q-81 0 -137.5 56t-56.5 134z" />
<glyph unicode="y" d="M725 637q0 67 41.5 109t107.5 42q38 0 70.5 -17t47.5 -33t42 -50q46 -57 68 -75q67 -52 182 -52q93 0 147 40t54 95q0 76 -101 103l-325 82q-85 22 -147.5 57t-97 72t-55 83.5t-26.5 83.5t-6 80q0 89 31.5 161t87 119.5t121 78t143.5 45.5v59q0 72 49 120t121 48 q70 0 119 -48.5t49 -119.5v-71q145 -39 240.5 -119t95.5 -180q0 -66 -46 -107t-118 -41q-46 0 -75.5 21t-61.5 61q-21 23 -29 31.5t-32.5 27.5t-45.5 27t-56 15.5t-77 7.5q-82 0 -129 -32t-47 -89q0 -40 40.5 -62t131.5 -43l240 -57q85 -19 150 -53t103 -72.5t62 -86.5 t32.5 -91t8.5 -90q0 -164 -101 -271.5t-286 -144.5v-43q0 -72 -49.5 -122t-118.5 -50q-72 0 -121 50t-49 122v47q-187 34 -289 131q-96 96 -96 201z" />
<glyph unicode="z" d="M394 1310q33 124 138 210q72 64 163 88q48 12 94 12q41 0 79 -10q82 -21 133 -82q26 -29 35 -60q36 -58 36 -129q0 -31 -7 -65q166 134 399 143q-62 56 -84 109q-34 58 -34 131q8 121 114 205q98 77 237 78q12 0 23 -1q114 -1 205.5 -55.5t130.5 -140.5q33 -62 33 -131 q-6 -102 -82.5 -177t-194.5 -100q165 -90 264 -252t99 -356q0 -188 -92.5 -347.5t-251.5 -252t-346 -92.5q-188 0 -347.5 92.5t-252 252t-92.5 347.5q0 137 55 266q-71 -37 -145 -47q-22 -3 -43 -2q-50 0 -98 16q-66 22 -109 76q-18 18 -35 60q-36 56 -36 127q0 41 12 87z M932 737q0 -109 44 -209t118 -172t177 -114.5t216 -42.5q95 0 184 30v4q10 5 16.5 26t6.5 32q0 8 1 9.5t-6.5 4.5t-9.5 4q-8 1 -13.5 0t-15 2t-20.5 11q-14 12 -45 47q-12 10 -29 30q-9 18 -12 39q-3 9 -3 19q0 25 20 53q24 24 18 51q-5 16 -10 21q-21 -9 -31 -9h-12 q-11 0 -23 5t-18.5 10t-19.5 16t-17 14q-9 14 -28.5 17t-24.5 8q-21 24 -49 33q-17 6 -32 12t-27 13.5t-21 13t-17.5 13.5t-13 11.5t-11 10.5t-7.5 8q-9 7 -27 43q-6 8 -14 28q-18 3 -25 11q-23 9 -33 22q-6 5 -15.5 17.5t-12.5 15.5q-10 15 -11 18l-10 29q-8 21 -8 43 q0 16 4 33q9 51 29 96q-162 -162 -162 -377zM1311 813q-4 -9 -4 -19q-1 -15 9 -31q16 -26 30 -26q18 -5 28 11q10 19 33 28q18 6 28.5 0t10.5 -18q1 -6 -4.5 -26t-5.5 -23q0 -9 10 -9q32 0 49 -4q15 -1 14 -34.5t0 -34.5q4 -1 12 -6.5t13 -6.5q22 0 57 15q3 2 15.5 15.5 t26.5 25.5t24 16q3 1 9.5 1.5t14 2t13.5 4.5q6 2 20 2q42 0 72 -12q13 -4 29.5 -17.5t29.5 -17.5q7 -3 30.5 -0.5t31.5 -3.5q11 -6 18 -13t12 -14.5t7 -9.5q12 -12 33 -12q9 0 20 2q10 0 31 6q18 74 18 133q0 140 -70 259.5t-189 192t-261 83.5q0 -17 10 -31l4 -5 q5 -5 8 -7.5t12 -5.5t21 -4q33 -1 50.5 -15.5t15.5 -27.5q-2 -5 -7 -11.5t-5 -8.5t3 -9q13 -31 9 -47q-3 -1 -9.5 -3.5t-11.5 -4.5t-6 -2q-14 -6 -21 -13q-7 -2 -10 -12q0 -2 0.5 -12.5t-4.5 -10.5q-37 -29 -37 -41q-3 -26 -24 -55q-19 -21 -23.5 -29.5t-3.5 -21.5 q1 -9 10 -23t11 -18q5 -8 6.5 -17t-3 -15.5t-16.5 -2.5q-19 3 -26.5 8t-15 20t-15.5 25q-13 17 -25 11q-7 -2 -10 -11l-8 -10q-11 -11 -19 -8q-11 5 -28 5.5t-25 -5.5q-5 -3 -8 -6.5t-4.5 -6.5t-4 -12t-5.5 -16z" />
<glyph unicode="{" d="M287 -2v1982h1984v-1982h-1984zM485 195h1588v1587h-1588v-1587zM647 500l492 487l-492 492l141 141l492 -492l492 492l141 -141l-492 -492l492 -487l-141 -142l-492 490l-492 -490z" />
<glyph unicode="&#xa1;" horiz-adv-x="2568" d="M-12 70v61v88v55l225 222q-8 27 -8 61v1161q0 109 79 185.5t191 76.5h1608q114 0 193 -76.5t79 -185.5v-1161q0 -13 -3.5 -34l-4.5 -27l225 -222v-55v-88v-61q0 -31 -20 -51.5t-51 -20.5h-2442q-31 0 -51 20.5t-20 51.5zM408 557q0 -1 1 -2t1 -2h1740v4v1161 q0 27 -19 46.5t-48 19.5h-1608q-27 0 -47 -20t-20 -46v-1161zM858 295q0 -37 27 -63.5t65 -26.5h660q38 0 65 26.5t27 63.5q0 35 -27 60.5t-65 25.5h-660q-38 0 -65 -25.5t-27 -60.5z" />
<glyph unicode="&#xa4;" d="M350 193q0 80 57.5 137t139.5 57h14q61 77 230.5 293t308.5 393t292 371t248.5 313t110.5 135q45 44 121 70.5t149 15.5q121 -19 179 -131q15 -26 5.5 -56.5t-36.5 -45.5q-29 -15 -60.5 -5.5t-46.5 36.5q-20 45 -63 51q-35 6 -77 -9.5t-64 -35.5q-19 -19 -103 -125v-1041 q-6 -43 -31 -75.5t-57 -48t-63.5 -25t-52.5 -11.5l-21 -1h-719q-47 -57 -113 -144q43 -53 43 -118q0 -82 -56 -138.5t-138 -56.5t-139.5 56.5t-57.5 138.5zM1499 193q0 -81 57.5 -138t137.5 -57q82 0 138 56.5t56 138.5q0 80 -56.5 137t-137.5 57q-80 0 -137.5 -57.5 t-57.5 -136.5z" />
<glyph unicode="&#xa5;" d="M287 987q0 202 78.5 386t211.5 317t317 211.5t386 78.5t385 -78.5t316 -211.5t211.5 -317t78.5 -386q0 -201 -78.5 -384.5t-211.5 -316t-316 -210.5t-385 -78q-135 0 -264 35.5t-238 99t-200.5 155t-155.5 200t-99.5 236.5t-35.5 263zM967 475q0 -55 40 -94t97 -39 q56 0 94.5 39t38.5 94v291h168q187 0 295 108q102 98 102 261q0 199 -119 309q-36 35 -80.5 59t-84 32.5t-65 11t-42.5 1.5h-307q-57 0 -97 -39t-40 -94v-940zM1237 1034v246h176h4q51 0 82 -31q35 -32 35 -114q0 -47 -21 -68q-33 -33 -102 -33h-174z" />
<glyph unicode="&#xa6;" d="M215 1483q11 44 53 67l953 416q51 31 108 2l963 -418q40 -24 53 -68t-10 -87q-14 -27 -41.5 -43.5t-59.5 -16.5q-27 0 -53 15l-907 389l-895 -387q-27 -17 -53 -17q-33 0 -60 16.5t-41 43.5q-23 41 -10 88zM492 168v1104l790 327l786 -321v-1110q0 -70 -50.5 -120 t-121.5 -50h-1232q-72 0 -122 49.5t-50 120.5zM778 797q13 -57 64 -98.5t94 -30.5q51 14 72.5 73.5t5.5 118.5q-16 56 -66 98t-96 29q-47 -10 -68.5 -71.5t-5.5 -118.5zM924 471q0 -76 106.5 -130t257.5 -54t257 54t106 130q0 62 -74 113q-64 45 -88 123h-2 q-22 70 -76.5 112.5t-122.5 42.5q-71 0 -126 -44.5t-77 -117.5q-23 -74 -90 -118q-71 -49 -71 -111zM1004 1079q15 -57 65.5 -98t95.5 -29q49 14 69.5 72.5t6.5 116.5q-16 60 -65.5 102t-98.5 29q-45 -13 -66 -74.5t-7 -118.5zM1335 1141q-15 -55 9 -117t67 -72 q51 -13 97.5 27.5t62.5 99.5q16 56 -6 118t-68 75q-48 13 -98 -29.5t-64 -101.5zM1561 852q-13 -57 10 -117.5t67 -70.5q50 -14 98 26t64 98q13 60 -8.5 121t-69.5 74q-45 13 -95 -30.5t-66 -100.5z" />
<glyph unicode="&#xa7;" d="M399 82v1280q0 34 25 59t59 25h1594q34 0 59 -25t25 -59v-1280q0 -35 -25 -59.5t-59 -24.5h-1594q-34 0 -59 24.5t-25 59.5zM625 1796q29 83 108 133.5t180 50.5q74 0 156 -32q122 -55 211 -185q88 130 209 185q82 32 158 32q101 0 180 -50.5t108 -133.5 q40 -116 -30 -219q-105 -141 -359 -141h-532q-258 0 -359 141q-73 103 -30 219zM791 367q0 -22 14.5 -37t36.5 -15h579q21 0 36.5 15.5t15.5 36.5q0 20 -15.5 33.5t-36.5 13.5h-579q-22 0 -36.5 -13.5t-14.5 -33.5zM791 614q0 -22 14.5 -36.5t36.5 -14.5h579q21 0 36.5 15 t15.5 36t-15.5 35.5t-36.5 14.5h-579q-22 0 -36.5 -14t-14.5 -36zM797 1739q-11 -27 10 -56q8 -13 26 -26t66.5 -26t114.5 -13h141q-59 117 -158 162q-36 16 -84 16q-43 0 -75.5 -17.5t-40.5 -39.5zM1405 1618h141q66 0 114.5 13t66.5 26t26 26q17 23 10 56 q-8 22 -40.5 39.5t-75.5 17.5q-47 0 -86 -16q-97 -46 -156 -162zM1591 967q0 -17 12 -29t29 -12h273q15 0 27 12t12 29v252q0 17 -12 29t-27 12h-273q-17 0 -29 -12t-12 -29v-252z" />
<glyph unicode="&#xad;" d="M287 -2v1982h1984v-1982h-1984zM485 195h1588v1587h-1588v-1587zM647 500l492 487l-492 492l141 141l492 -492l492 492l141 -141l-492 -492l492 -487l-141 -142l-492 490l-492 -490z" />
<glyph unicode="&#x2000;" horiz-adv-x="991" />
<glyph unicode="&#x2001;" horiz-adv-x="1982" />
<glyph unicode="&#x2002;" horiz-adv-x="991" />
<glyph unicode="&#x2003;" horiz-adv-x="1982" />
<glyph unicode="&#x2004;" horiz-adv-x="660" />
<glyph unicode="&#x2005;" horiz-adv-x="495" />
<glyph unicode="&#x2006;" horiz-adv-x="330" />
<glyph unicode="&#x2007;" horiz-adv-x="330" />
<glyph unicode="&#x2008;" horiz-adv-x="247" />
<glyph unicode="&#x2009;" horiz-adv-x="396" />
<glyph unicode="&#x200a;" horiz-adv-x="110" />
<glyph unicode="&#x2010;" d="M287 -2v1982h1984v-1982h-1984zM485 195h1588v1587h-1588v-1587zM647 500l492 487l-492 492l141 141l492 -492l492 492l141 -141l-492 -492l492 -487l-141 -142l-492 490l-492 -490z" />
<glyph unicode="&#x2011;" d="M287 -2v1982h1984v-1982h-1984zM485 195h1588v1587h-1588v-1587zM647 500l492 487l-492 492l141 141l492 -492l492 492l141 -141l-492 -492l492 -487l-141 -142l-492 490l-492 -490z" />
<glyph unicode="&#x2012;" d="M287 -2v1982h1984v-1982h-1984zM485 195h1588v1587h-1588v-1587zM647 500l492 487l-492 492l141 141l492 -492l492 492l141 -141l-492 -492l492 -487l-141 -142l-492 490l-492 -490z" />
<glyph unicode="&#x2013;" horiz-adv-x="1600" d="M287 -2v1982h1024v-1982h-1024zM389 195h820v1587h-820v-1587zM473 500l254 487l-254 492l73 141l254 -492l253 492l73 -141l-254 -492l254 -487l-73 -142l-253 490l-254 -490z" />
<glyph unicode="&#x2014;" d="M0 72v346q0 31 21.5 52.5t50.5 21.5h2093v-494h-2093q-29 0 -50.5 21.5t-21.5 52.5zM1053 1618q0 152 104.5 257t255.5 105q32 0 54 -21.5t22 -53.5t-22 -55t-54 -23q-86 0 -146.5 -61.5t-60.5 -147.5q0 -83 76 -145t164 -62q31 0 54.5 -23t23.5 -55v-123 q0 -60 41.5 -98.5t105.5 -38.5h297q127 0 216 -89t89 -214v-123q0 -32 -22 -54t-56 -22q-32 0 -53.5 22t-21.5 54v123q0 62 -44.5 106t-107.5 44h-297q-126 0 -213.5 83.5t-87.5 206.5v54q-134 28 -225.5 129t-91.5 225zM1561 1776q0 33 23 55t54 22q153 0 261 -107.5 t108 -260.5q0 -60 -20 -135h65q138 0 255 -68.5t185 -186t68 -255.5v-193q0 -32 -22 -54t-56 -22q-31 0 -53.5 22t-22.5 54v193q0 146 -104 249t-250 103h-190q-23 0 -42 12.5t-28 34.5q-9 18 -7 41.5t17 40.5q22 25 36.5 72.5t14.5 91.5q0 88 -63.5 151.5t-151.5 63.5 q-31 0 -54 22t-23 54zM2267 -2v494h193q31 0 52 -21.5t21 -52.5v-346q0 -31 -21 -52.5t-52 -21.5h-193z" />
<glyph unicode="&#x202f;" horiz-adv-x="396" />
<glyph unicode="&#x205f;" horiz-adv-x="495" />
<glyph unicode="&#x2122;" d="M264 598v369q0 58 30.5 93.5t78.5 35.5q31 0 67 -19h2q261 -123 269 -127l446 -211q46 -13 55 -14q10 -4 35 -4q24 -4 33 -4q62 0 123 22l444 211q54 23 267 127h6q36 19 65 19q50 0 80.5 -35.5t30.5 -93.5v-369q0 -71 -44 -140t-110 -98l-717 -335q-66 -27 -145 -27 q-81 0 -150 27l-712 335q-66 29 -110 98t-44 140zM496 1283q-8 27 6 52q13 26 41 34t53 -7l141 -78q21 30 49 55q-75 12 -129 56.5t-73 111.5q-16 58 0 125q-45 22 -60 68q-13 45 10 86t68 55q34 9 66 -2t51 -37q39 21 72 31q37 12 88 12q3 35 25 62t57 37q43 12 83.5 -10.5 t53.5 -67.5q14 -48 -19 -94q49 -49 62 -101q20 -67 -3.5 -135.5t-80.5 -120.5q39 -5 98 -35l62 156q11 26 36.5 37.5t51.5 1.5q27 -10 37 -36.5t1 -53.5l-79 -195q62 -75 88 -162q50 -175 -31 -319q-6 0 -20 -1t-21 -1q-70 0 -111 20l-444 209q-5 2 -24.5 11t-30.5 12 q0 44 14 98l-154 86q-26 13 -34 40zM1483 870l30 711h7q-2 -20 11.5 -37.5t35.5 -23.5q22 -3 40 6.5t25 29.5q0 -22 12.5 -38.5t34.5 -20.5q22 -3 40.5 7t25.5 30h4l55 272q20 89 96.5 139t165.5 31q89 -20 138.5 -96t29.5 -166q-19 -86 -94 -137q-15 -9 -33.5 -5t-27.5 19 q-12 15 -7.5 34t19.5 28q44 27 57 82q11 53 -18.5 98t-81.5 55q-54 12 -99.5 -17.5t-54.5 -80.5l-59 -274v-3q0 -21 13 -37t34 -22q20 -4 39 6t27 29h2q-2 -21 12 -37.5t35 -19.5q21 -6 39 4t26 30l6 -2l-149 -389q-54 -28 -84 -39z" />
<glyph unicode="&#xe000;" horiz-adv-x="1832" d="M0 0v1833h1833v-1833h-1833z" />
</font>
</defs>
</svg>
