<?xml version="1.0" standalone="no"?>
<!DOCTYPE svg PUBLIC "-//W3C//DTD SVG 1.1//EN" "http://www.w3.org/Graphics/SVG/1.1/DTD/svg11.dtd" >
<svg xmlns="http://www.w3.org/2000/svg">
<metadata></metadata>
<defs>
<font id="pepcommerce" horiz-adv-x="2560" >
<font-face units-per-em="2048" ascent="1583" descent="-465" />
<missing-glyph horiz-adv-x="500" />
<glyph horiz-adv-x="2048" />
<glyph horiz-adv-x="2048" />
<glyph unicode="&#xd;" horiz-adv-x="2048" />
<glyph unicode=" " d="M287 -2v1982h1984v-1982h-1984zM485 195h1588v1587h-1588v-1587zM647 500l492 487l-492 492l141 141l492 -492l492 492l141 -141l-492 -492l492 -487l-141 -142l-492 490l-492 -490z" />
<glyph unicode="!" d="M287 -2v1982h1984v-1982h-1984zM485 195h1588v1587h-1588v-1587zM647 500l492 487l-492 492l141 141l492 -492l492 492l141 -141l-492 -492l492 -487l-141 -142l-492 490l-492 -490z" />
<glyph unicode="&#x22;" d="M287 -2v1982h1984v-1982h-1984zM485 195h1588v1587h-1588v-1587zM647 500l492 487l-492 492l141 141l492 -492l492 492l141 -141l-492 -492l492 -487l-141 -142l-492 490l-492 -490z" />
<glyph unicode="#" d="M287 -2v1982h1984v-1982h-1984zM485 195h1588v1587h-1588v-1587zM647 500l492 487l-492 492l141 141l492 -492l492 492l141 -141l-492 -492l492 -487l-141 -142l-492 490l-492 -490z" />
<glyph unicode="$" d="M287 -2v1982h1984v-1982h-1984zM485 195h1588v1587h-1588v-1587zM647 500l492 487l-492 492l141 141l492 -492l492 492l141 -141l-492 -492l492 -487l-141 -142l-492 490l-492 -490z" />
<glyph unicode="%" d="M287 -2v1982h1984v-1982h-1984zM485 195h1588v1587h-1588v-1587zM647 500l492 487l-492 492l141 141l492 -492l492 492l141 -141l-492 -492l492 -487l-141 -142l-492 490l-492 -490z" />
<glyph unicode="&#x26;" d="M287 -2v1982h1984v-1982h-1984zM485 195h1588v1587h-1588v-1587zM647 500l492 487l-492 492l141 141l492 -492l492 492l141 -141l-492 -492l492 -487l-141 -142l-492 490l-492 -490z" />
<glyph unicode="'" d="M287 -2v1982h1984v-1982h-1984zM485 195h1588v1587h-1588v-1587zM647 500l492 487l-492 492l141 141l492 -492l492 492l141 -141l-492 -492l492 -487l-141 -142l-492 490l-492 -490z" />
<glyph unicode="(" d="M287 -2v1982h1984v-1982h-1984zM485 195h1588v1587h-1588v-1587zM647 500l492 487l-492 492l141 141l492 -492l492 492l141 -141l-492 -492l492 -487l-141 -142l-492 490l-492 -490z" />
<glyph unicode=")" d="M287 -2v1982h1984v-1982h-1984zM485 195h1588v1587h-1588v-1587zM647 500l492 487l-492 492l141 141l492 -492l492 492l141 -141l-492 -492l492 -487l-141 -142l-492 490l-492 -490z" />
<glyph unicode="*" d="M287 -2v1982h1984v-1982h-1984zM485 195h1588v1587h-1588v-1587zM647 500l492 487l-492 492l141 141l492 -492l492 492l141 -141l-492 -492l492 -487l-141 -142l-492 490l-492 -490z" />
<glyph unicode="+" d="M287 -2v1982h1984v-1982h-1984zM485 195h1588v1587h-1588v-1587zM647 500l492 487l-492 492l141 141l492 -492l492 492l141 -141l-492 -492l492 -487l-141 -142l-492 490l-492 -490z" />
<glyph unicode="," d="M287 -2v1982h1984v-1982h-1984zM485 195h1588v1587h-1588v-1587zM647 500l492 487l-492 492l141 141l492 -492l492 492l141 -141l-492 -492l492 -487l-141 -142l-492 490l-492 -490z" />
<glyph unicode="-" d="M287 -2v1982h1984v-1982h-1984zM485 195h1588v1587h-1588v-1587zM647 500l492 487l-492 492l141 141l492 -492l492 492l141 -141l-492 -492l492 -487l-141 -142l-492 490l-492 -490z" />
<glyph unicode="." d="M287 -2v1982h1984v-1982h-1984zM485 195h1588v1587h-1588v-1587zM647 500l492 487l-492 492l141 141l492 -492l492 492l141 -141l-492 -492l492 -487l-141 -142l-492 490l-492 -490z" />
<glyph unicode="/" d="M287 -2v1982h1984v-1982h-1984zM485 195h1588v1587h-1588v-1587zM647 500l492 487l-492 492l141 141l492 -492l492 492l141 -141l-492 -492l492 -487l-141 -142l-492 490l-492 -490z" />
<glyph unicode="0" d="M287 -2v1982h1984v-1982h-1984zM485 195h1588v1587h-1588v-1587zM647 500l492 487l-492 492l141 141l492 -492l492 492l141 -141l-492 -492l492 -487l-141 -142l-492 490l-492 -490z" />
<glyph unicode="1" d="M287 -2v1982h1984v-1982h-1984zM485 195h1588v1587h-1588v-1587zM647 500l492 487l-492 492l141 141l492 -492l492 492l141 -141l-492 -492l492 -487l-141 -142l-492 490l-492 -490z" />
<glyph unicode="2" d="M287 -2v1982h1984v-1982h-1984zM485 195h1588v1587h-1588v-1587zM647 500l492 487l-492 492l141 141l492 -492l492 492l141 -141l-492 -492l492 -487l-141 -142l-492 490l-492 -490z" />
<glyph unicode="3" d="M287 -2v1982h1984v-1982h-1984zM485 195h1588v1587h-1588v-1587zM647 500l492 487l-492 492l141 141l492 -492l492 492l141 -141l-492 -492l492 -487l-141 -142l-492 490l-492 -490z" />
<glyph unicode="4" d="M287 -2v1982h1984v-1982h-1984zM485 195h1588v1587h-1588v-1587zM647 500l492 487l-492 492l141 141l492 -492l492 492l141 -141l-492 -492l492 -487l-141 -142l-492 490l-492 -490z" />
<glyph unicode="5" d="M287 -2v1982h1984v-1982h-1984zM485 195h1588v1587h-1588v-1587zM647 500l492 487l-492 492l141 141l492 -492l492 492l141 -141l-492 -492l492 -487l-141 -142l-492 490l-492 -490z" />
<glyph unicode="6" d="M287 -2v1982h1984v-1982h-1984zM485 195h1588v1587h-1588v-1587zM647 500l492 487l-492 492l141 141l492 -492l492 492l141 -141l-492 -492l492 -487l-141 -142l-492 490l-492 -490z" />
<glyph unicode="7" d="M287 -2v1982h1984v-1982h-1984zM485 195h1588v1587h-1588v-1587zM647 500l492 487l-492 492l141 141l492 -492l492 492l141 -141l-492 -492l492 -487l-141 -142l-492 490l-492 -490z" />
<glyph unicode="8" d="M287 -2v1982h1984v-1982h-1984zM485 195h1588v1587h-1588v-1587zM647 500l492 487l-492 492l141 141l492 -492l492 492l141 -141l-492 -492l492 -487l-141 -142l-492 490l-492 -490z" />
<glyph unicode="9" d="M287 -2v1982h1984v-1982h-1984zM485 195h1588v1587h-1588v-1587zM647 500l492 487l-492 492l141 141l492 -492l492 492l141 -141l-492 -492l492 -487l-141 -142l-492 490l-492 -490z" />
<glyph unicode=":" d="M287 -2v1982h1984v-1982h-1984zM485 195h1588v1587h-1588v-1587zM647 500l492 487l-492 492l141 141l492 -492l492 492l141 -141l-492 -492l492 -487l-141 -142l-492 490l-492 -490z" />
<glyph unicode=";" d="M287 -2v1982h1984v-1982h-1984zM485 195h1588v1587h-1588v-1587zM647 500l492 487l-492 492l141 141l492 -492l492 492l141 -141l-492 -492l492 -487l-141 -142l-492 490l-492 -490z" />
<glyph unicode="&#x3c;" d="M287 -2v1982h1984v-1982h-1984zM485 195h1588v1587h-1588v-1587zM647 500l492 487l-492 492l141 141l492 -492l492 492l141 -141l-492 -492l492 -487l-141 -142l-492 490l-492 -490z" />
<glyph unicode="=" d="M287 -2v1982h1984v-1982h-1984zM485 195h1588v1587h-1588v-1587zM647 500l492 487l-492 492l141 141l492 -492l492 492l141 -141l-492 -492l492 -487l-141 -142l-492 490l-492 -490z" />
<glyph unicode="&#x3e;" d="M287 -2v1982h1984v-1982h-1984zM485 195h1588v1587h-1588v-1587zM647 500l492 487l-492 492l141 141l492 -492l492 492l141 -141l-492 -492l492 -487l-141 -142l-492 490l-492 -490z" />
<glyph unicode="?" d="M287 -2v1982h1984v-1982h-1984zM485 195h1588v1587h-1588v-1587zM647 500l492 487l-492 492l141 141l492 -492l492 492l141 -141l-492 -492l492 -487l-141 -142l-492 490l-492 -490z" />
<glyph unicode="@" d="M287 -2v1982h1984v-1982h-1984zM485 195h1588v1587h-1588v-1587zM647 500l492 487l-492 492l141 141l492 -492l492 492l141 -141l-492 -492l492 -487l-141 -142l-492 490l-492 -490z" />
<glyph unicode="A" d="M287 -2v1982h1984v-1982h-1984zM485 195h1588v1587h-1588v-1587zM647 500l492 487l-492 492l141 141l492 -492l492 492l141 -141l-492 -492l492 -487l-141 -142l-492 490l-492 -490z" />
<glyph unicode="B" d="M287 -2v1982h1984v-1982h-1984zM485 195h1588v1587h-1588v-1587zM647 500l492 487l-492 492l141 141l492 -492l492 492l141 -141l-492 -492l492 -487l-141 -142l-492 490l-492 -490z" />
<glyph unicode="C" d="M287 -2v1982h1984v-1982h-1984zM485 195h1588v1587h-1588v-1587zM647 500l492 487l-492 492l141 141l492 -492l492 492l141 -141l-492 -492l492 -487l-141 -142l-492 490l-492 -490z" />
<glyph unicode="D" d="M287 -2v1982h1984v-1982h-1984zM485 195h1588v1587h-1588v-1587zM647 500l492 487l-492 492l141 141l492 -492l492 492l141 -141l-492 -492l492 -487l-141 -142l-492 490l-492 -490z" />
<glyph unicode="E" d="M287 -2v1982h1984v-1982h-1984zM485 195h1588v1587h-1588v-1587zM647 500l492 487l-492 492l141 141l492 -492l492 492l141 -141l-492 -492l492 -487l-141 -142l-492 490l-492 -490z" />
<glyph unicode="F" d="M287 -2v1982h1984v-1982h-1984zM485 195h1588v1587h-1588v-1587zM647 500l492 487l-492 492l141 141l492 -492l492 492l141 -141l-492 -492l492 -487l-141 -142l-492 490l-492 -490z" />
<glyph unicode="G" d="M287 -2v1982h1984v-1982h-1984zM485 195h1588v1587h-1588v-1587zM647 500l492 487l-492 492l141 141l492 -492l492 492l141 -141l-492 -492l492 -487l-141 -142l-492 490l-492 -490z" />
<glyph unicode="H" d="M287 -2v1982h1984v-1982h-1984zM485 195h1588v1587h-1588v-1587zM647 500l492 487l-492 492l141 141l492 -492l492 492l141 -141l-492 -492l492 -487l-141 -142l-492 490l-492 -490z" />
<glyph unicode="I" d="M287 -2v1982h1984v-1982h-1984zM485 195h1588v1587h-1588v-1587zM647 500l492 487l-492 492l141 141l492 -492l492 492l141 -141l-492 -492l492 -487l-141 -142l-492 490l-492 -490z" />
<glyph unicode="J" d="M287 -2v1982h1984v-1982h-1984zM485 195h1588v1587h-1588v-1587zM647 500l492 487l-492 492l141 141l492 -492l492 492l141 -141l-492 -492l492 -487l-141 -142l-492 490l-492 -490z" />
<glyph unicode="K" d="M287 -2v1982h1984v-1982h-1984zM485 195h1588v1587h-1588v-1587zM647 500l492 487l-492 492l141 141l492 -492l492 492l141 -141l-492 -492l492 -487l-141 -142l-492 490l-492 -490z" />
<glyph unicode="L" d="M287 -2v1982h1984v-1982h-1984zM485 195h1588v1587h-1588v-1587zM647 500l492 487l-492 492l141 141l492 -492l492 492l141 -141l-492 -492l492 -487l-141 -142l-492 490l-492 -490z" />
<glyph unicode="M" d="M287 -2v1982h1984v-1982h-1984zM485 195h1588v1587h-1588v-1587zM647 500l492 487l-492 492l141 141l492 -492l492 492l141 -141l-492 -492l492 -487l-141 -142l-492 490l-492 -490z" />
<glyph unicode="N" d="M287 -2v1982h1984v-1982h-1984zM485 195h1588v1587h-1588v-1587zM647 500l492 487l-492 492l141 141l492 -492l492 492l141 -141l-492 -492l492 -487l-141 -142l-492 490l-492 -490z" />
<glyph unicode="O" d="M287 -2v1982h1984v-1982h-1984zM485 195h1588v1587h-1588v-1587zM647 500l492 487l-492 492l141 141l492 -492l492 492l141 -141l-492 -492l492 -487l-141 -142l-492 490l-492 -490z" />
<glyph unicode="P" d="M287 -2v1982h1984v-1982h-1984zM485 195h1588v1587h-1588v-1587zM647 500l492 487l-492 492l141 141l492 -492l492 492l141 -141l-492 -492l492 -487l-141 -142l-492 490l-492 -490z" />
<glyph unicode="Q" d="M287 -2v1982h1984v-1982h-1984zM485 195h1588v1587h-1588v-1587zM647 500l492 487l-492 492l141 141l492 -492l492 492l141 -141l-492 -492l492 -487l-141 -142l-492 490l-492 -490z" />
<glyph unicode="R" d="M287 -2v1982h1984v-1982h-1984zM485 195h1588v1587h-1588v-1587zM647 500l492 487l-492 492l141 141l492 -492l492 492l141 -141l-492 -492l492 -487l-141 -142l-492 490l-492 -490z" />
<glyph unicode="S" d="M287 -2v1982h1984v-1982h-1984zM485 195h1588v1587h-1588v-1587zM647 500l492 487l-492 492l141 141l492 -492l492 492l141 -141l-492 -492l492 -487l-141 -142l-492 490l-492 -490z" />
<glyph unicode="T" d="M287 -2v1982h1984v-1982h-1984zM485 195h1588v1587h-1588v-1587zM647 500l492 487l-492 492l141 141l492 -492l492 492l141 -141l-492 -492l492 -487l-141 -142l-492 490l-492 -490z" />
<glyph unicode="U" d="M287 -2v1982h1984v-1982h-1984zM485 195h1588v1587h-1588v-1587zM647 500l492 487l-492 492l141 141l492 -492l492 492l141 -141l-492 -492l492 -487l-141 -142l-492 490l-492 -490z" />
<glyph unicode="V" d="M287 -2v1982h1984v-1982h-1984zM485 195h1588v1587h-1588v-1587zM647 500l492 487l-492 492l141 141l492 -492l492 492l141 -141l-492 -492l492 -487l-141 -142l-492 490l-492 -490z" />
<glyph unicode="W" d="M287 -2v1982h1984v-1982h-1984zM485 195h1588v1587h-1588v-1587zM647 500l492 487l-492 492l141 141l492 -492l492 492l141 -141l-492 -492l492 -487l-141 -142l-492 490l-492 -490z" />
<glyph unicode="X" d="M287 -2v1982h1984v-1982h-1984zM485 195h1588v1587h-1588v-1587zM647 500l492 487l-492 492l141 141l492 -492l492 492l141 -141l-492 -492l492 -487l-141 -142l-492 490l-492 -490z" />
<glyph unicode="Y" d="M287 -2v1982h1984v-1982h-1984zM485 195h1588v1587h-1588v-1587zM647 500l492 487l-492 492l141 141l492 -492l492 492l141 -141l-492 -492l492 -487l-141 -142l-492 490l-492 -490z" />
<glyph unicode="Z" d="M287 -2v1982h1984v-1982h-1984zM485 195h1588v1587h-1588v-1587zM647 500l492 487l-492 492l141 141l492 -492l492 492l141 -141l-492 -492l492 -487l-141 -142l-492 490l-492 -490z" />
<glyph unicode="[" d="M287 -2v1982h1984v-1982h-1984zM485 195h1588v1587h-1588v-1587zM647 500l492 487l-492 492l141 141l492 -492l492 492l141 -141l-492 -492l492 -487l-141 -142l-492 490l-492 -490z" />
<glyph unicode="\" d="M287 -2v1982h1984v-1982h-1984zM485 195h1588v1587h-1588v-1587zM647 500l492 487l-492 492l141 141l492 -492l492 492l141 -141l-492 -492l492 -487l-141 -142l-492 490l-492 -490z" />
<glyph unicode="]" d="M287 -2v1982h1984v-1982h-1984zM485 195h1588v1587h-1588v-1587zM647 500l492 487l-492 492l141 141l492 -492l492 492l141 -141l-492 -492l492 -487l-141 -142l-492 490l-492 -490z" />
<glyph unicode="^" d="M287 -2v1982h1984v-1982h-1984zM485 195h1588v1587h-1588v-1587zM647 500l492 487l-492 492l141 141l492 -492l492 492l141 -141l-492 -492l492 -487l-141 -142l-492 490l-492 -490z" />
<glyph unicode="_" d="M287 -2v1982h1984v-1982h-1984zM485 195h1588v1587h-1588v-1587zM647 500l492 487l-492 492l141 141l492 -492l492 492l141 -141l-492 -492l492 -487l-141 -142l-492 490l-492 -490z" />
<glyph unicode="`" d="M287 -2v1982h1984v-1982h-1984zM485 195h1588v1587h-1588v-1587zM647 500l492 487l-492 492l141 141l492 -492l492 492l141 -141l-492 -492l492 -487l-141 -142l-492 490l-492 -490z" />
<glyph unicode="a" d="M290 1672q-2 11 -2 23q0 29 17 56q23 35 63 43q11 2 22 3q28 0 54 -17l295 -193q4 0 11 1t10 1h1409q49 0 78 -39q25 -28 25 -68q0 -8 -1 -16l-127 -632q-4 -31 -29 -53.5t-59 -28.5l-1136 -113q-4 0 -7 -1t-4 -1q-37 0 -63 20.5t-37 57.5l-193 706l-280 187 q-37 22 -46 64zM530 356q0 73 50.5 123.5t124.5 50.5q72 0 120.5 -51t48.5 -123q0 -75 -48.5 -124.5t-120.5 -49.5q-75 0 -125 49.5t-50 124.5zM840 1384l145 -532l973 98l88 434h-1206zM1710 356q0 73 51 123.5t123 50.5q74 0 124 -50t50 -124q0 -72 -50.5 -123t-123.5 -51 q-72 0 -123 51t-51 123z" />
<glyph unicode="b" d="M290 1504q-2 11 -2 21q0 28 17 54q23 37 63 45q11 2 22 3q28 0 54 -17l318 -207q29 -20 45 -60l178 -663l973 100l110 555q7 43 43 67q27 18 57 17q10 0 21 -2q42 -9 65 -43q18 -27 18 -59q0 -8 -1 -17l-127 -632q-4 -32 -29.5 -54.5t-58.5 -27.5l-1136 -115h-11 q-37 0 -63 20.5t-37 55.5l-193 706l-280 187q-37 26 -46 66zM530 186q0 72 50 122t125 50q72 0 120.5 -50t48.5 -122q0 -74 -48.5 -124t-120.5 -50q-75 0 -125 50t-50 124zM1079 1241l219 207l-219 209l291 -82l74 391l72 -391l290 82l-217 -209l217 -207l-290 82l-72 -434 l-74 434zM1712 186q0 72 50 123t122 51q73 0 123.5 -51t50.5 -123q0 -74 -50 -124t-124 -50q-72 0 -122 50.5t-50 123.5z" />
<glyph unicode="c" d="M328 1442q0 14 2 16q6 29 37 29h2q43 0 80 22t57 60q20 36 20 80v2q0 27 29 37q4 2 20 2h549q21 0 27 -2q25 -16 25 -37v-2q0 -67 45.5 -113.5t111.5 -46.5q32 0 41 -27v-1081q0 -1 -0.5 -4l-1.5 -9l-2 -12q0 -6 -4 -6q-3 -14 -31 -20q-43 0 -79 -21.5t-56 -58.5 q-20 -29 -20 -78q0 -26 -25 -35q-20 -4 -29 -4h-548q-15 0 -21 2q-27 6 -27 33q0 67 -47.5 114.5t-113.5 47.5q-25 -3 -33 22q-6 9 -6 29zM576 1057q-5 -16 -5 -30q0 -24 13 -44q21 -41 78 -41q12 0 26 2q-22 -42 -22 -86q0 -77 54.5 -130.5t129.5 -53.5q76 0 131 53.5 t55 130.5q0 44 -22 86q14 -2 26 -2q56 0 78 41q13 20 13 44q-1 14 -5 30q-12 42 -53 71q-37 22 -72 22h-15q-43 -6 -66 -42q-13 -22 -14 -46q0 -14 5 -28q-24 8 -61 8q-35 0 -59 -8q4 15 4 28q0 24 -13 46q-23 36 -66 42q-7 1 -15 0q-36 0 -72 -22q-41 -29 -53 -71z M1274 1630l225 201q3 2 7.5 4.5t9.5 7.5q9 4 17 4q15 0 28 -12l4 -4q45 -52 114 -52q17 0 35 3q42 9 76 39q20 20 45 2q6 -3 16 -13l363 -409l16 -27q3 -9 3 -17q0 -15 -13 -24h-4q-47 -43 -51 -109v-11q0 -59 39 -105q18 -21 2 -43q-2 -5 -13 -16l-725 -641v1054v13l-2 10 q-12 44 -48.5 72t-82.5 28q-48 0 -61 45z" />
<glyph unicode="d" d="M289 829q-2 8 -2 15q0 23 22 37q69 41 90 118q7 26 7 51q0 49 -27 95q-18 23 4 51q4 4 13.5 10.5t13.5 10.5l1108 638q7 7 22 11q7 2 14 2q22 0 35 -23q2 0 2 -4q26 -44 71.5 -70t96.5 -26q49 0 96 29h3q34 18 55 -9q12 -8 14 -20l334 -569q3 -5 5 -17.5t5 -17.5v-8 q0 -28 -20 -37q-2 0 -6 -2q-67 -38 -87 -116q-7 -28 -7 -54q0 -48 24 -93q17 -33 -6 -53q-3 -4 -9.5 -8t-9.5 -8l-1112 -639q-9 -7 -26 -10q-2 -2 -11 -2q-22 0 -38 22q-26 43 -70.5 68.5t-95.5 25.5q-45 0 -97 -24q-25 -18 -47 4q-16 13 -24 26l-330 574zM704 1115 q-1 -2 -2 -5q0 -7 9 -16l77 -88q17 -23 17 -49q0 -10 -2 -21l-27 -109q-6 -18 3.5 -24.5t23.5 0.5l106 47q14 5 27 5l41 -11l98 -62q34 -21 31 19l-10 114q-2 17 5 36.5t19 29.5l90 74q27 23 -10 32l-110 27q-17 4 -32.5 17.5t-21.5 27.5l-43 105q-6 17 -16.5 17.5 t-20.5 -13.5l-57 -99q-18 -29 -59 -39l-115 -6q-17 0 -21 -9zM1270 1257l63 -26q20 -9 27 -33l14 -68q6 -25 21 -4l43 54q16 16 39 16l69 -8q22 0 10 18l-36 58q-12 15 -2 41l28 61q9 24 -16 18l-64 -18q-28 -3 -41 10l-51 47q-5 5 -9 5q-7 0 -11 -13l-4 -69q0 -20 -21 -35 l-59 -33q-10 -8 -10 -13t10 -8zM1274 700q4 -6 18 -4l84 13q29 6 51 -19l58 -63q9 -9 14 -9q8 0 10 17l17 84q2 12 11.5 24.5t21.5 16.5l77 37q13 6 13 12.5t-13 13.5l-75 39q-25 12 -31 47l-10 84q-2 12 -8 15q-2 1 -4 1q-5 0 -11 -8l-63 -59q-15 -20 -50 -16l-84 18 q-14 3 -18 -2t0 -18l39 -80q12 -27 -2 -51l-41 -74q-5 -9 -5 -14q0 -3 1 -5z" />
<glyph unicode="e" d="M291 950q2 3 6 11t8 12l656 776v2l12 12q22 13 43 -2l2 -2q30 -27 72 -33q14 -2 27 -2q27 0 52 9q33 9 64 47h4q10 14 24 14q8 0 17 -4q7 -7 16 -10l226 -191l-772 -448q-25 -14 -41 -33q-29 -30 -33 -71q-1 -7 -1 -14q0 -33 17 -62q13 -25 6 -49t-28 -38 q-36 -20 -54 -60q-11 -24 -10 -49q0 -17 4 -34q9 -25 19 -41l211 -362q-21 -13 -41 -33q-15 -20 -39 -10q-17 3 -23 12l-403 338q-14 13 -15 18q-12 21 2 41q37 42 37 97q0 7 -1 13q-5 64 -54 107q-14 8 -14 22q0 7 4 17zM698 758q-2 6 -2 11q0 16 19 28q54 32 70 93 q5 21 5 41q0 39 -20 75q-15 20 2 41q6 9 21 18l880 506l17 8q8 3 15 3q17 0 26 -17l2 -4q44 -76 133 -76q39 0 78 20v2q25 13 43 -8l12 -14l264 -457q1 -2 3 -6.5t3.5 -9t1.5 -8.5v-6q0 -19 -16 -31q-1 0 -2 -1t-2 -1q-52 -31 -69 -91q-6 -22 -6 -43q0 -37 19 -73 q16 -22 -6 -41q-11 -11 -16 -12l-879 -510h-2l-9 -4.5t-13 -4.5h-8q-19 0 -29 17q-20 35 -56 55.5t-77 20.5q-36 0 -74 -21q-21 -12 -41 2l-18 21l-260 456q-9 9 -9 21zM1028 984q-1 -2 -1 -5q0 -6 7 -14l60 -70q21 -21 12 -53l-21 -86q-4 -15 1.5 -20.5t19.5 -0.5l84 37 q28 14 53 -4l80 -49q11 -5 19 -1t4 17l-7 88q-4 13 3 29t18 22l67 60q26 22 -4 29l-90 20q-12 2 -25.5 12.5t-17.5 22.5l-33 86q-6 12 -15 12.5t-13 -10.5l-47 -80q-16 -29 -47 -29l-91 -6q-12 1 -16 -7zM1475 1114q-4 -4 -4 -8q0 -5 6 -10l49 -21q19 -9 22 -26l11 -54 q6 -18 16 -2l35 41q13 13 30 13l54 -5q7 -4 11.5 1.5t-1.5 11.5l-27 45q-14 14 -4 35l21 51q7 5 1 10q-5 4 -12 0l-53 -14q-18 0 -31 10l-40 37q-5 3 -9 3q-6 0 -6 -11l-6 -54q0 -20 -14 -28zM1483 668q-3 -6 -3 -10q0 -9 15 -9l66 10q24 6 38 -14l48 -49q6 -6 10 -6 q6 0 10 12l12 66q3 26 25 32l61 29q10 5 10 11t-10 12l-57 30q-25 16 -25 37l-6 66q-4 13 -10 13q-4 0 -10 -5l-49 -49q-18 -13 -41 -10l-68 14q-11 2 -13.5 -2.5t1.5 -14.5l31 -61q10 -23 -2 -43z" />
<glyph unicode="f" d="M328 465v1051q0 14 2 18q6 27 37 27h2q41 0 78 21.5t57 57.5q21 29 21 64q0 8 -1 16v2q0 30 29 33q12 4 20 4h543q20 0 29 -6q22 -9 22 -33v-2q0 -66 45 -111.5t111 -47.5q28 0 37 -25q0 -4 1 -11t1 -10v-1050q0 -12 -8 -25q0 -4 -2 -6q-9 -18 -31 -18 q-42 -2 -78.5 -22.5t-56.5 -55.5q-21 -38 -21 -78q0 -26 -24 -35q-8 -6 -27 -6h-543q-5 0 -20 6q-27 6 -27 35q-1 67 -46 111.5t-111 44.5q-28 0 -37 26q-2 6 -2 25zM514 874l47 -81q12 -32 0 -56l-41 -84q-15 -27 17 -24l92 18q39 4 57 -14l66 -68q25 -22 28 10l11 93 q6 35 32 49l82 43q13 6 13 14t-13 14l-84 41q-32 13 -35 45l-16 93q-9 31 -29 8l-63 -70q-24 -24 -53 -20l-95 16q-20 0 -20 -13q0 -6 4 -14zM573 1219l45 -33q17 -10 17 -29v-57q0 -6 4.5 -9t9.5 3l47 32q14 14 33 4l53 -14q4 -4 8.5 -3t5 5.5t-2.5 9.5l-17 52q-9 19 4 32 l31 48q6 4 3 9t-11 5l-53 -2q-17 0 -33 16l-31 45q-12 12 -18 -2l-15 -53q-6 -21 -24 -27l-54 -18q-11 -2 -11 -5q0 -4 9 -9zM893 965l70 -4q22 0 38 -25l33 -57q13 -26 23 0l26 65q9 20 33 27l70 14q19 8 4 23l-53 45q-19 16 -19 41l8 67q1 13 -4.5 16.5t-13.5 -1.5 l-59 -39q-20 -12 -43 -2l-64 26q-21 9 -18 -14l18 -68q3 -24 -10 -43l-47 -51q-5 -5 -5 -11q0 -9 13 -9zM1354 276q0 29 20 49.5t49 20.5q2 2 13 2h92h370q51 0 60 49l2 4q2 5 5.5 19t8.5 22q21 47 72 62q55 16 65 78v10v792v7v2q0 64 -61 86q-39 21 -60.5 42.5t-31.5 57.5 q-5 21 -22 36t-40 15h-366h-45h-51h-7h-2q-29 0 -50 21.5t-21 50.5q0 26 14.5 45t38.5 25h4q2 2 4 2h6h4h21h524q10 0 35 -5q27 -9 33 -47v-10q1 -59 40 -94.5t101 -40.5q42 -6 51 -41q2 -6 2 -23l-2 -1048q0 -24 -6 -33l-1 -2q-1 -2 -1 -6q-16 -25 -43 -25 q-87 -14 -123 -71q-17 -27 -20 -72q0 -35 -35 -47q-16 -4 -33 -4h-541h-12q-26 5 -43.5 24t-17.5 47zM1454 809v360h205v103q0 28 22 37q7 2 14 2q16 0 27 -11l277 -284q10 -17 10 -25q0 -11 -10 -28l-277 -285q-10 -10 -26 -10q-7 0 -15 2q-22 9 -22 37v102h-205z" />
<glyph unicode="g" d="M489 397v1190v2q0 4 1.5 11t1.5 10q9 30 40 30h5q47 0 87.5 24.5t65.5 66.5t25 92v2q0 28 30 37q3 1 7.5 1t10 -0.5t7.5 -0.5h614h31q29 -10 29 -39v-6q0 -72 51.5 -124.5t124.5 -52.5q33 0 41 -32q0 -4 1 -11t1 -10v-436q-23 6 -68 6q-153 0 -282.5 -76.5t-205 -206.5 t-75.5 -282q0 -149 70 -273.5t190 -201.5h-524q-15 0 -27 4q-30 6 -30 41q0 73 -52.5 125.5t-126.5 52.5q-29 -3 -40 29q-3 9 -3 28zM698 1186q-1 -3 -1 -6q0 -5 3 -11l45 -75q12 -28 0 -56l-38 -77q-12 -27 14 -21l88 16q11 4 27 -1t24 -13l64 -61q20 -20 26 8l11 86 q3 32 30 47l76 41q27 12 0 24l-80 37q-27 15 -33 43l-14 86q-5 14 -12 16.5t-15 -7.5l-59 -64q-21 -21 -51 -18l-86 12q-14 0 -19 -6zM756 1487l43 -29q14 -8 14 -26v-56q0 -5 5 -7t11 3l41 31q13 13 31 4l49 -14q8 -3 11 0t2 12l-19 49q-6 19 6 31l31 43q6 12 -8 12h-53 q-21 0 -29 14l-31 41q-5 5 -8 5v0q-3 -1 -8 -9l-15 -47q-6 -18 -22 -24l-49 -15q-6 -5 -6 -10q0 -4 4 -8zM1047 1272q-5 -6 -5 -10q0 -7 13 -11l63 -4q23 0 37 -20l33 -58q10 -22 20 2l23 60q10 23 31 29l63 12q26 6 6 20l-49 41q-21 15 -14 39l4 64q4 15 -7 15q-5 0 -12 -3 l-53 -35q-8 -6 -20.5 -7t-20.5 5l-61 25q-21 9 -15 -13l17 -63q6 -23 -10 -39zM1120 592q0 97 37.5 184.5t101.5 151.5t151.5 101.5t184.5 37.5q129 0 238.5 -63.5t173.5 -173t64 -238.5q0 -130 -64 -240t-173.5 -173.5t-238.5 -63.5q-97 0 -184.5 37.5t-151.5 101.5 t-101.5 152.5t-37.5 185.5zM1278 592q0 -81 41 -158l434 436q-74 41 -158 41q-131 0 -224 -94.5t-93 -224.5zM1438 315q68 -45 157 -45q129 0 224.5 95t95.5 227q0 84 -41 158z" />
<glyph unicode="h" d="M295 834q-7 31 -7 61q0 84 54 168q48 28 76 35q29 8 57 8q45 0 88 -21q64 -27 76 -90q2 0 4 -2q-14 -24 -16 -41q-13 -51 -13 -103q0 -56 15 -114q21 -82 67 -149q-160 18 -267.5 82t-133.5 166zM463 1198q159 132 418 203q146 40 280 40q104 0 201 -24 q-73 -32 -119.5 -93.5t-52.5 -131.5q-29 11 -74 11q-70 0 -180 -27q-162 -44 -225 -107q-33 59 -107 100q-54 29 -141 29zM717 926q13 52 39 67q22 -3 47 -3q73 0 174 26q137 35 205 84h4q5 2 10 2q23 0 57 -39q57 -57 80 -150q15 -51 15 -96q0 -41 -13 -76q-3 -21 -10 -30 q-114 -59 -246 -93q-118 -31 -252 -34q-15 9 -28 22q-59 59 -80 152q-12 49 -12 93q0 40 10 75zM1284 1159q-2 11 -2 22q0 47 35 91q43 54 117 74q27 8 53.5 8t52.5 -8q99 -63 127 -160q7 -29 7 -59q0 -75 -44 -151q-61 -106 -194 -198q4 23 4 48q0 51 -17 110 q-26 114 -102 190q-10 13 -37 33zM1427 645q-1 1 -1 2q0 3 6 8q57 61 145.5 98.5t175.5 37.5q93 0 164 -39q40 -20 66 -59.5t26 -78.5q0 -40 -41 -61q-30 -12 -49 -12q-40 0 -98 61q-2 2 -15.5 13.5t-17.5 15t-17.5 13.5t-21 14.5t-21 12t-25 11.5t-26.5 8t-30 6h-7 q-71 0 -202 -53q-9 0 -11 2zM1649 858q-1 1 -1 2q0 3 3 8q130 88 317 88q86 0 154.5 -25t107.5 -69q41 -45 41 -90q0 -17 -6 -35q-21 -50 -90 -53q-4 -4 -12 -4q-26 0 -49 11.5t-33.5 21t-38.5 37.5q-34 40 -77.5 69.5t-113.5 44.5q-35 8 -74 8q-57 0 -120 -18q-8 -5 -8 4z M1724 993v8l48 46q38 40 57 57.5t50 39t64 29.5t78 9h4q36 0 70.5 -19t46.5 -47q3 -10 3 -18q0 -20 -15 -35q-21 -21 -59 -21q-12 0 -52 5l-36 4.5t-46 3.5q-25 0 -41 -2q-49 -6 -78 -17t-85 -45h-2q-5 0 -7 2z" />
<glyph unicode="i" d="M367 256v1073q0 55 38.5 94t94.5 39h229v-1339h-229q-56 0 -94.5 38t-38.5 95zM823 123v1339h6v109q0 117 82 200.5t199 83.5h338q118 0 200.5 -83.5t82.5 -200.5v-109h4v-1339h-912zM938 976q-7 -21 -8 -40q0 -29 16 -55q20 -29 54 -41q23 -8 48 -8q13 0 27 2 q-26 -53 -26 -107q0 -98 66.5 -164.5t164.5 -66.5q97 0 163 66.5t66 164.5q0 51 -24 107q16 -3 31 -3q64 0 96 50q17 27 17 57q0 18 -6 38q-17 52 -69 87q-42 27 -87 27q-10 0 -19 -1q-55 -7 -84 -51q-16 -26 -16 -54q0 -20 8 -40q-44 12 -76 12t-78 -12q8 23 8 44 q0 27 -14 50q-29 44 -84 51q-10 1 -19 1q-45 0 -87 -27q-50 -35 -68 -87zM1018 1462h522v109q0 38 -27.5 65t-64.5 27h-338q-37 0 -64.5 -27t-27.5 -65v-109zM1831 123v1339h229q54 0 92.5 -39t38.5 -94v-1073q0 -56 -38.5 -94.5t-92.5 -38.5h-229z" />
<glyph unicode="j" d="M370 1125q-3 6 -3 13q0 15 14 33l145 195q21 31 28 70q4 17 4 32q0 23 -7 45l-80 230q-10 36 5.5 51.5t47.5 1.5l232 -76q21 -8 45 -8q15 0 30 3q42 7 72 28l195 143q29 20 48 11t19 -44l-4 -243q-1 -35 19 -74t49 -59l198 -142q29 -20 25 -40.5t-37 -32.5l-233 -72 q-32 -10 -62.5 -41t-42.5 -64l-71 -233q-11 -33 -32.5 -36t-41.5 26l-141 196q-20 29 -58.5 49.5t-75.5 20.5l-243 -2q-35 -1 -44 19zM438 420q0 12 15 18l151 25l33 164q0 16 16 16q17 0 17 -16l28 -164l119 -25q14 -6 14 -18q0 -16 -14 -19l-119 -28l-28 -269 q0 -14 -17 -14q-16 0 -16 14l-33 269l-151 28q-15 6 -15 19zM1049 408q0 35 24.5 59.5t61.5 24.5q35 0 59.5 -24.5t24.5 -59.5q0 -37 -24.5 -61.5t-59.5 -24.5q-37 0 -61.5 24.5t-24.5 61.5zM1191 966.5q0 45.5 32 80.5q35 32 81 32t78 -32l779 -779q32 -32 32 -78.5 t-32 -78.5q-35 -35 -80 -35q-50 0 -80 35l-778 778q-32 32 -32 77.5zM1651 1524q0 16 12 16l184 55l51 291q7 17 19 17q18 0 18 -17l54 -291l186 -55q16 0 16 -16t-16 -19l-186 -51l-54 -303q0 -14 -18 -14q-13 0 -19 14l-51 303l-184 51q-12 3 -12 19z" />
<glyph unicode="k" d="M287 1759q0 2 2 4q0 2 6 2h618q5 0 7 -2l6 -18q4 -4 8 -19.5t8 -21.5h168h297h131q22 0 27 -4q2 -4 2 -47q0 -35 2 -41q0 -2 20 -2q26 0 49 -2q7 29 7 50q0 14 -3 25l-4 39q-4 4 0 7q0 2 4 2l152 2h2q4 0 4 -4q0 -50 2 -52q13 -35 43 -127q54 -153 72 -196 q47 -107 121 -248q1 -4 6 -10.5t14 -18t15 -20.5q30 -45 41 -56q10 -13 0 -26q-5 -5 -3 -12q1 -3 7 -14t15.5 -28t16.5 -32l93 -172q28 -115 28 -197q0 -43 -20 -153q-5 -12 -10 -45q-9 -37 -21 -52q-33 -29 -79.5 -43t-82.5 -14q-18 0 -20 2q-6 0 -10 3t-7.5 12.5 t-5.5 15.5t-6 22q-14 61 -35 80q-2 0 -6 2l-18 10q-25 25 -25 52q-6 4 -13 5t-18.5 2t-15.5 1q-27 0 -33 2l-2 2q-16 29 -22 65q-3 9 -9.5 26.5t-11 28.5t-12 26.5t-16.5 27.5q-14 14 -26 46q-9 23 -8 51q0 11 1 24q-14 0 -17 -21q0 -24 -12 -30q-2 0 -6 2q-18 16 -27 37 q-9 15 -18 24q-5 3 -11 12.5t-8 12.5l-41 51q-10 10 -10 22q0 19 23 45q26 26 26 46q0 5 -2 10q-15 47 -86 47h-14h-2q-2 2 -6 4q-4 8 -2 34.5t2.5 32.5t4.5 31t5 31q9 42 9 81q0 11 -1 21q-4 12 -11.5 29.5t-10.5 26.5q-20 32 -25 51q-33 -9 -55 -7t-49 21q-1 0 -2 1t-2 1 q-9 7 -20.5 14.5t-14.5 10.5q-4 5 -4 33q0 16 -2 20l-11 10q-7 10 -47 45q-6 5 -49 19q-8 3 -14 5.5t-8.5 3t-3.5 1.5l-9 6l-16 6q-6 3 -6 9l-4 2q-11 8 -35 8q-21 0 -27 -2q-11 -11 -24 -19q-4 -1 -8.5 -5t-8.5 -5q-9 -6 -27 -11.5t-24 -8.5l-45 -15q-10 -8 -33 -18 q-41 -23 -61 -23t-41 21q-4 3 -9 11.5t-8 12.5q-9 26 -20 37q-1 0 -4 1t-8 2.5t-8 2.5q-17 3 -23 9q-8 2 -53 22q-4 3 -10.5 5t-12.5 3t-8 2q-6 2 -45 25q-21 12 -27 14q-11 4 -14 6l-23 7l-10 16q-2 2 -3.5 5.5t-6.5 4.5q-16 2 -53 2q-31 0 -41 -2q-6 0 -13 -4l-8 -4 q-17 -13 -28 -14q-22 -3 -50 0h-22q-2 0 -4 2q-12 17 -23.5 55t-18 67t-7.5 29z" />
<glyph unicode="l" d="M358 1322q35 124 144 218q119 102 263 105h8q138 0 218 -95q28 -40 35 -61q36 -59 36 -134q0 -34 -7 -71q193 143 418 152q-64 51 -89 112q-34 64 -34 135q5 128 118 216q105 82 248 82q11 0 23 -1q123 -4 216.5 -59.5t131.5 -146.5q35 -65 35 -136q-4 -107 -83 -185 t-204 -103q173 -97 275 -264.5t102 -368.5q0 -146 -57 -279.5t-153 -229.5t-228.5 -153t-278.5 -57q-196 0 -361.5 96.5t-261.5 262t-96 360.5q0 146 53 276q-94 -51 -190 -51q-19 0 -37 2q-114 12 -182 92q-28 40 -39 62q-36 62 -36 134q0 43 13 90zM915 727 q0 -151 78.5 -280.5t212.5 -205t291 -75.5q101 0 191 33h2q15 13 22 65q1 5 0 8t-2.5 3.5t-6.5 2t-9 3.5q-1 1 -19 0t-33 14q-6 4 -13.5 11.5t-16.5 18.5t-15 17l-28 31q-11 25 -13 41q-4 12 -4 23q0 26 19 52q30 30 20 54q-5 15 -10 20q-19 -8 -33 -8h-12q-31 0 -80 49 q-10 14 -29.5 15.5t-25.5 7.5q-32 29 -51 37q-25 8 -46 17.5t-36 20.5t-24.5 18.5t-19.5 17.5l-12 12q-20 26 -26 43q-2 3 -6 8.5t-6.5 10.5l-4.5 9l-22 13q-30 17 -37 24q-13 10 -27 33q-5 5 -10 20q-5 7 -14 29q-6 15 -6 37q0 18 4 41q10 65 28 100q-81 -75 -125.5 -176 t-44.5 -215zM1313 809q-4 -11 -4 -21q-1 -18 9 -34q16 -28 32 -27q11 -3 18 -2t12 12q6 18 35 31q16 4 26.5 -2.5t12.5 -15.5q1 -8 -5.5 -30.5t-6.5 -23.5q0 -6 10 -6q26 0 51 -6q16 -3 15 -36v-34q16 -16 26 -16q32 0 64 16q1 1 9.5 10.5l17 19t19.5 18.5t19 12l37 6 q12 4 23 4q45 0 73 -14q12 -4 31 -18t31 -17q8 -3 31 -0.5t34 -5.5q16 -8 27 -21l10 -14q14 -14 38 -14q9 0 20 2l30 4q19 68 19 141q0 145 -72.5 269t-196.5 199.5t-272 86.5q0 -17 10 -31q1 -1 3.5 -4.5t5 -5.5t7.5 -5t13.5 -4.5t19.5 -2.5q32 -6 50 -20.5t16 -26.5 q-1 -5 -6 -14t-2 -17q8 -12 11 -21t2.5 -12.5t-3 -7t-2.5 -4.5q-2 -1 -13 -6t-16 -6q-19 -11 -20 -11q-9 -14 -10 -16t1 -7t1 -9t-7 -7q-34 -27 -38 -43q0 -22 -25 -57q-35 -35 -27 -51q1 -9 10.5 -24.5t10.5 -18.5q5 -8 7 -17.5t-2.5 -17t-16.5 -4.5q-19 5 -27 10t-17 21.5 t-16 25.5q-12 14 -29 11q-6 -3 -10 -11l-6 -14q-9 -9 -18 -6q-11 5 -30.5 5.5t-27.5 -5.5q-4 -3 -6.5 -5t-4.5 -5.5t-3 -5.5t-3.5 -10t-4.5 -13z" />
<glyph unicode="m" d="M299 735q-11 42 -11 80q0 48 17 91q31 78 107 102q25 9 50 9q47 0 95 -32q-1 13 -1 25q0 53 11 96q14 50 51 106h-8q-80 0 -131 56q-42 44 -42 110q0 15 2 32q12 87 83 149q69 63 154 68h14q76 0 127 -52q37 -45 41 -101q1 -8 1 -15q0 -49 -25 -97q34 8 71 8 q49 0 101 -14q108 -26 180 -109.5t84 -191.5l899 -244q55 -12 83 -62q19 -34 20 -70q0 -18 -5 -36q-13 -55 -63 -83q-33 -18 -70 -18q-18 0 -37 5l-18 4l-70 -262q-8 -19 -24 -19h-5l-94 27q-20 9 -20 29l8 71q0 21 -21 27l-98 27q-23 3 -33 -13l-28 -67q-10 -19 -31 -13 l-94 25q-22 6 -19 27l72 264l-430 114q-68 -83 -166 -116q-52 -18 -107 -18q-48 0 -98 14q-83 20 -151 82q-5 -63 -37 -111t-86 -66q-24 -7 -47 -7q-51 0 -101 32q-73 48 -100 137zM768 1057q-7 -23 -8 -45q0 -36 20 -70q32 -54 94 -72q21 -6 42 -6q38 0 73 20q55 31 74 93 q4 19 4 37q0 42 -22 80q-32 54 -93 71q-21 6 -41 6q-39 0 -75 -21q-56 -32 -68 -93zM1190 1425q0 13 16 19l211 35l37 213q0 16 19 16q13 0 16 -16l37 -213l213 -35q14 -6 14 -19q0 -18 -14 -18l-213 -35l-37 -213q-3 -14 -16 -14q-19 0 -19 14l-37 213l-211 35 q-16 0 -16 18zM1663 1188q0 12 16 18l111 17l16 112q6 15 19 15q17 0 20 -15l19 -112l110 -17q15 -6 15 -18q0 -19 -15 -19l-110 -18l-19 -113q-3 -14 -20 -14q-13 0 -19 14l-16 113l-111 18q-16 0 -16 19z" />
<glyph unicode="n" d="M408 397v178h1744v-178q0 -60 -42.5 -103.5t-102.5 -43.5h-1454q-60 0 -102.5 43.5t-42.5 103.5zM408 842v735q0 61 42.5 103t102.5 42h731v-880h-876zM561 1333l92 -90q13 -13 20 -34.5t3 -39.5l-21 -125q-6 -20 4 -26.5t27 4.5l115 57q20 8 39 9l39 -9l114 -57 q14 -11 24.5 -4.5t6.5 26.5l-20 125q-6 18 1.5 39.5t20.5 34.5l92 90q30 30 -12 39l-125 19q-21 2 -40 14.5t-26 30.5l-55 114q-19 39 -41 0l-57 -114q-6 -18 -24.5 -30.5t-39.5 -14.5l-125 -19q-24 -5 -25 -18q1 -9 13 -21zM1386 842v295h766v-295h-766zM1386 1432v290v2 h621q60 0 102.5 -42t42.5 -103v-147h-766z" />
<glyph unicode="o" d="M290 1115q12 41 50 65l1167 673q27 15 54 15q8 0 28 -4l377 -101q46 -13 66 -51l225 -389q13 -25 13 -53q0 -14 -3 -29l-98 -377q-16 -45 -51 -65l-1168 -674q-25 -14 -55 -14q-57 0 -92 53l-502 868q-15 28 -15 56q0 13 4 27zM985 821q0 -57 51.5 -104t141.5 -64v-24 q0 -35 25.5 -59.5t60.5 -24.5q37 0 61.5 24.5t24.5 59.5v24q92 17 143 72t51 137q0 31 -8 58.5t-26.5 55.5t-55.5 50t-90 33l-121 28q-46 11 -66 23t-20 31q0 59 90 59q82 0 117 -53q14 -20 29.5 -30.5t42.5 -10.5q37 0 59.5 21t22.5 53q0 49 -48 89t-120 62v35 q0 37 -24.5 61.5t-61.5 24.5q-36 0 -61 -25t-25 -61v-31q-83 -15 -138 -64.5t-55 -135.5q0 -65 34.5 -113.5t135.5 -77.5l164 -43q47 -9 47 -51q0 -29 -25 -48.5t-73 -19.5q-37 0 -63.5 10.5t-37 21t-28.5 34.5q-30 51 -80 51q-32 0 -53 -22.5t-21 -55.5zM1769 1405 q-5 -17 -5 -33q0 -33 20 -63q30 -44 80 -58q18 -5 35 -5q31 0 59 16q43 30 57 80q5 18 5 35q0 30 -15 59q-29 46 -79 60q-17 4 -33 5q-32 0 -62 -18q-48 -26 -62 -78z" />
<glyph unicode="p" d="M328 336v389h1904v-389q0 -13 -11 -21t-28 -8h-223v148q0 24 -22 24h-1336q-24 0 -24 -24v-148h-221q-17 0 -28 8t-11 21zM328 813v27q0 183 286 309q277 123 670 123q392 0 666 -123q282 -124 282 -309v-27h-1904zM489 1159v422q0 37 26.5 63.5t62.5 26.5h1447 q35 0 62 -26.5t27 -63.5v-446q-15 10 -138 75h-2l-4 37q0 79 -107 150t-251 71q-117 0 -208.5 -34t-129.5 -91q-35 57 -127 91t-211 34q-142 0 -250 -71t-108 -150l-3 -45q-56 -26 -86 -43z" />
<glyph unicode="q" d="M305 643l309 692q38 85 127.5 143t182.5 58h1200q91 0 130 -60q19 -30 19 -66q0 -35 -18 -75l-309 -692q-38 -84 -129.5 -142.5t-180.5 -58.5h-1202q-88 0 -127 60q-20 31 -20 67q0 35 18 74zM537 596h163l134 305h311l72 154h-312l70 153h336l69 154h-497zM1151 596h164 l137 305h119q275 0 379 229l18 41q11 36 11 65q0 126 -205 126h-277zM1516 1034l81 174h84q59 0 88 -16q18 -10 18 -36q0 -14 -5 -32q-41 -90 -156 -90h-110z" />
<glyph unicode="r" d="M287 233v764q0 38 28 65.5t66 27.5h1251q39 0 68 -27.5t29 -65.5v-764q0 -38 -29.5 -67t-67.5 -29h-1251q-38 0 -66 29t-28 67zM698 779q-7 -19 -6 -36q0 -26 15 -49q30 -47 92 -47q11 0 24 2q-24 -47 -24 -96q0 -87 61 -147t148 -60t148 60t61 147q0 49 -27 96 q13 -2 25 -2q65 0 94 47q15 22 15 48q0 18 -7 37q-17 48 -64 79q-35 22 -75 22q-10 0 -20 -2q-50 -6 -73 -44q-17 -23 -17 -49q0 -17 7 -35q-30 10 -67 10q-38 0 -68 -10q4 17 4 32q0 29 -14 52q-24 38 -74 44q-10 1 -19 2q-40 0 -77 -22q-46 -32 -62 -79zM725 1196l154 576 q11 31 36 50t56 19q3 0 11 -2t13 -2l1207 -324q38 -10 57 -44q12 -22 12 -45q0 -13 -4 -27l-196 -738q-10 -32 -36 -51.5t-57 -19.5q-7 0 -22 6l-123 31v102l143 -39l111 412l-1198 321l-62 -225h-102zM934 1597l1200 -319l39 143l-1200 320z" />
<glyph unicode="s" d="M481 94v248q0 18 19 18h1560q19 0 19 -18v-248q0 -18 -19 -18h-1560q-19 0 -19 18zM567 428v1260q0 55 129 106.5t293.5 80t290.5 28.5t290 -28.5t292.5 -80t128.5 -106.5v-1260q0 -18 -17 -18h-262v419q0 166 -127.5 285t-304.5 119q-178 0 -305 -119t-127 -285v-419 h-262q-19 0 -19 18zM977 461v20q0 166 127 228q68 -74 174 -74q105 0 176 74q127 -62 127 -228v-20q0 -12 -12 -22.5t-25 -10.5h-528q-14 0 -26.5 10.5t-12.5 22.5zM1087 881q0 80 56 136t135 56q81 0 135.5 -56t54.5 -136t-54.5 -136.5t-135.5 -56.5q-79 0 -135 56.5 t-56 136.5zM1106 1691q-4 -12 -4 -22q0 -15 8 -27q13 -26 48 -26q9 0 20 2q-17 -24 -17 -53q0 -49 34.5 -84t84.5 -35q49 0 82 34.5t33 84.5q0 30 -13 53q11 -2 20 -2q34 0 46 26q9 12 9 29q0 10 -3 20q-9 29 -37 42q-20 15 -43 15q-4 0 -10 -1q-28 -4 -41 -25 q-14 -19 -4 -49q-15 6 -39 6q-27 0 -39 -6q10 30 -4 49q-13 21 -41 25q-5 1 -10 1q-22 0 -45 -15q-26 -13 -35 -42z" />
<glyph unicode="t" d="M287 -2v1982h1984v-1982h-1984zM485 195h1588v1587h-1588v-1587zM647 500l492 487l-492 492l141 141l492 -492l492 492l141 -141l-492 -492l492 -487l-141 -142l-492 490l-492 -490z" />
<glyph unicode="u" d="M287 -2v1982h1984v-1982h-1984zM485 195h1588v1587h-1588v-1587zM647 500l492 487l-492 492l141 141l492 -492l492 492l141 -141l-492 -492l492 -487l-141 -142l-492 490l-492 -490z" />
<glyph unicode="v" d="M287 -2v1982h1984v-1982h-1984zM485 195h1588v1587h-1588v-1587zM647 500l492 487l-492 492l141 141l492 -492l492 492l141 -141l-492 -492l492 -487l-141 -142l-492 490l-492 -490z" />
<glyph unicode="w" d="M287 -2v1982h1984v-1982h-1984zM485 195h1588v1587h-1588v-1587zM647 500l492 487l-492 492l141 141l492 -492l492 492l141 -141l-492 -492l492 -487l-141 -142l-492 490l-492 -490z" />
<glyph unicode="x" d="M287 -2v1982h1984v-1982h-1984zM485 195h1588v1587h-1588v-1587zM647 500l492 487l-492 492l141 141l492 -492l492 492l141 -141l-492 -492l492 -487l-141 -142l-492 490l-492 -490z" />
<glyph unicode="y" d="M287 -2v1982h1984v-1982h-1984zM485 195h1588v1587h-1588v-1587zM647 500l492 487l-492 492l141 141l492 -492l492 492l141 -141l-492 -492l492 -487l-141 -142l-492 490l-492 -490z" />
<glyph unicode="z" d="M287 -2v1982h1984v-1982h-1984zM485 195h1588v1587h-1588v-1587zM647 500l492 487l-492 492l141 141l492 -492l492 492l141 -141l-492 -492l492 -487l-141 -142l-492 490l-492 -490z" />
<glyph unicode="{" d="M287 -2v1982h1984v-1982h-1984zM485 195h1588v1587h-1588v-1587zM647 500l492 487l-492 492l141 141l492 -492l492 492l141 -141l-492 -492l492 -487l-141 -142l-492 490l-492 -490z" />
<glyph unicode="&#xa0;" d="M287 -2v1982h1984v-1982h-1984zM485 195h1588v1587h-1588v-1587zM647 500l492 487l-492 492l141 141l492 -492l492 492l141 -141l-492 -492l492 -487l-141 -142l-492 490l-492 -490z" />
<glyph unicode="&#xad;" d="M287 -2v1982h1984v-1982h-1984zM485 195h1588v1587h-1588v-1587zM647 500l492 487l-492 492l141 141l492 -492l492 492l141 -141l-492 -492l492 -487l-141 -142l-492 490l-492 -490z" />
<glyph unicode="&#x2000;" horiz-adv-x="990" />
<glyph unicode="&#x2001;" horiz-adv-x="1981" />
<glyph unicode="&#x2002;" horiz-adv-x="990" />
<glyph unicode="&#x2003;" horiz-adv-x="1981" />
<glyph unicode="&#x2004;" horiz-adv-x="660" />
<glyph unicode="&#x2005;" horiz-adv-x="495" />
<glyph unicode="&#x2006;" horiz-adv-x="330" />
<glyph unicode="&#x2007;" horiz-adv-x="330" />
<glyph unicode="&#x2008;" horiz-adv-x="247" />
<glyph unicode="&#x2009;" horiz-adv-x="396" />
<glyph unicode="&#x200a;" horiz-adv-x="110" />
<glyph unicode="&#x2010;" d="M287 -2v1982h1984v-1982h-1984zM485 195h1588v1587h-1588v-1587zM647 500l492 487l-492 492l141 141l492 -492l492 492l141 -141l-492 -492l492 -487l-141 -142l-492 490l-492 -490z" />
<glyph unicode="&#x2011;" d="M287 -2v1982h1984v-1982h-1984zM485 195h1588v1587h-1588v-1587zM647 500l492 487l-492 492l141 141l492 -492l492 492l141 -141l-492 -492l492 -487l-141 -142l-492 490l-492 -490z" />
<glyph unicode="&#x2012;" d="M287 -2v1982h1984v-1982h-1984zM485 195h1588v1587h-1588v-1587zM647 500l492 487l-492 492l141 141l492 -492l492 492l141 -141l-492 -492l492 -487l-141 -142l-492 490l-492 -490z" />
<glyph unicode="&#x2013;" horiz-adv-x="1600" d="M287 -2v1982h1024v-1982h-1024zM389 195h820v1587h-820v-1587zM473 500l254 487l-254 492l73 141l254 -492l253 492l73 -141l-254 -492l254 -487l-73 -142l-253 490l-254 -490z" />
<glyph unicode="&#x2014;" horiz-adv-x="2624" d="M287 -2v1982h2048v-1982h-2048zM491 195h1640v1587h-1640v-1587zM659 500l507 487l-507 492l145 141l508 -492l508 492l145 -141l-507 -492l507 -487l-145 -142l-508 490l-508 -490z" />
<glyph unicode="&#x202f;" horiz-adv-x="396" />
<glyph unicode="&#x205f;" horiz-adv-x="495" />
<glyph unicode="&#xe000;" horiz-adv-x="1976" d="M0 0v1976h1976v-1976h-1976z" />
</font>
</defs>
</svg>
